/* XPM */
static char *_d9d13b68fb6450ccdc937fb427501a9[] = {
/* columns rows colors chars-per-pixel */
"16 16 71 1 ",
"  c #222222",
". c gray14",
"X c #2F2F2F",
"o c #323232",
"O c gray20",
"+ c #343434",
"@ c #353535",
"# c gray21",
"$ c gray22",
"% c gray23",
"& c #3C3C3C",
"* c gray24",
"= c #3E3E3E",
"- c #3F3F3F",
"; c gray25",
": c #414141",
"> c gray26",
", c #434343",
"< c #444444",
"1 c gray27",
"2 c #454646",
"3 c #464646",
"4 c gray28",
"5 c #484848",
"6 c gray29",
"7 c #4B4B4B",
"8 c #4C4C4C",
"9 c gray30",
"0 c #4E4E4E",
"q c #505050",
"w c #515151",
"e c gray32",
"r c #535353",
"t c gray33",
"y c #585858",
"u c gray35",
"i c #5A5A5A",
"p c #5B5B5B",
"a c gray36",
"s c gray37",
"d c #5F5F5F",
"f c #606060",
"g c gray38",
"h c gray39",
"j c gray40",
"k c gray43",
"l c gray44",
"z c gray48",
"x c #808080",
"c c #818181",
"v c gray52",
"b c gray53",
"n c #898989",
"m c #8E8E8E",
"M c #9A9A9A",
"N c gray62",
"B c #A0A0A0",
"V c #A4A5A5",
"C c #A7A8A8",
"Z c #ACACAC",
"A c #AFAFAF",
"S c #B1B1B1",
"D c #B4B4B4",
"F c gray71",
"G c #B7B7B7",
"H c #B9B9B9",
"J c gray75",
"K c gray76",
"L c gray77",
"P c #DADADA",
"I c None",
/* pixels */
"IIIIIIIIIIIIIIII",
"IIIIIIIIIIIIIIII",
"IIIII#%%--%IIIII",
"IIIo;;;444;5#III",
"III44<444;449XII",
"IIe-9Cr;<eF9;pII",
"IIi;;Zn&%mJ-;hII",
"IIi;eMF-%KSr;skI",
"IIi;ebLNVPNt;dlI",
"IIg;4ezSDxi5;jII",
"IIs;4;;HH;;44gII",
"IIX944-bc&4;eXII",
"III#94;59;49oIII",
"IIII ;55454.IIII",
"IIIIIII%%IIIIIII",
"IIIIIIIIIIIIIIII"
};
