/* XPM */
static char *_482424149087[] = {
/* columns rows colors chars-per-pixel */
"64 64 55 1 ",
"  c #161616",
". c #1D1D1D",
"X c #242424",
"o c #272828",
"O c #2B2B2B",
"+ c #2F3030",
"@ c #333333",
"# c #3B3B3B",
"$ c #3F4040",
"% c #434343",
"& c #4B4B4B",
"* c #535353",
"= c #585757",
"- c #575858",
"; c #5A5A5B",
": c #5F6060",
"> c #636464",
", c #6C6C6C",
"< c #6F7070",
"1 c #727272",
"2 c #7B7B7B",
"3 c #848484",
"4 c #888787",
"5 c #8B8B8B",
"6 c #949494",
"7 c #989797",
"8 c #9C9B9B",
"9 c #A09F9F",
"0 c #9FA0A0",
"q c #A4A3A3",
"w c #A8A7A7",
"e c #ACACAC",
"r c #B0AFAF",
"t c #B4B3B3",
"y c #B8B7B7",
"u c #B7B8B8",
"i c #BBBABA",
"p c #C0BFBF",
"a c #C4C3C3",
"s c #C9C7C7",
"d c #CBCBCB",
"f c #D0CFCF",
"g c #CFD0D0",
"h c #D4D3D3",
"j c #D9D7D7",
"k c #DCDBDB",
"l c #E0DFDF",
"z c #E4E3E3",
"x c #E8E7E7",
"c c #ECEBEB",
"v c #F1EFEF",
"b c #F4F3F3",
"n c #F8F7F7",
"m c #FEFEFE",
"M c None",
/* pixels */
"MMMMMMMMMMMMMMMMMMMMMMMMMMO%*-;>>:-*#+MMMMMMMMMMMMMMMMMMMMMMMMMM",
"MMMMMMMMMMMMMMMMMMMMMM@*,1111<1111<<1<1,*@MMMMMMMMMMMMMMMMMMMMMM",
"MMMMMMMMMMMMMMMMMMMM-,1<<1,>,122221,>,1<<<<*MMMMMMMMMMMMMMMMMMMM",
"MMMMMMMMMMMMMMMMMO><11,,37tdjkllllkkdt73,<<<1>OMMMMMMMMMMMMMMMMM",
"MMMMMMMMMMMMMMMM:11<,3whkxcbbbnnnnbbbcxlhe4,111:MMMMMMMMMMMMMMMM",
"MMMMMMMMMMMMMM&11<<6slxbnnmmmmmmmmmmmmmnbxld6,111&MMMMMMMMMMMMMM",
"MMMMMMMMMMMMM>11<5dlcnmmmmmmmmmmmmmmmmmmmmnvxd6,11>MMMMMMMMMMMMM",
"MMMMMMMMMMM@,112ilvnmmmmmmmmmmmmmmmmmmmmmmmmnbza211,@MMMMMMMMMMM",
"MMMMMMMMMM#11,6hcbmmmmmmmmmmmmmmmmmmmmmmmmmmmmnck7<11#MMMMMMMMMM",
"MMMMMMMMM%111ekbnmmmmmmmmmmmmmmmmmmmmmmmmmmmmmmnbzr111$MMMMMMMMM",
"MMMMMMMM#111uzbmmmmmmmmmmmmmmmmmmmmmmmmmmmmmmmmmnbxi111#MMMMMMMM",
"MMMMMMM@111ixbmmmmmmmmmmmmmmmmmmmmmmmmmmmmmmmmmmmmnca11<OMMMMMMM",
"MMMMMMM,1,uxnmmmmmmmmmmmmmmmmmmmmmmmmmmmmmmmmmmmmmmnci11,MMMMMMM",
"MMMMMM>1<ezbmmmmmmmmmmmmmmmmmmmmmmmmmmmmmmmmmmmmmmmmnxr<1>MMMMMM",
"MMMMM&1<6kbmmmmmmmmmmmmmmmmmmmmmmmmmmmmmmmmmmmmmmmmmmnx711%MMMMM",
"MMMMM112hbmmmmmmmmmmmmmmmmmmmmmmmmmmmmmmmmmmmmmmmmmmmmbk211MMMMM",
"MMMM;1,icmmmmmmareeeenmmmmmmmmmmmmmmmmmmmmngerrrwvmmmmmca<1;MMMM",
"MMMo115zbmmmmmmw-**&&immmmmmmmmmmmmmmmmmmmb,&&*-,vmmmmmnx61<OMMM",
"MMM;,,dbmmmmmmmx--**&1bmmmmmmmmmmmmmmmmmmms&***-qnmmmmmmbh,<;MMM",
"MMM,,6znmmmmmmmn5-*&&&hmmmmmmmmmmmmmmmmmmb2&&*-;xmmmmmmmnx7,,MMM",
"MM&>>dvmmmmmmmmmg--&&&5nmmmmmmmmmmmmmmmmmk&&&*-5bmmmmmmmmbd>>&MM",
"MM;;2lbmmmmmmmmmb1**&&&xmmmmmmmmmmmmmmmmn6&&***gmmmmmmmmmnx3;;MM",
"Mo--ecmmmmmmmmmmmu*&&&&0nmmmmmmmmmmmmmmmc*&&&*1vmmmmmmmmmmct--oM",
"M%*;gvmmmmmmmmmmmv:&&&&:bmmmmmmmmmmmmmmne%&&*&pmmmmmmmmmmmbk=*%M",
"M&&2znmmmmmmmmmmmn0*&&%$immmmmmmmmmmmmmb>&&&&>vmmmmmmmmmmmnx2&&M",
"M&&6xmmmmmmmmmmnbvj-&&&$<nmmmmmmmmmmmmma%&&&*8cvbmmmmmmmmmmc7&&M",
"X%%tcnmmmmmmmmn4,>:-&&&%%hmmmmnmmmmmmmb1%%&&*;>,>hmmmmmnmmmvu%%X",
"O$%dvnnnnnnnnnb2--**&&&%$3bnmnnnnnnnnnh%%&&&&*-;-dnnnnnnnnnbf%%O",
"@$&fcbbbnbbbnbv1;-**&&$%%%kbnbbbbbnbnb4%%&&&**=;-sbbbbbnnbbvj*#@",
"##;hxvvvvbvvvbc1;-**&&&&%$7cbbbbbvbbbk&%%%&&**;;-avbbvbvvvvch;##",
"#@>dxccvcccvvvxw55555*&%%$-lvcvvvvvcc8#%%&%245555kccvccccccxh>@#",
"#@>dzxxxxcxcxxxxzzxxz6$$#$#exccxcxcxz;$#%%-hxxxzxxxxxcxcxxxxh>@#",
"#@:slzzzxzzzzzzzllllls%@@+O=jlllllllwO+@##3llllllzzzzzzzzxzlf>@#",
"@+:akzllllzzzzk7221111&@@@++:>,>>>>,&O+@@@:111221szllllzlllls:@@",
"@+*phllkklkkkkh>&%%%###@@OOOooXXXoooO++@@##$%%%&&rlllllllllja*+@",
"Oo%ifjjkjjjkjkg,&&%%###@@@OOOooXXXooOO+@@###$%&&%wjjjjjjjlhfp%o+",
"oX+rdjjhjjjhhjd>&&%%###@@@OOooXoXooOOO+@@##$%%%&&whjjjhjjjhftOXo",
".Xo7ahhhhhhhhhh1;;===**&#OOOoo%%&%@oOO++&**===:;:yfhhhhhfhfs9oX.",
"MXX2pdffhfffhfddspsppssp2OOOoo4ppp$OOO+%yaaaaaaassfffffffffp3XoM",
"MOX=tsffddffdhddfffffffft#OOoo*ad7oOOO+3affffffffffffffdffsp=XOM",
"MoX+wpsfddddddddsdfddddda>OOoooqp=ooOO#tfdddfddddddddddffsar@XoM",
"M.XX5paassdsdssssssssssssq+OOoX:9OoOOO>psdssssssssdssssssap5XX.M",
"MMoX=rpsassaasassasasssasi*OooX+;XooOO9psssasaaasssasasaspr=XoMM",
"MMoXO9yaaaaaaaaaaaaaaaaaaa4OOoXXoXoOO&ppppspaaapaaaaaaaaapqOXoMM",
"MMMXX,rypppappppppppppppapt$ooXXXoooo4ppppppppppiaaipppppr,.XMMM",
"MMMoXO9tppppppppppppppppppi1ooXXXXoO%rppppppppppaiiappppy9+XoMMM",
"MMM.XX:wyiippiippiipippipiie@ooXXooO1ppppypppyppipippipie>XX.MMM",
"MMMMXXO5riiiiipiiipiiiiiiiiu;oXXXXoOqptpppypypypiiiiypyt5oXoMMMM",
"MMMMMXX$9ryuiiiyiiyyiiyiiiiy7XXXXXo:tiiiiiiyyiyiiiuiyytq%XXMMMMM",
"MMMMMXXX>qtyyyiuyyyiyyyyyyyyr&XXXXo6yyyyyyyyyiyyuiiyytw>XXXMMMMM",
"MMMMMMXXX2wrtyyyyyyyyyyyyyyyt3XXXX&eyyytyyyyyyyyyyytre2XXoMMMMMM",
"MMMMMMMXXO4wtytttyttyttyytytte#XXX3tytytyttyytttttyte4oXXMMMMMMM",
"MMMMMMM.XX+4qrtttttttttttttttt,XX#wtttttttttttttttrw5+XX.MMMMMMM",
"MMMMMMMM.XXO4qrrrttttrttrttrrt9OX,rttrtttrtttttttrq4+XXXMMMMMMMM",
"MMMMMMMMM.XXo29wrtrtttrttrtttrr=O9rttttttttttttreq2oXX.MMMMMMMMM",
"MMMMMMMMMM.XXX:8wrrtrtttttttttr6:ettttrtrttrrrre8>XXX.MMMMMMMMMM",
"MMMMMMMMMMM.XXX$4qeetrttttrtrtrrrrttrtrtttrrreq5#XXX.MMMMMMMMMMM",
"MMMMMMMMMMMMMXXXo;6qwrrrrttttttttttttttttrreq7;XXXXMMMMMMMMMMMMM",
"MMMMMMMMMMMMMM.XX.O>69werrrtrtrtrttrrtrrewq7>o.XXXMMMMMMMMMMMMMM",
"MMMMMMMMMMMMMMMMX.X.o*289qwerrrrrrrerww982*o.XXXMMMMMMMMMMMMMMMM",
"MMMMMMMMMMMMMMMMM XX.X.O*,379999999974,&O.X..X.MMMMMMMMMMMMMMMMM",
"MMMMMMMMMMMMMMMMMMMMX..X...X+#%&&%#+X......XMMMMMMMMMMMMMMMMMMMM",
"MMMMMMMMMMMMMMMMMMMMMM .X..............XX MMMMMMMMMMMMMMMMMMMMMM",
"MMMMMMMMMMMMMMMMMMMMMMMMMM ....XX.... MMMMMMMMMMMMMMMMMMMMMMMMMM"
};
