/* XPM */
static char *_482424152051[] = {
/* columns rows colors chars-per-pixel */
"32 32 251 2 ",
"   c #151515",
".  c #161616",
"X  c gray9",
"o  c #191919",
"O  c gray10",
"+  c #1B1B1B",
"@  c #1D1D1D",
"#  c #1E1E1E",
"$  c gray12",
"%  c #202020",
"&  c gray13",
"*  c #222222",
"=  c #232323",
"-  c gray14",
";  c #242525",
":  c gray15",
">  c #272727",
",  c #282828",
"<  c #292A2A",
"1  c #2A2A2A",
"2  c gray17",
"3  c #2C2C2C",
"4  c #2D2D2D",
"5  c gray18",
"6  c #313131",
"7  c gray20",
"8  c #333434",
"9  c #343434",
"0  c #353535",
"q  c #353636",
"w  c gray21",
"e  c #363737",
"r  c #373737",
"t  c gray22",
"y  c #383939",
"u  c #393939",
"i  c #3A3A3A",
"p  c #3B3A3A",
"a  c gray23",
"s  c #3C3B3B",
"d  c #3C3C3C",
"f  c #3C3D3D",
"g  c gray24",
"h  c #3E3E3E",
"j  c #3F3F3F",
"k  c gray25",
"l  c gray26",
"z  c #424343",
"x  c #434343",
"c  c #444444",
"v  c #444545",
"b  c #454646",
"n  c #464646",
"m  c gray28",
"M  c #494949",
"N  c #4B4B4B",
"B  c #4B4C4C",
"V  c #4C4C4C",
"C  c #4D4E4E",
"Z  c #4E4E4E",
"A  c #505050",
"S  c #505151",
"D  c #515151",
"F  c #525353",
"G  c #535353",
"H  c #535454",
"J  c gray33",
"K  c #555555",
"L  c #555656",
"P  c #565656",
"I  c #565757",
"U  c gray34",
"Y  c #585757",
"T  c #585858",
"R  c #585959",
"E  c gray35",
"W  c #5F6060",
"Q  c #626262",
"!  c gray39",
"~  c #636464",
"^  c #656565",
"/  c #686868",
"(  c #696868",
")  c DimGray",
"_  c #6A6969",
"`  c #6A6A6A",
"'  c gray42",
"]  c #6C6B6B",
"[  c #6C6C6C",
"{  c #6D6D6D",
"}  c gray43",
"|  c gray44",
" . c #727272",
".. c gray45",
"X. c #747474",
"o. c gray46",
"O. c #767676",
"+. c #777777",
"@. c gray47",
"#. c #797979",
"$. c #7B7B7B",
"%. c #7C7C7C",
"&. c #7D7E7E",
"*. c #7E7E7E",
"=. c gray50",
"-. c #808080",
";. c #818181",
":. c #818282",
">. c gray51",
",. c #848383",
"<. c #848484",
"1. c #858484",
"2. c #868686",
"3. c #878686",
"4. c gray53",
"5. c #888888",
"6. c #8B8B8B",
"7. c #8C8B8B",
"8. c #8E8E8E",
"9. c #929191",
"0. c #939292",
"q. c #949393",
"w. c gray58",
"e. c #959595",
"r. c #969595",
"t. c gray59",
"y. c #979696",
"u. c #989797",
"i. c #999898",
"p. c #9B9A9A",
"a. c #9C9B9B",
"s. c #9D9D9D",
"d. c gray62",
"f. c #A09F9F",
"g. c gray63",
"h. c #A2A1A1",
"j. c #A2A2A2",
"k. c #A3A2A2",
"l. c gray64",
"z. c #A4A3A3",
"x. c #A3A4A4",
"c. c #A4A4A4",
"v. c #A5A5A5",
"b. c #A6A5A5",
"n. c gray65",
"m. c #A7A7A7",
"M. c gray66",
"N. c #AAA9A9",
"B. c #AAAAAA",
"V. c #ABAAAA",
"C. c gray67",
"Z. c #ACACAC",
"A. c #ADACAC",
"S. c gray68",
"D. c #AEADAD",
"F. c #AFAEAE",
"G. c #AEAFAF",
"H. c #B0AFAF",
"J. c #B1B0B0",
"K. c #B1B1B1",
"L. c #B2B1B1",
"P. c #B2B2B2",
"I. c #B3B2B2",
"U. c #B4B3B3",
"Y. c #B5B4B4",
"T. c #B6B5B5",
"R. c #B7B6B6",
"E. c #B7B7B7",
"W. c #B8B7B7",
"Q. c gray72",
"!. c #B9B8B8",
"~. c #B9B9B9",
"^. c #BBBABA",
"/. c #BDBCBC",
"(. c gray74",
"). c #C0BFBF",
"_. c #C1BFBF",
"`. c #C1C0C0",
"'. c #C2C1C1",
"]. c #C3C1C1",
"[. c #C3C2C2",
"{. c #C5C4C4",
"}. c #C6C4C4",
"|. c #C8C8C8",
" X c #C9C8C8",
".X c #C8C9C9",
"XX c #CAC8C8",
"oX c #CAC9C9",
"OX c #CACACA",
"+X c #CCCBCB",
"@X c #CDCCCC",
"#X c #CECCCC",
"$X c #CECDCD",
"%X c #CECECE",
"&X c #CFCECE",
"*X c #D0CFCF",
"=X c gray82",
"-X c LightGray",
";X c #D5D4D4",
":X c gray84",
">X c #D7D6D6",
",X c #D7D7D7",
"<X c #D8D7D7",
"1X c #D8D8D8",
"2X c #D9D8D8",
"3X c gray85",
"4X c #DCDADA",
"5X c #DCDBDB",
"6X c gainsboro",
"7X c gray87",
"8X c #DFDFDF",
"9X c #E0DFDF",
"0X c #E1E0E0",
"qX c #E1E1E1",
"wX c #E2E2E2",
"eX c #E3E2E2",
"rX c gray90",
"tX c #E6E6E6",
"yX c #E7E6E6",
"uX c #E7E7E7",
"iX c #E9E7E7",
"pX c #E9E9E9",
"aX c #EBE9E9",
"sX c #EAEAEA",
"dX c #EBEAEA",
"fX c #EDEBEB",
"gX c #ECECEC",
"hX c #EDECEC",
"jX c #EFEDED",
"kX c #EEEEEE",
"lX c #EFEFEF",
"zX c #F0EFEF",
"xX c gray95",
"cX c #F3F2F2",
"vX c #F3F3F3",
"bX c #F4F2F2",
"nX c #F4F3F3",
"mX c #F6F5F5",
"MX c #F6F6F6",
"NX c gray97",
"BX c #F8F8F8",
"VX c #F9F9F9",
"CX c #FAF9F9",
"ZX c gray98",
"AX c #FBFAFA",
"SX c #FBFBFB",
"DX c gray99",
"FX c #FDFDFD",
"GX c #FEFEFE",
"HX c white",
"JX c None",
/* pixels */
"JXJXJXJXJXJXJXJXJXJXJXJXj P ! ^ ) ! D j JXJXJXJXJXJXJXJXJXJXJXJX",
"JXJXJXJXJXJXJXJXJXj ) { =.9.m.G.G.m.e.=.{ ) j JXJXJXJXJXJXJXJXJX",
"JXJXJXJXJXJXJXt ) @.m.3XjXSXSXDXDXDXmXjX3Xm.@.{ w JXJXJXJXJXJXJX",
"JXJXJXJXJXJXE X.m.tXSXDXDXDXDXDXDXDXDXDXDXSXtXB.X.E JXJXJXJXJXJX",
"JXJXJXJXJX^ =.%XSXDXDXDXDXDXDXDXDXDXDXDXDXDXDXSX=X>.^ JXJXJXJXJX",
"JXJXJXJX^ <.7XSXDXDXDXDXDXDXDXDXDXDXDXDXDXDXDXDXDX0X<.^ JXJXJXJX",
"JXJXJXE -.0XDXDXDXDXDXDXDXDXDXDXDXDXDXDXDXDXDXDXDXDX0X>.P JXJXJX",
"JXJXw X.%XDXDXDXDXDXDXDXDXDXDXDXDXDXDXDXDXDXDXDXDXDXDX:XX.w JXJX",
"JXJX{ m.SXDXDX3X>.=.B.DXDXDXDXDXDXDXDXDXDX|.=.>.`.DXDXSXB.{ JXJX",
"JXt X.tXDXDXDXSX~ D P vXDXDXDXDXDXDXDXDXDXX.S P 0XDXDXDXaX@.t JX",
"JXE l.SXDXDXDXDXx.D B G.DXDXDXDXDXDXDXDX6XB D >.DXDXDXDXSXm.E JX",
"JXP :XDXDXDXDXDXaXP N ! DXDXDXDXDXDXDXDX6.B D |.DXDXDXDXDX7XE JX",
"3 ) jXDXDXDXDXDXNX5.B b |.DXDXDXDXDXDXjXV V ) vXDXDXDXDXDXvX) 3 ",
"w >.bXSXDXDXSX^.W P B b +.SXSXSXDXDXSXl.b N H W u.SXDXSXSXmX<.w ",
"t 9.jXbXmXbXmXP.E D V b x :XbXvXmXbXjXP b V D T 8.bXbXmXvXzXe.t ",
"t i.tXaXaXaXaX:X^.Q.e.v x <.jXjXjXaXP.k b @.^.^.%XaXaXaXaXiXa.t ",
"7 q.9X9XeXeXeX%XG.N.l.s 6 t f.z.l.l.D 6 w 8.B.B.).0XeXeXeX9Xu.w ",
"5 ,.<X5X5X5X5Xs.m x s r 6 2 , ; = > 3 6 w s x N %.5X5X5X5X<X3.3 ",
"- ( *X;X;X;X;Xs.G V N b 7 3 , w e 3 3 6 x N V H >.;X;X;X;X*X) - ",
"+ b ).*X%X*X*X*XXX+X|.|.^ 3 , u.^.3 3 N }.+X|.+X+X%X*X%X*X}.m + ",
"JX, N.|.|.+X|.|.|.|.+X|.z.2 , P @.> 3 <.|.|.|.|.|.|.+X|.|.H.; JX",
"JX; X._.}.}.}.}.}.}.}.}.}.N , ; 8 , w ^.}.}.}.}.}.}.}.}.}.X.; JX",
"JXo r H.).).`.`.`.`.).`.`.6., ; ; , ) /.`.`.`.`.`.`.`.).P.r + JX",
"JXJX-  .W././././././././.Y.r ; ; , m././././././././.W. .- JXJX",
"JXJXX , u.W.W.W.W.W.W.W.^.W.{ ; ; D W.W.W.^.^.W.^.W.W.i., o JXJX",
"JXJXJX$ j f.Y.Y.W.U.W.Y.U.W.m., ; 7.Y.U.Y.Y.Y.Y.Y.Y.z.s & JXJXJX",
"JXJXJXJX& x l.H.U.U.U.U.U.U.U.P j G.U.U.U.U.U.U.P.l.x & JXJXJXJX",
"JXJXJXJXJX& s 9.H.H.U.U.U.U.H.q.+.H.U.P.U.U.P.H.q.s & JXJXJXJXJX",
"JXJXJXJXJXJX@ , ) m.G.H.U.U.U.U.H.U.U.H.P.H.m.] , $ JXJXJXJXJXJX",
"JXJXJXJXJXJXJX. & w ) a.N.N.H.H.H.H.H.N.a.] 7 & X JXJXJXJXJXJXJX",
"JXJXJXJXJXJXJXJXJX. & & j Y )  . .] Y j & & o JXJXJXJXJXJXJXJXJX",
"JXJXJXJXJXJXJXJXJXJXJXJX  + @ $ $ + +   JXJXJXJXJXJXJXJXJXJXJXJX"
};
