/* XPM */
static char *_482424141875[] = {
/* columns rows colors chars-per-pixel */
"128 128 69 1 ",
"  c #1E1E1E",
". c #232424",
"X c #272828",
"o c #2B2B2B",
"O c #2F3030",
"+ c #333333",
"@ c #383737",
"# c #373838",
"$ c #3B3C3C",
"% c #3F4040",
"& c #444444",
"* c #474848",
"= c #4B4C4C",
"- c #504F4F",
"; c #4F5050",
": c #535353",
"> c #585757",
", c #575858",
"< c #5B5B5B",
"1 c #5F6060",
"2 c #646464",
"3 c #686767",
"4 c #676868",
"5 c #6C6C6C",
"6 c #6F7070",
"7 c #727272",
"8 c #787777",
"9 c #777878",
"0 c #7C7C7C",
"q c #807F7F",
"w c #7F8181",
"e c #848484",
"r c #888787",
"t c #878888",
"y c #8B8B8B",
"u c #908F8F",
"i c #90908F",
"p c #949494",
"a c #989797",
"s c #9C9B9B",
"d c #A09F9F",
"f c #A4A3A3",
"g c #A8A7A7",
"h c #A7A8A8",
"j c #ACABAB",
"k c #B0AFAF",
"l c #AFB0B0",
"z c #B4B3B3",
"x c #B8B7B7",
"c c #B7B8B8",
"v c #BCBBBB",
"b c #C0BFBF",
"n c #C4C3C3",
"m c #C8C7C7",
"M c #CCCBCB",
"N c #D0CFCF",
"B c #D4D3D3",
"V c #D8D7D7",
"C c #D7D8D8",
"Z c #DCDBDB",
"A c #E0DFDF",
"S c #E4E3E3",
"D c #E8E6E6",
"F c #ECEBEB",
"G c #F0EEEE",
"H c #F4F3F3",
"J c #F8F7F7",
"K c #FEFEFE",
"L c None",
/* pixels */
"LLLLLLLLLLLLLLLLLLLLLLLLLLLLLLLLLLLLLLLLLLLLLLLLLLLLLLLL.+$&=:<<<<:=*$+XLLLLLLLLLLLLLLLLLLLLLLLLLLLLLLLLLLLLLLLLLLLLLLLLLLLLLLLL",
"LLLLLLLLLLLLLLLLLLLLLLLLLLLLLLLLLLLLLLLLLLLLLLLLLLX$:2567777776677766676651:$XLLLLLLLLLLLLLLLLLLLLLLLLLLLLLLLLLLLLLLLLLLLLLLLLLL",
"LLLLLLLLLLLLLLLLLLLLLLLLLLLLLLLLLLLLLLLLLLLLLLX*25777776769676677667677666776761&.LLLLLLLLLLLLLLLLLLLLLLLLLLLLLLLLLLLLLLLLLLLLLL",
"LLLLLLLLLLLLLLLLLLLLLLLLLLLLLLLLLLLLLLLLLLLo-36666676676666667767776776776767767774=oLLLLLLLLLLLLLLLLLLLLLLLLLLLLLLLLLLLLLLLLLLL",
"LLLLLLLLLLLLLLLLLLLLLLLLLLLLLLLLLLLLLLLL.=27776776677677666654422355576777676675776764=XLLLLLLLLLLLLLLLLLLLLLLLLLLLLLLLLLLLLLLLL",
"LLLLLLLLLLLLLLLLLLLLLLLLLLLLLLLLLLLLLL+177777676667752>>1460tyippuye0741><257777667666661+LLLLLLLLLLLLLLLLLLLLLLLLLLLLLLLLLLLLLL",
"LLLLLLLLLLLLLLLLLLLLLLLLLLLLLLLLLLLL%277777767675<<4eszmNNBBBBCCBVBBBBBMmxde5><596696977772$LLLLLLLLLLLLLLLLLLLLLLLLLLLLLLLLLLLL",
"LLLLLLLLLLLLLLLLLLLLLLLLLLLLLLLLLL&47769777763>3rkmBBBZAASSDDDDDFDDDSSSSAZVBNNky4,46667777773$LLLLLLLLLLLLLLLLLLLLLLLLLLLLLLLLLL",
"LLLLLLLLLLLLLLLLLLLLLLLLLLLLLLLL#1969666665,5anNBVZSSFFFGGHHGHHHHGHHHGGFFFFSSAZBNna6,6777777762+LLLLLLLLLLLLLLLLLLLLLLLLLLLLLLLL",
"LLLLLLLLLLLLLLLLLLLLLLLLLLLLLLL<7767669641tbNBCSDFFFHHHJKJKJKKKJKKKJKJKKHKHHHFFDSACBbt1177777967<LLLLLLLLLLLLLLLLLLLLLLLLLLLLLLL",
"LLLLLLLLLLLLLLLLLLLLLLLLLLLLL*7777779614fMBCADFGGHKKKHKKKKKKKKKKKKKKKKKKKKKHJHJHGGDSACNh5277779675*LLLLLLLLLLLLLLLLLLLLLLLLLLLLL",
"LLLLLLLLLLLLLLLLLLLLLLLLLLL.2777777916jNBASFGHHHJKJKKKKKKKKKKKKKKKKKKKKKKKKKKKKKJJHGFSACBj5267697772.LLLLLLLLLLLLLLLLLLLLLLLLLLL",
"LLLLLLLLLLLLLLLLLLLLLLLLLL&777776711jMCADFGHHKKKKKKKKKKKKKKKKKKKKKKKKKKKKKKKKKKKKKJJHGGDSZBj446677777$LLLLLLLLLLLLLLLLLLLLLLLLLL",
"LLLLLLLLLLLLLLLLLLLLLLLLL>77777761dNCASGHJJKKKKKKKKKKKKKKKKKKKKKKKKKKKKKKKKKKKKKKKKKKKHHFFSCNd46777777>LLLLLLLLLLLLLLLLLLLLLLLLL",
"LLLLLLLLLLLLLLLLLLLLLLLL27777772wnBASGHJKJKKKKKKKKKKKKKKKKKKKKKKKKKKKKKKKKKKKKKKKKKKKKKJJHGDACMe37777772.LLLLLLLLLLLLLLLLLLLLLLL",
"LLLLLLLLLLLLLLLLLLLLLL+57777772jNCSFHHJJKKKKKKKKKKKKKKKKKKKKKKKKKKKKKKKKKKKKKKKKKKKKKKKKKKJJGDZBk37777874+LLLLLLLLLLLLLLLLLLLLLL",
"LLLLLLLLLLLLLLLLLLLLL$77777720nBSDGHJKKKKKKKKKKKKKKKKKKKKKKKKKKKKKKKKKKKKKKKKKKKKKKKKKKKKKKKHHFSCMw5766975$LLLLLLLLLLLLLLLLLLLLL",
"LLLLLLLLLLLLLLLLLLLL&7777772aMZSFHJKKKKKKKKKKKKKKKKKKKKKKKKKKKKKKKKKKKKKKKKKKKKKKKKKKKKKKKKKKHHGDZBs2976777$LLLLLLLLLLLLLLLLLLLL",
"LLLLLLLLLLLLLLLLLLL*7777772zNADGHHKKKKKKKKKKKKKKKKKKKKKKKKKKKKKKKKKKKKKKKKKKKKKKKKKKKKKKKKKKKKJHHFSBc2697777&LLLLLLLLLLLLLLLLLLL",
"LLLLLLLLLLLLLLLLLL*7777775nBSFHJKKKKKKKKKKKKKKKKKKKKKKKKKKKKKKKKKKKKKKKKKKKKKKKKKKKKKKKKKKKKKKKKKHGSZn6677797&LLLLLLLLLLLLLLLLLL",
"LLLLLLLLLLLLLLLLL&7778776mCSGHJKKKKKKKKKKKKKKKKKKKKKKKKKKKKKKKKKKKKKKKKKKKKKKKKKKKKKKKKKKKKKKKKKKJHGDZM9777776%LLLLLLLLLLLLLLLLL",
"LLLLLLLLLLLLLLLL$6777757MCSGHKJKKKKKKKKKKKKKKKKKKKKKKKKKKKKKKKKKKKKKKKKKKKKKKKKKKKKKKKKKKKKKKKKKKKKJHDAN0577775$LLLLLLLLLLLLLLLL",
"LLLLLLLLLLLLLLL+6777750MCFGJJKKKKKKKKKKKKKKKKKKKKKKKKKKKKKKKKKKKKKKKKKKKKKKKKKKKKKKKKKKKKKKKKKKKKKKKHHFANe776965+LLLLLLLLLLLLLLL",
"LLLLLLLLLLLLLLL5777768MZDGHKKKKKKKKKKKKKKKKKKKKKKKKKKKKKKKKKKKKKKKKKKKKKKKKKKKKKKKKKKKKKKKKKKKKKKKKKKKHFZB0796992.LLLLLLLLLLLLLL",
"LLLLLLLLLLLLLL2769666MZDGJJKKKKKKKKKKKKKKKKKKKKKKKKKKKKKKKKKKKKKKKKKKKKKKKKKKKKKKKKKKKKKKKKKKKKKKKKKKKJHGAN967667<LLLLLLLLLLLLLL",
"LLLLLLLLLLLLL>779694MCDGJJKKKKKKKKKKKKKKKKKKKKKKKKKKKKKKKKKKKKKKKKKKKKKKKKKKKKKKKKKKKKKKKKKKKKKKKKKKKKKJHFAM679677:LLLLLLLLLLLLL",
"LLLLLLLLLLLL$777691nCDGJKJKKKKKKKKKKKKKKKKKKKKKKKKKKKKKKKKKKKKKKKKKKKKKKKKKKKKKKKKKKKKKKKKKKKKKKKKKKKKKKJHFAm469777$LLLLLLLLLLLL",
"LLLLLLLLLLL.577771lBSGHKKKKKKKKKKKKKKKKKKKKKKKKKKKKKKKKKKKKKKKKKKKKKKKKKKKKKKKKKKKKKKKKKKKKKKKKKKKKKKKKKKJGDCc467774.LLLLLLLLLLL",
"LLLLLLLLLLL<76992aBAFHKKKKKKKKKKKKKKKKKKKKKKKKKKKKKKKKKKKKKKKKKKKKKKKKKKKKKKKKKKKKKKKKKKKKKKKKKKKKKKKKKKKKHGSZs47778<LLLLLLLLLLL",
"LLLLLLLLLL&799660MZFHHKKKKKKKKKKKKKKKKKKKKKKKKKKKKKKKKKKKKKKKKKKKKKKKKKKKKKKKKKKKKKKKKKKKKKKKKKKKKKKKKKKKKKHGSBe77777&LLLLLLLLLL",
"LLLLLLLLLL476761nZFHKKKKKKKKKKKKKKKKKKKKKKKKKKKKKKKKKKKKKKKKKKKKKKKKKKKKKKKKKKKKKKKKKKKKKKKKKKKKKKKKKKKKKKKJJFZM477774LLLLLLLLLL",
"LLLLLLLLL>79771jBSHJKKKKKKKKKKKKJKKKKKKKKKKKKKKKKKKKKKKKKKKKKKKKKKKKKKKKKKKKKKKKKKKKKKKKKKKKKKKKKKKKKKKKKKKKKJFZz47777:LLLLLLLLL",
"LLLLLLLL+68776qNAFJJKKKKKKKKKJJGFFDDDFSFFGJKKKKKKKKKKKKKKKKKKKKKKKKKKKKKKKKKKKKKKKKKKKJGFDFDDDDDFFJKKKKKKKKKKHGSCt69775oLLLLLLLL",
"LLLLLLLL177771nZFHKKKKKKKKKKKKc99696756546FKKKKKKKKKKKKKKKKKKKKKKKKKKKKKKKKKKKKKKKKKKJS0666696996:CKKKKKKKKKKKJFAM26779<LLLLLLLL",
"LLLLLLL@67772sBSHJKKKKKKKKKKKJA,,,,;:::==*cGKKKKKKKKKKKKKKKKKKKKKKKKKKKKKKKKKKKKKKKKKGg=;;;::,,,<2DJKKKKKKKKKKKHDZd47765@LLLLLLL",
"LLLLLLL177774MZFHHKKKKKKKKKKKKF9<,,,::=;==5DJKKKKKKKKKKKKKKKKKKKKKKKKKKKKKKKKKKKKKKKKS4==;;:::,,:aFKKKKKKKKKKKKHHSB57979<LLLLLLL",
"LLLLLL@56691jBDHKKKKKKKKKKKKKKHv;,:::;==;*%NHKKKKKKKKKKKKKKKKKKKKKKKKKKKKKKKKKKKKKKKHv*==;;::,,,=BHKKKKKKKKKKKKKHFAl16955#LLLLLL",
"LLLLLL<66665BAFJKKKKKKKKKKKKKKKS2,,::::=;==wDKKKKKKKKKKKKKKKKKKKKKKKKKKKKKKKKKKKKKKKF0==;;;:::,,wSJKKKKKKKKKKKKKJHSC69665<LLLLLL",
"LLLLLo4555,jCDHKKKKKKKKKKKKKKKKFf;,,::;;*=**ZHKKKKKKKKKKKKKKKKKKKKKKKKKKKKKKKKKKKKKHm:===;::,,,*mHKKKKKKKKKKKKKKKJGAl<6644oLLLLL",
"LLLLL:44454NAGHKKKKKKKKKKKKKKKKKA,,:::;=;=**aFKKKKKKKKKKKKKKKKKKKKKKKKKKKKKKKKKKKKKHp*==;;;::,<4AJKKKKKKKKKKKKKKKJGSZ64444;LLLLL",
"LLLL.1224<fCDHKKKKKKKKKKKKKKKKKKGy,::::;=*=*,SJKKKKKKKKKKKKKKKKKKKKKKKKKKKKKKKKKKKJZ,====:::>>*zFKKKKKKKKKKKKKKKKKHGZj14321.LLLL",
"LLLL&2124<MZGJJKKKKKKKKKKKKKKKKKJN;:::==;==*&lGKKKKKKKKKKKKKKKKKKKKKKKKKKKKKKKKKKKHh**===:;::><ZHKKKKKKKKKKKKKKKKKJHSB14222$LLLL",
"LLLL><112yBSGJKKKKKKKKKKKKKKKKKKKD9>:::===***4DKKKKKKKKKKKKKKKKKKKKKKKKKKKKKKKKKKKA2*===;;;::;aDKKKKKKKKKKKKKKKKKKJHFZp11<2:LLLL",
"LLLX<<<1:vZFJKKKKKKKKKKKKKKKKKKKKHv=::;;;*=**%nGKKKKKKKKKKKKKKKKKKKKKKKKKKKKKKKKKHc&**===;::>*CHKKKKKKKKKKKKKKKKKKKJGSn;<<<<XLLL",
"LLL&<,,<4NSGJKKKKKKKKKKKKKKKKKKKKJD4::;====***wFKKKKKKKKKKKKKKKKKKKKKKKKKKKKKKKKKF8**===;;;:;wSJKKKKKKKKKKKKKKKKKKKKHDZ6<,>,&LLL",
"LLL:,,,,aCDHKKKKKKKKKKKKKKKKKKKKKKGf;:;;===****CHKKKKKKKKKKKKKKKKKKKKKKKKKKKKKKKHM=***==;:::%mGKKKKKKKKKKKKKKKKKKKKJJGZd,>>>:LLL",
"LL.>;;,;mCFHKKKKKKKKKKKKKKKKKKKKKKJA:::;===**&%aFKKKKKKKKKKKKKKKKKKKKKKKKKKKKKKKFy&**==-;;;,6AJKKKKKKKKKKKKKKKKKKKKKJGSm:>::>.LL",
"LL#:;;,1NSGJKKKKKKKKKKKKKKKKKKKKKKJGy:;;;=*****,ZKKKKKKKKKKKKKKKKKKKKKKKKKKKKKKKB<***===;;;*lFKKKKKKKKKKKKKKKKKKKKKKKHSZ2>:=:@LL",
"LL=-=::yBDHKKKKKKKKKKKKKKKKKKKKKKKKHN;;;====**&&jHKKKKKKKKKKKKKKKKKKKKKKKKKKKKKHf&&**===-::>ZHKKKKKKKKKKKKKKKKKKKKKKJHFZi;;=;*LL",
"LL-====jZFHKKKKKKKKKKKKKKKKKKKKKKKKKF9;;-==**&*&4SJKKKKKKKKKKKKKKKKKKKKKKKKKKKJS2&***==---=aDKKKKKKKKKKKKKKKKKKKKKKKKKGAc=====LL",
"L.=**=:mZFKJKKKKKKKKKKKKKKKKKKKKKKKJHc;;===***&&&nHKKKKKKKKKKKKKKKKKKKKKKKKKKKHc&*&*=====:=BGKKKKKKKKKKKKKKKKKKKKKKKKKHSB;=**=.L",
"L+*&*=2BSHJKKKKKKKKKKKKKKKKKKKHHDFDDDB6;-===**&&&0FKKKKKKKKKKKKKKKKKKKKKKKKKKKF7&&***==-:=eMSDDDFFHKKKKKKKKKKKKKKKKKKJHFZ5=**=+L",
"L%=&**eBDHKJKKKKKKKKKKKKJKKKKHz09997694;-==***&&&&ZHKKKJKKKKKKKJKKKKKKKKKJKKKHM*&&***====:>5799972nHKKKKKKKKKKKKKKKKJKHFZr**&*$L",
"L*&&&*dBDGJKJKJKJKJJJKKJJKJKKHs<,,>>,;;;===***&&$&pFKKJJKJJKKJKKKJJKKJKKJKHKJFt%&***===-=::>:>,<<,lHKJJKJKKJJKJKKKKKKJJFAf*&&&=L",
"L=&$&&zVDHJKJKJJJKKJKJJJJKKJKDp<<<,>::;;-==****&&&:ZGKKJJKKJKJJKJKJKJKJJKJJKHB:&&&&**====:::>,<<<:hFJKJKJJJKJKKJHKJKJJHGZv&&$&*L",
"L*$$&*nVFGHJJKJJJKJJKKJJKJHKHFp<,<,,::;;====*&&&&$$gDKJJJJHKJJJJJJJJJJJKJKKJFs%%&&**===-::;::,,<<:fFHJJJKJKJJJJJKHJJJHHFAm*&&$*L",
".&$$&:mVDGHJJHJJHJHJJJHJJJHJHFp<<<>::::=;===**&&&&&2SHHHHKHHJJHJHJJHJJHJHHHHV2&$&&***===;:::>,<<<,fSHHJHJJHJJHJHHJJHHJHDAN>%$$*.",
"X&$$$2mZFGHHHHHHHHHHHHHHHHHHHDp<<<>>:::=====***&&$%@vFHHHHHHHHHHHHHHHHHHJHHFz$&&&***===-;::::><<<>fSHHJHHHHHHHHHHHHHHHGGAN2%$$&X",
"O&$$$6mVSFGHHHGGHHHHHHHHHHHHGSp<<<>>>::;====***&&&%$9ZFHHHHHHHHGHHHHHHHHHHGA5&$&&&***=-=;:::>,<<<:fSHHHHHHHHHHHHHHHHHGGDAN7%$$%O",
"+$@$$8mVSFGGGGGGGGHGGGGGGGGGHSe1<,,>>:::::=****&&&$&%MFHGGHGGGGGGGHGGGGGGGFb&$&&&**====:;::>,,<<<,fSFGHGGGGGGHGGGGGGGGGDVN8$@@$@",
"@$@@$emBAFGGFGGGFGGFGGGGGGGGGSy>;======***&=***&&$%%$yZFGGGGGGGGGGGGGGGGFFAe$$&&&***==%**=========cSFHFHGGGGGGGGGGGDGFFSANe$@@$@",
"@$@@$emBADFFDDFGDFFFGDDGDGFFGDAVBMMMMMMMMm0=***&&&&%%=BDFFFGFGGGGFFGFFFGFFm;&&&&&&**=$dnMMMMNMMNBVZFFFFFGFDDDDDGGDDGFGDSBmu$@@$$",
"&@@@$ynBASDFFDGDFFDFDFDFFDFFDDDSAZSSSSSSSAn&**&*&&&&$@fAFFFFFGFFFGFFFFFFFSa$$&&&&***=:mZSSSSSAAAASSDDFFDDFFFFDFDDFDFFDDSVNu$@@@&",
"$$++$ynBASDDDDSDDDDDSDDDDDDDDDDDSFDDFSSFDSB2&$$$@$@@$$<BDFFDDFDFDDGDFFFFSB<@$$@@$%$%@eBSSSFSDDDDDDDDDDDDDDDDDDDDDDDDDDSAVmu$++@%",
"%@++@ubVASSSDSSSSDSSSSSSDSSSSSSSSSSSSSSSSSVg+@@+++OOOoXjVSSSSASSSSSSSSSAAdXOO+O++@@@@vZSSSSSSSSSSDSDSDSDSDSSDSSDSSSDDSSAVbu@@+@%",
"%+O+@qbNVASSSSSASSSSSSSSSSSSSSAZAZZZAVAZZZVn>@@@+++OOoo3bVAAAAAAZZVAVAAVm<oOO+++++@@5nBZZZZZZZZZZZZSSSSSSASSSSSSSSSSSSAZVMu@++@%",
"@@++$qbbVAASASAAASASASAAASSASZnzgggjgggjgggde@+++OOOOoo@pgggfgggjgggjgjjd+oOOOO++@@@9sgjggggjjjggamZASSAAAAASASASAASASAVNbr@o+@@",
"@+++@qbbNAAAAAAAAAAAAAAAAASZSBp===**&&&%$$$$@@@@+++OOoooXX...........X.XXooOOO+++@@@@$%$%&&&&*===*fBZAAAAAAAAAAAAAAAAAAANbq@+++@",
"++O++qbbNZAAAAAAAAAAAAAAAAAZZBe===**&&&%&$$$@@@+++o+OooooX.XX.....XX.XXXooo+OO+++@@@$$$$&&&&***==*iNAAAAAAAAAAAAAAAAAVZVMbq++o@+",
"o+OO+3bbNVZZVAVAAAVAVAVAZZAZZMw===**&&&$$$$$@@@@+O+oOooooXo..X.......XXoooooOO+++@@@$$$&%%&&**==-*yNZZZZVAVAVABAAVVAVAVVbb2+o+@o",
"X@oo+>bbMVVZAVVAVAVAZZZZZAVVZMw==****&&$&$$$@@@++++o+oooo..X.......XXXXooooOOo+++@@@$$%$%%&&*====*yMVZVZAVAVABAVVAVAAVVNMb>+oo@o",
" @  o%bbMVVVVVVVVVVBVVVVVVVVZm0;=-**&&&&$$$$@@@+++O+ooooooo.XX.....X.XXXoooo++O++@@$$$$$&&&&***==*ymVZVVVVBAVVBAVVVVVVVMbb-+  @.",
"L$. o%jbMNAVVVAVBAABBABBBVVVBm0;==**&&&$%$$$@@@+++OOo+ooo.XX.X.....X.XXXooOo+++++@@@$$$%%%&&**===*ymVVBVVVVVABBVBVVVVVNMbk%X..@L",
"L$ ..@dbbNNVBVNVBMBVBBABBBBVBm9;==**&&&&$@$$@@@++O+OooooooX.X......XX.ooooooo++++@@@$$$%%&&&**==-&ymBVVBBBBVBVBVVVBVVVNmbd@.. $L",
"L$.. +qzbMNVNVBVBBBBBBMBBBBBBm5=****&&$%o@@o@++o++oO+oooo.o.... .....oXXooOooO+++++@@@$$%%%&&****&ymNVNBBBBBAMBBBBBBNNNmbqo ..&L",
"L$...o7kbmNNBNNBBBNBBBNBBBNBBMf057575575q2qqq3q2=++OoooooXXX23575755>oXoooo++++.<37557755775666678zMBNVNBNBBMBBVBNBNVNMbbqX...$L",
"Lo....<kbbbNNNNNNNNNMNBMBNBBNNnnbbbbbbbbbbbbbbbbd++oooooXX..7kvbbbbj5Xooo+oooo+%fbbbbbbbbbbvbvvvvnnNNNNNNNNNNNBMNNNNMNMbz<....OL",
"L.o.. &gbbmNNNNNNNNNMBMBMBMNNNNNMMMMNMMmMMmMMMbMb>+++oooOXo.&zmMMMbb*..oXoo+++XqbMbMMMMMNMMmMMMNMMMNNNNNNNNNNNNNNNNNNMmbk& ..O.L",
"LL+ ..OujbbMNNNNNNNNNMMNBMNMNMNMMMMNMNMMNNNNMMMMba+oo+ooXXXXXpbNMMbuXXXXooooo++gbNMMMMMMMNNNNMNNNNNNNNNNNNMNNNMMMNNNMmbxao.. @LL",
"LL@ . .qbbbMMMNMMMMMMNNMMMMNMMMMMMNMMMNMMNMMMMMMbb=+ooooXXX.X>xMMbb>X.oooooo+o<bmMNNMMMNMMMMNMMMNMMNNMMMNNMMNMMMMMNNMmbkq... %LL",
"LL@... >jzbnNmNmMMMMMMMMMMMMMMMMMMMMMMMMMMMMMMMMMbeOoooooXX..ofbMbdoX.Xoooo+oodbMMMMMMMMMMMMMMMMMMMMMMMMMMMMMMMMMMMMmnbk> ...+LL",
"LL.X...+dkbnnNNmmMMMmMMMMmMMMMMMMMMMMMMMMmMMmMmMmnj$+ooooXXXX.5vbb3.XXXoooOo+-kbmMMMmMMMMMMmMMMMMMnMMMMmmMMMMMmMMMMmnbzfO...X.LL",
"LLL+...XqjxbnmmmmMmmmmMmMMMmnmnMmmmmmmmmmmmMmMmmmmx5OooooXXXXXOjbf+X.XXXooo+.ybmmmmMmmmmmmmMmmmmMnMMMnMnmmmmmmmMmmmmbbkr....@LLL",
"LLL+ .. >gkbnmmmmmmnmmMnnnMnMnMMmmmmmmmmmmmmmmmmmmbfOooooXX....qkq...XXooooo%gbbmmmmmmmmmmmmmmmmnMnMnMMnmmmmmmmmmmMbbzk> .. @LLL",
"LLLX... OakvbnnmmMnMmmnmnMMnnMnnmbmmmmmmmmmmnmnmmnnx>OoooXX.X..&d&..X.oooooX5bbmmmmnmmmmnmnnmmmmnMnnnMnMmmmMnmnnmmbbbkdo....XLLL",
"LLLLO....7fkbbnnnnnnnnnnnnnnnnMnbmbmmbmmnnnnmnnnnnnvuooooXX.X..Oq..oXX.oooO+dbbmnnnmbmmbmnnmnnnnnnnnnnnnnnnnmnnmmbbbxj8 ...+LLLL",
"LLLLO .. %dkxbnnnmnnnnnnnnnnnnnnmmbmmmmbnnnnmnnmnnnbk*ooXXXXXX..o ...oooooo<jbbmnnmnmmbmnnmnnnnnnnnMnMnnnnnnnnmnnnbbkg$... +LLLL",
"LLLL X....egkbbbnnnnnnnnnnnnnnnnbmmbbbbmnnnnnnnbnnnnx0oooXX........o..XXoO.pbbbbnnnnbbmbnnnnnnnnnnnnnnnnnnnnnnnnbnbxkr....X.LLLL",
"LLLLL+ ...-dkxbbnbnnbnbnnbbnnbbnnnbnnnbnnbnbnnbnbbbbbg@oOXXX.X.......oXooo=gbbbbbnbnbbnnbnnbbbnnnnbnbbnbbnbbnbnbbbxkg- .. +LLLLL",
"LLLLLX....Xrfkzbbbbbbbnbbnbbbbnbbbbbbbbbbbbbbbbbbbbbbk3XXX.XX......X.oXoo.qbkbbbbbbbbbbbbbbbbbbbbbnbbnnbnbbnnbbbbvzju.....oLLLLL",
"LLLLLLo... >djzbbbbbbbbbbbbbbbnbbbbbbbbbbbbbbbbbbbbbbvaoXXX.X......Xo..oo@dbbbbbbbbbbbbbbbbbbbbbbbbbbnvnbbbbbbbbvxkf: ...OLLLLLL",
"LLLLLLo.....rdkzvbvbbbvbvbbbbvvbbbbvbbbbbbbbbbbbvbbbbbk>oXX.X......X..oX.5dbbbbbbbbbvbbbbbbbbbbbvbbbvvbvvbbbbbvvxzgy.... OLLLLLL",
"LLLLLLLo... -dfkxvvbvbbvbbvbvvbbvbbvvbvvbbvbbbbvbvbbbxkyoo..X......o.ooo+djbbbbbbbbvbbbvbbbbvbbvbbvbvvnvvbvbbvvxzjf=....OLLLLLLL",
"LLLLLLLO ... qdjzxvvvvvvvvvvvvvvvvbvvvvbvvvvvvbvvbvvbbbg*.oX.X....X....o<dbkbbbbvbvvvvvvbvvvvvvvvvvbvbvvvvvvvvvxkfq  .. OLLLLLLL",
"LLLLLLLLo....@afjxvvvvvvvvvvvvvvvvvvvvvvvvvvvvvvvvbxxbbjqX..........X.o.ukbbkkbkvvvvvvvvvvvvvvvvvvvvvvvvvvvvvvxkgs@....OLLLLLLLL",
"LLLLLLLLo ... 1dgkcvvvvvvvvvvvvvvvvvvvvvvvvvvxvvvvxbxxbzd@XoX......o.oo=dbbbbbbbvvvvvvvvvvvxvvvvvcvvvcvvvvvvvxzjf2 ....oLLLLLLLL",
"LLLLLLLLL+ ...Xedkkzvvvvvxvxvvxvvxvxvxzvvvvvxvxvxvxvxvvzj3XXX.......XX.qjzvvvvvvxvxvxvxvxvxvxvzvvcxvxvxvxvvvzzkfr.... +LLLLLLLLL",
"LLLLLLLLLLX....$pdkkzvzvxvxvxvvxvvxvxvvvvzvxvvvxvxvxvxxvzpo.XX....XX.X@dkxxvxvzvvxvvvxvvvxvxvvvvvvvvvxvxvxzxkkfs$....XLLLLLLLLLL",
"LLLLLLLLLLO ... <afkzzvzxvzvxvzvvzxxxvzvvvzvxxxvxxxvxvxvcg:X.......XX.6fxvvzxxvzxxxxxxxxzvxvzvvxcvcxxxxxvxxxkgd< . . +LLLLLLLLLL",
"LLLLLLLLLLLo ....7dfkkzvzvvzxzvzxxxvzvvzzzvzxxxxxxxxxxxzxkeXX.X....XXopkzxxxxxvzxxxxxxxvxxvzvzzvccxxxxxxxxzkgd8.....+LLLLLLLLLLL",
"LLLLLLLLLLL.X....ordfkkxzvzxzxzxvzxzzxzxzvzvzxxxxxxxzzxxzzf&XX.....XX>dzxxxxvzvvzxzxxzxzzzxxzxzxxxxxxzxxzzkgdyX....X LLLLLLLLLLL",
"LLLLLLLLLLLLo ... @udgkkzzxxxxxxzxzvxxxxxzzvvzzxxzxzxxzxxzj7.........rjzxzxzzzzzxxxxxxxxxxzxvzvzzxzxcczzzkjdp@ ....OLLLLLLLLLLLL",
"LLLLLLLLLLLLLO ... *pdgkkzzxzxzzzxzvzvzxzzzzzzxxzxxcxxxxzczd+X....XX*dkzzvzvzvzxxxzxxzxxvzxzvzvzxcxzxxzzkjfa&.....OLLLLLLLLLLLLL",
"LLLLLLLLLLLLLLX.....-pdgkzzzxzzvzvzzzzxxzvvzzxzxxzzxzzxzczzg2.......qgzxzzzzxzxxzzxzxzzzzxzxzzzxzzzczzzkgfs: ... oLLLLLLLLLLLLLL",
"LLLLLLLLLLLLLL X ....>pdfkkkzzzzxzzxzzxkzxzzzxzzzzzzzzxzzzzkpX....X@akzzzxzzzxzzzczzzzzxzzzxzzxzzxzzzkkgfs>.....X.LLLLLLLLLLLLLL",
"LLLLLLLLLLLLLLLX..... <adfgkzzzzzzzzzzzzzzzzzzzzzzzzzzzzzzzkf:.....3dkzzzzzzzzzzzzzzzzzzzzzzzzzzzzzzkjgda< ... .XLLLLLLLLLLLLLLL",
"LLLLLLLLLLLLLLLLo .... >pdfkkkzzzzzzzxkzzzzzzzzzzzzzzzzzzzzzgeX...oujzzzzzzzzzzxzzzzzzzzzzzzzzzzzzkkkgds> .....oLLLLLLLLLLLLLLLL",
"LLLLLLLLLLLLLLLLLo .... -pafgkkkzkzzkzzzzzkzzzkzzzzzkzzzzkzzkd&...>dkzzkzkzzkzzkkzzzzzkzzzkzzzkzkkkjfda- .....OLLLLLLLLLLLLLLLLL",
"LLLLLLLLLLLLLLLLLLO .....&udfgkkkkkzzkzkkzkzkzzzzkzzkzzkzzzkzg7.. rfkzzkzkzkzzzzzzzzzzzkzzzzzzzkkjjfsp& .....oLLLLLLLLLLLLLLLLLL",
"LLLLLLLLLLLLLLLLLLLO..... +eadfgkkkkzzzzzzzzzzzkzzzkzzzkzkkzkka+.&dkkkzzzzzzkkzkzkzkkzzzkzkzkkkkjgfsr+ .....oLLLLLLLLLLLLLLLLLLL",
"LLLLLLLLLLLLLLLLLLLLo .... o7addgkkkkzzzzzkzkzkzzzkzkzkzzzzzkkg2 efkzkzkzkzzzzzzkzzzzkzkkzzkkkkggds7X..... oLLLLLLLLLLLLLLLLLLLL",
"LLLLLLLLLLLLLLLLLLLLLo.. ....>padgjkkkkzkkzzzzzzkzzzzzzzzkzkzkka*dkkzzzzzzkzkzzkzzzkzzzzzzkkkkgdsp>.......oLLLLLLLLLLLLLLLLLLLLL",
"LLLLLLLLLLLLLLLLLLLLLLX...... @eadfgkkkkkkzzkzzzzzzzzzzzzzzkzkkkgkkkkzzzzzkzzzzkkzzzzzzzkzkjjfdde@......XXLLLLLLLLLLLLLLLLLLLLLL",
"LLLLLLLLLLLLLLLLLLLLLLL X.......1uadfgkkkkzkzzzkkkzkzkzkzkzzzzkkkzzkzzzkzkzzzkzzzzzkkkkkkjjgddp1. .....X LLLLLLLLLLLLLLLLLLLLLLL",
"LLLLLLLLLLLLLLLLLLLLLLLLLo... ...+8padfgjkkkzkkzzzzzkzzzkzzzzkzzzkzkzkzzzzzzzzzkzzkkzkkkggdda8+ ... . OLLLLLLLLLLLLLLLLLLLLLLLLL",
"LLLLLLLLLLLLLLLLLLLLLLLLLLX......  *eaddfgjkkkzkzkzkzzzkzzkzzzkzzzzzzzkzzkzkzkzzkzkkkjggfdae& .......oLLLLLLLLLLLLLLLLLLLLLLLLLL",
"LLLLLLLLLLLLLLLLLLLLLLLLLLL X .. . ..=eaddfggkkkkkkkkzzzkzzzzzzzkzzkzzzkzzkkkzkkkkjjggddar-  ..... o LLLLLLLLLLLLLLLLLLLLLLLLLLL",
"LLLLLLLLLLLLLLLLLLLLLLLLLLLLLo..... . .*qpaddfgjkkkkkkkzzkzkkkkzzzzkzkkkkzkkkkkkjggfdsaq*. . . ...oLLLLLLLLLLLLLLLLLLLLLLLLLLLLL",
"LLLLLLLLLLLLLLLLLLLLLLLLLLLLLLLo .. . .  $6uasddfggkkkkkkkkkkkkkkkkkkkkkkkkkkggffddau5$  .. ... oLLLLLLLLLLLLLLLLLLLLLLLLLLLLLLL",
"LLLLLLLLLLLLLLLLLLLLLLLLLLLLLLLL.X . . .   o-8uaddddfffgkgkkkkkkkkkkkkgkjggfddddsu8-X . .  .  XXLLLLLLLLLLLLLLLLLLLLLLLLLLLLLLLL",
"LLLLLLLLLLLLLLLLLLLLLLLLLLLLLLLLLL.X . . . .  o*3epasddddfffffffgffffffdddddapr5=o     . .. XXLLLLLLLLLLLLLLLLLLLLLLLLLLLLLLLLLL",
"LLLLLLLLLLLLLLLLLLLLLLLLLLLLLLLLLLLLX. ...  .    .+-30ruaaadaddddsdsadaauuq3-O       ...  XXLLLLLLLLLLLLLLLLLLLLLLLLLLLLLLLLLLLL",
"LLLLLLLLLLLLLLLLLLLLLLLLLLLLLLLLLLLLLL.X .            XO+&><357777332>%@oX       ..     o.LLLLLLLLLLLLLLLLLLLLLLLLLLLLLLLLLLLLLL",
"LLLLLLLLLLLLLLLLLLLLLLLLLLLLLLLLLLLLLLLL XX   .   .                           .      Xo LLLLLLLLLLLLLLLLLLLLLLLLLLLLLLLLLLLLLLLL",
"LLLLLLLLLLLLLLLLLLLLLLLLLLLLLLLLLLLLLLLLLLL.X.                                    .X.LLLLLLLLLLLLLLLLLLLLLLLLLLLLLLLLLLLLLLLLLLL",
"LLLLLLLLLLLLLLLLLLLLLLLLLLLLLLLLLLLLLLLLLLLLLL .o.   .                        .oX LLLLLLLLLLLLLLLLLLLLLLLLLLLLLLLLLLLLLLLLLLLLLL",
"LLLLLLLLLLLLLLLLLLLLLLLLLLLLLLLLLLLLLLLLLLLLLLLLLL .XXX                  .oXX LLLLLLLLLLLLLLLLLLLLLLLLLLLLLLLLLLLLLLLLLLLLLLLLLL",
"LLLLLLLLLLLLLLLLLLLLLLLLLLLLLLLLLLLLLLLLLLLLLLLLLLLLLLLL   .  ooXX  ..  LLLLLLLLLLLLLLLLLLLLLLLLLLLLLLLLLLLLLLLLLLLLLLLLLLLLLLLL"
};
