/* XPM */
static char *viacoin16[] = {
"16 16 83 1 0 0",
"  c #474747",
"! c #454545",
"# c #434343",
"$ c #444444",
"% c #494949",
"& c #404040",
"' c #3B3B3B",
"( c #414141",
") c #3E3E3E",
"* c #464646",
"+ c #4B4B4B",
", c #3D3D3D",
"- c #3F3F3F",
". c #4D4D4D",
"/ c #636363",
"0 c #626262",
"1 c #424242",
"2 c #606161",
"3 c #616161",
"4 c #3C3C3C",
"5 c #545454",
"6 c #6B6B6B",
"7 c #848484",
"8 c #E0E0E0",
"9 c #D0D1D1",
": c #7C7C7C",
"; c #6F6F6F",
"< c #707070",
"= c #5D5D5D",
"> c #EAEAEA",
"? c #808080",
"@ c #393939",
"A c #727171",
"B c #DFDFDF",
"C c #5A5A5A",
"D c #767676",
"E c #6C6C6C",
"F c #7D7D7D",
"G c #CACACA",
"H c #C5C5C5",
"I c #363535",
"J c #323232",
"K c #B3B3B3",
"L c #C8C8C8",
"M c #7F7F7F",
"N c #727272",
"O c #6D6D6D",
"P c #BDBDBD",
"Q c #EFEFEF",
"R c #B0B1B1",
"S c #AEAFAF",
"T c #EAEAEB",
"U c #BBBBBB",
"V c #7E7E7E",
"W c #737373",
"X c #5C5C5C",
"Y c #666666",
"Z c #BABBBB",
"[ c #C2C3C3",
"] c #B9B9B9",
"^ c #B3B3B4",
"_ c #777777",
"` c #373737",
"a c #E4E4E4",
"b c #DBDBDB",
"c c #383838",
"d c #555555",
"e c #CECECE",
"f c #C2C2C2",
"g c #3A3A3A",
"h c #585858",
"i c #484848",
"j c #4A4A4A",
"k c #4C4C4C",
"l c #505050",
"m c #404041",
"n c #515151",
"o c #2D2D2D",
"p c #4E4E4E",
"q c #525252",
"r c #4F4F4F",
"s c #212121",
"t c None",
"tttttttttttttttt",
"ttttt !#$ %ttttt",
"ttt!&'&##()* ttt",
"tt+,,-####&)$.tt",
"tt.,/0-1#&2345&t",
"t6,'78 ((19:'(;t",
"t<'-=>?@'ABC(4Dt",
"tE4)FGHIJKLM)4Nt",
"tO,):PQRSTUV)4Wt",
"tW4&XYZ[]^Y=(4_t",
"tO($(`Yab=c&#1<t",
"t4d&$#,efg#1-h,t",
"tt+i1#gFD4#&jktt",
"ttt!l1(&m(#n ttt",
"ttttopqrlqrotttt",
"tttttttssttttttt"
};
