/* XPM */
static char *_482424155242[] = {
/* columns rows colors chars-per-pixel */
"16 16 120 2 ",
"   c #151515",
".  c #181818",
"X  c #191919",
"o  c #232323",
"O  c #242323",
"+  c #272727",
"@  c #2A2A2A",
"#  c #313131",
"$  c #323232",
"%  c gray20",
"&  c #343434",
"*  c #353535",
"=  c gray22",
"-  c #3A3A3A",
";  c gray23",
":  c #3C3C3C",
">  c #3F3F3F",
",  c gray25",
"<  c #414141",
"1  c gray26",
"2  c #464646",
"3  c gray28",
"4  c #484949",
"5  c #494949",
"6  c #4A4B4B",
"7  c #4E4E4E",
"8  c gray32",
"9  c #535353",
"0  c gray33",
"q  c #545555",
"w  c #555555",
"e  c #585858",
"r  c #595858",
"t  c gray35",
"y  c #5B5B5B",
"u  c #5E5D5D",
"i  c gray37",
"p  c #5F5F5F",
"a  c #646363",
"s  c #646464",
"d  c #676666",
"f  c #686868",
"g  c DimGray",
"h  c #6A6A6A",
"j  c #6D6D6D",
"k  c gray47",
"l  c #797979",
"z  c #7B7B7B",
"x  c #7E7F7F",
"c  c #838484",
"v  c #858484",
"b  c #878686",
"n  c gray53",
"m  c #888787",
"M  c #888888",
"N  c #8B8A8A",
"B  c #8C8B8B",
"V  c gray55",
"C  c #8D8C8C",
"Z  c #8D8D8D",
"A  c #8D8E8E",
"S  c #949393",
"D  c #9A9999",
"F  c #9B9B9B",
"G  c gray61",
"H  c #9D9D9D",
"J  c gray62",
"K  c #A2A2A2",
"L  c #ABAAAA",
"P  c #ACACAC",
"I  c #AFAEAE",
"U  c #AFAFAF",
"Y  c #B1B0B0",
"T  c #B2B1B1",
"R  c #B3B2B2",
"E  c #B7B6B6",
"W  c #B7B7B7",
"Q  c #B8B7B7",
"!  c #BCBBBB",
"~  c #BCBCBC",
"^  c #BDBCBC",
"/  c gray74",
"(  c gray",
")  c #BFBEBE",
"_  c #C4C3C3",
"`  c gray78",
"'  c gray79",
"]  c #CAC9C9",
"[  c gray80",
"{  c #CDCCCC",
"}  c #CFCDCD",
"|  c #CECECE",
" . c #CFCECE",
".. c gray81",
"X. c #D2D1D1",
"o. c #DAD9D9",
"O. c gainsboro",
"+. c #DDDDDD",
"@. c #DEDCDC",
"#. c #DEDDDD",
"$. c #DFDFDF",
"%. c #E0DEDE",
"&. c #E2E1E1",
"*. c gray89",
"=. c #E6E6E6",
"-. c #ECECEC",
";. c #EDECEC",
":. c #EEECEC",
">. c #EFEEEE",
",. c #F0EFEF",
"<. c #F3F3F3",
"1. c gray97",
"2. c #F8F8F8",
"3. c #F9F9F9",
"4. c gray99",
"5. c #FDFCFC",
"6. c #FDFDFD",
"7. c #FEFEFE",
"8. c white",
"9. c None",
/* pixels */
"9.9.9.9.9.> g n n g 1 9.9.9.9.9.",
"9.9.9.1 G O.2.7.2.2.O.G 1 9.9.9.",
"9.9.e ' 7.7.7.7.7.7.7.7.| e 9.9.",
"9.1 ' 7.7.7.7.7.7.7.7.7.7.' 1 9.",
"9.F 7.<.j ! 7.7.7.7.X.h =.7.G 9.",
"& O.7.7.V g 7.7.7.7.x k 7.7.O.& ",
"9 1.7.;.A 6 | 7.7.*.6 c *.7.2.w ",
"d ;.;.o.n e k ,.,.A w m | ,.;.g ",
"u @.%.' k w # a a = 7 k ) %.O.p ",
"- { X._ A m > 3 9 & n A ! X.} ; ",
". P ` ` ` ` k # > d ` ` ` ` P . ",
"9.u ! ) ) ) I @ + K ) ) ) ) p 9.",
"9.X N E Q Q Q r 6 Q Q Q Q B X 9.",
"9.9.o n T T R S v T T T m O 9.9.",
"9.9.9.X e F I Y Y I F e X 9.9.9.",
"9.9.9.9.9.  # 2 2 #   9.9.9.9.9."
};
