/* XPM */
static char *_9bb9858b3f84e5ad637eb3736d41750[] = {
/* columns rows colors chars-per-pixel */
"128 128 50 1 ",
"  c #000000",
". c #0B0B0B",
"X c #141414",
"o c #1C1C1C",
"O c #1F2020",
"+ c #242424",
"@ c #2C2C2C",
"# c #2F3030",
"$ c #343434",
"% c #383737",
"& c #3D3D3D",
"* c #403F3F",
"= c #434343",
"- c #4B4B4B",
"; c #545454",
": c #5B5B5B",
"> c #656565",
", c #6A6A6A",
"< c #747474",
"1 c #777878",
"2 c #7C7C7C",
"3 c #7E7F80",
"4 c #7F8080",
"5 c #848484",
"6 c #878888",
"7 c #8B8B8B",
"8 c #8F9090",
"9 c #949494",
"0 c #9C9C9C",
"q c #9FA0A0",
"w c #A4A4A4",
"e c #A7A8A8",
"r c #ABABAB",
"t c #AFB0B0",
"y c #B4B4B4",
"u c #B7B7B8",
"i c #BCBCBC",
"p c #C4C4C4",
"a c #C8C7C7",
"s c #C8C8C7",
"d c #C7C8C8",
"f c #CBCBCB",
"g c #D3D3D3",
"h c #DBDBDB",
"j c #E4E4E4",
"k c #ECECEC",
"l c #F3F3F3",
"z c #F8F7F7",
"x c #FDFDFD",
"c c None",
/* pixels */
"cccccccccccccccccccccccccccccccccccccccccccccccccccccccccccccccccccccccccccccccccccccccccccccccccccccccccccccccccccccccccccccccc",
"cccccccccccccccccccccccccccccccccccccccccccccccccccccccccccccccccccccccccccccccccccccccccccccccccccccccccccccccccccccccccccccccc",
"cccccccccccccccccccccccccccccccccccccccccccccccccccccccccccccccccccccccccccccccccccccccccccccccccccccccccccccccccccccccccccccccc",
"cccccccccccccccccccccccccccccccccccccccccccccccccccccccccccccccccccccccccccccccccccccccccccccccccccccccccccccccccccccccccccccccc",
"cccccccccccccccccccccccccccccccccccccccccccccccccccccccccccccccccccccccccccccccccccccccccccccccccccccccccccccccccccccccccccccccc",
"cccccccccccccccccccccccccccccccccccccccccccccccccccccccccccccccccccccccccccccccccccccccccccccccccccccccccccccccccccccccccccccccc",
"cccccccccccccccccccccccccccccccccccccccccccccccccccccccccccccccccccccccccccccccccccccccccccccccccccccccccccccccccccccccccccccccc",
"cccccccccccccccccccccccccccccccccccccccccccccccccccccccccccccccccccccccccccccccccccccccccccccccccccccccccccccccccccccccccccccccc",
"cccccccccccccccccccccccccccccccccccccccccccccccccccccccccccccccccccccccccccccccccccccccccccccccccccccccccccccccccccccccccccccccc",
"cccccccccccccccccccccccccccccccccccccccccccccccccccccccccccccccccccccccccccccccccccccccccccccccccccccccccccccccccccccccccccccccc",
"cccccccccccccccccccccccccccccccccccccccccccccccccccccccccccccccccccccccccccccccccccccccccccccccccccccccccccccccccccccccccccccccc",
"cccccccccccccccccccccccccccccccccccccccccccccccccccccccccccccccccccccccccccccccccccccccccccccccccccccccccccccccccccccccccccccccc",
"ccccccccccccccccccccccccccccccccccccccccccccccccccccccccccccc++++@+ccccccccccccccccccccccccccccccccccccccccccccccccccccccccccccc",
"cccccccccccccccccccccccccccccccccccccccccccccccccccccc%=;:>>>,,,,,,,>>:;=%+ccccccccccccccccccccccccccccccccccccccccccccccccccccc",
"cccccccccccccccccccccccccccccccccccccccccccccccccc&;>,,,,,>,>>>,,>>>,>>,,,,>;&+ccccccccccccccccccccccccccccccccccccccccccccccccc",
"cccccccccccccccccccccccccccccccccccccccccccccc+=:,,,>>,>,,,,,,,>>>,,,,,,,,>>,,,>=+cccccccccccccccccccccccccccccccccccccccccccccc",
"cccccccccccccccccccccccccccccccccccccccccccc%:,,,,,,,,>:;==$@@@++@@@%&-;:>,,,>>,,,:&cccccccccccccccccccccccccccccccccccccccccccc",
"cccccccccccccccccccccccccccccccccccccccccc=>,>>>,,>;=#+oXXXXXooooooooXoXO+$=:>,,,>,,>=cccccccccccccccccccccccccccccccccccccccccc",
"cccccccccccccccccccccccccccccccccccccccc=>,>>,,>-%+XXooO+@@@@###$@@@@@@+OOoXo+%->,,>>,,-cccccccccccccccccccccccccccccccccccccccc",
"cccccccccccccccccccccccccccccccccccccc&>,,>,,:&OoXoO+@@#$$%%&&&=&&&&&&%%%$#@+Ooo+*:,,>,,,=cccccccccccccccccccccccccccccccccccccc",
"cccccccccccccccccccccccccccccccccccc@:,,>,,;$oXoO@@#$&&&*==============*=*&%%$$++oo$:>,>>,>$cccccccccccccccccccccccccccccccccccc",
"ccccccccccccccccccccccccccccccccccc-,,>,,:@XXo+@#%&&======================***&&%$#+oo@:,,>>,;ccccccccccccccccccccccccccccccccccc",
"ccccccccccccccccccccccccccccccccc+:,>,,:$XXO+#%%***=============-=============***&%#@Oo$:,>>,>@ccccccccccccccccccccccccccccccccc",
"cccccccccccccccccccccccccccccccc&,,>,>*oXo+#%&*====*=========-==*=-===========-==**&%$+oO=,,>>,=cccccccccccccccccccccccccccccccc",
"ccccccccccccccccccccccccccccccc-,>>,;@Xo+@$&=================================-=======&%$+o@:,,>,;ccccccccccccccccccccccccccccccc",
"cccccccccccccccccccccccccccccc;,>,,-oXO@#$================-===========-===============**%#OO=>,>,:cccccccccccccccccccccccccccccc",
"ccccccccccccccccccccccccccccc:,,,,$Xo+@%=================-================-======-======*&$@O%>>,,>occcccccccccccccccccccccccccc",
"cccccccccccccccccccccccccccc>,>,:+XO@#&*=*=-==-======================-===================*&%#O@>,>,>occccccccccccccccccccccccccc",
"ccccccccccccccccccccccccccc>,,,:OX+@#===============**=*=====-===========-==*===============&#O+:,>,>occcccccccccccccccccccccccc",
"cccccccccccccccccccccccccc:,>,:oX+#%*====================-=-======-=========*===============*&%O+:,,,,Xccccccccccccccccccccccccc",
"ccccccccccccccccccccccccc:<,<:oX+#%=======================-=========-======*=====-==-========*&%@+:<,<>ccccccccccccccccccccccccc",
"cccccccccccccccccccccccc;1,<>oo+#&=============-=======================-====*=================*&%++:<<<:cccccccccccccccccccccccc",
"ccccccccccccccccccccccc=1<<,+X+#&*=============================-=======--========-==============&%+@,<<1-ccccccccccccccccccccccc",
"cccccccccccccccccccccc@2111@X+$&**===============&=&======-==-===-===============================&$+$<112%cccccccccccccccccccccc",
"cccccccccccccccccccccc<224&X+#&=======&==========================================================&&%+&2221Xccccccccccccccccccccc",
"ccccccccccccccccccccc:525;XO#%*============*======================-===============================*&$+:545>ccccccccccccccccccccc",
"cccccccccccccccccccc$757<oo@%*=========*================-=======-==================================*%$+<757&cccccccccccccccccccc",
"cccccccccccccccccccc1767#X+$*========*==&==&===&&=====================-=============&==&======&=====&%+%5775Xccccccccccccccccccc",
"ccccccccccccccccccc;979;.+#&========**=&=**==&&========*====================**==&=============&&=*=***%+;979>ccccccccccccccccccc",
"ccccccccccccccccccc9995oO@&*====-=====&=**=&&=&&&=&====*=====================&&===&&&&&&&==*&=====**=*&$@5999+cccccccccccccccccc",
"cccccccccccccccccc>09w=X@%==-======*=*=%%$%$$$&&*=*====*===============-===&=&&=&&==&=&&====*========**&+-090<cccccccccccccccccc",
"cccccccccccccccccc00w2X+#*===========&>yrrrttti-%=*****=====-===============&===$qgffffff;#===========*&%+3q0w@ccccccccccccccccc",
"ccccccccccccccccc,eww=X+%*=====-====***ihghgghj7@&&&*=========================&$;jzzlzzxi+&&===========*%@=wqe1ccccccccccccccccc",
"cccccccccccccccccwer5X+$&===========**$4gffggghd&%&=*==*==========-=======&==&&#8zlklklz,+*&*==========*&%+4rer+cccccccccccccccc",
"cccccccccccccccc:yrt=X@%*===========**&=dfffgggh<@&&&=&==============-===*==&=%*glkllkzg@%==&=====-======&@-try,cccccccccccccccc",
"cccccccccccccccc0yy0OO$&===========&*&&#9gggfgghy$&&==&&================*&=&==#4zllkklz4O=&===========-=*&%@9uywXccccccccccccccc",
"ccccccccccccccc%iui>X+%=======-====&**&$;gffgfggh;$&&&=======&*=-====*=====&&&$izkklllj%#==&&============*&+,iup-ccccccccccccccc",
"ccccccccccccccc1dii#o#&============&&*&&$egffgfgh0@&&&&===-==============&==&#:kllllkz0O&&&==&=======-====&#&yip7ccccccccccccccc",
"ccccccccccccccctps9X+%&=============&*&&$>gffgfggf=%****=================&=&&#wzlkllkl-@&=&=&=============*%+9spiocccccccccccccc",
"cccccccccccccc&fpg>X@%&==============&&*&%ifffgfgh3@&**=======-=====&==&==&=#-hlklklzuO%&&&====*-==========&@>fsf-cccccccccccccc",
"cccccccccccccc<gfs%o$&*======-=======&*&&#3gfgfgggi%%&*=&====-==-===&==&&=&&$4zllkklz>+=&&=&===========-===&$&pfh5cccccccccccccc",
"ccccccccccccccehgto+%&===-==========&=&&&%=pfffgggh,#&&*================&$&$=flkklkzf+#&&&=&==*======-=====*%@eggy.ccccccccccccc",
"ccccccccccccccfhj5X@%==============&=&&&&&@8gffgfghe#&&*===============&&%&$,lkklkkz3o&&&&&======-==========&+5jgh@ccccccccccccc",
"ccccccccccccc=jhj:X#&================&&&%&#;ffffgfgg-%**&================&&#tlkkkllj@#%&&&&=&=========-=====&@>hhj;ccccccccccccc",
"ccccccccccccc,khh%O%*=======-========&&&&%%@wgfffggh8@&*=&============&&&%$;jkkkkkz8X&&%&&&=============-===&$=hjk5ccccccccccccc",
"ccccccccccccc0ljf++%=====-=========&==&%%$$@>fsffffgf*%*&*&============&&&#9lkkkkll;o####&=&================&%$pkkeccccccccccccc",
"cccccccccccccillyX@%==-============&=$4reweeepsfffggh1#&&&**==&=====*==&&%*gkkkkkllguiiip1@=*======-========&%@rlks cccccccccccc",
"cccccccccccccgkz0X#&=================$8fddfffdffffffgu$%&&&**&=====*=*&&=#1kkkjkkkklzzzzx8O=*====-======-====&@9lljocccccccccccc",
"cccccccccccccklx5X#&==========-====&*$8dppppddddfffggg:#&&*&&======&===&&$ilkkkkkkkkkklkx6+==*===============&@5xll$cccccccccccc",
"ccccccccccccczlx,X$*===-=============$7diipppdsdfffffhq@&&*&&*=*====&&&&#:jkjjkkkkkklkklx6+=*================&@,xlx=cccccccccccc",
"cccccccccccc=xzx>X$*====-==========&=$8fddddfffffffffgg-$&&&&&===&=&=&&&#qljkjkkklzzzzzzx8O==*===============&@>xzx:cccccccccccc",
"cccccccccccc;xxx;o$*======-========&=$4rwwweweeufdffffh6@&&&&***&==&&&&$=gkkjkkkguiiiiiid,+=**===============&@:zxx>cccccccccccc",
"cccccccccccc:xxx-o%&=====-========&=&&%@@+@+++O:fdffffgi%%&&&&**=&&&&&&#4kjjjkkj&XooOoooOO%***===============&$;xxx<cccccccccccc",
"cccccccccccc>xxx-O%&*================&&%%%%%%$#$ufdffgfh,#&%&&&*&=$&&&%$pkjjkjleX$$$%%%%&&&**======-=========&@;xxx<cccccccccccc",
"cccccccccccc>xxx-O%*========-======**&&&&&&%%$$@2gaffffge#%&&&&&&&&&&&#>jjjjjjl;o%%%%&&$&&&&=&===============*#-xxx1cccccccccccc",
"cccccccccccc:xxx-o%*====-==-=======**&&%$$$%$$#@&idffffgg;@%$%%%$$$$%$@ejjjjjluX@$$#$$&$$&&&&&&=====-=========#;xxx<cccccccccccc",
"cccccccccccc;xxx;O%&===============**&--=====*==%8fddfffg0$&&&&*&=*=&$;hjjjjjlq@&&&&&**===$&&=======-=======*&#:xxx>cccccccccccc",
"cccccccccccc-xzx:o%*==-==========*=**$6iuuuuuuuiiidddfffffpdddffdfffgfgjjjhjjjjhghhhhhhhk4+=&&================@:xzx:cccccccccccc",
"cccccccccccccllx<o%&=-============*=*$6pipippppapppdddfffgggghghhhhhjjjhjjhjjjjkkkkklkkkx7+=**====-========-*&@<xlx=cccccccccccc",
"cccccccccccccklx5X$*=====-=========**%6piiiiipipppppdddffffgfggghghhhhhhhhjjjjjjjjkkkkkkz7@*=*=*=============&@4xkl#cccccccccccc",
"ccccccccccccchlz0X$&=======-======*==%6piiiiiiipipppdddffffggggggghghhhjhjjjjjjjjkjkkkkkz7@**================&@9zkjocccccccccccc",
"cccccccccccccilluo#&====-==========**%7spppdddddfffgdddfffffghhhhjjjhghhjhhjklllllllllzzx9+=*=*=======-=====*&@tlkf.cccccccccccc",
"cccccccccccccqljf+#&========-===*=&=&%,3111111<111<<ufpfffff82234448ghhhhhjd4488887888990>@===============-=*&$pkkr cccccccccccc",
"ccccccccccccc<khh*+%*===-=======*==*==#OOOOOOOOOOOoX7fpddffg2.oooXX&ghhhjhk<XOoOOOOOOOOOO+&==========-======*$=gjk5 cccccccccccc",
"ccccccccccccc-jhj:O%*==-========*=======*===***&&&&$;daadfffd&$%$%@4jhhhhjf$#&&&&&&&**=====&&===============*#:hhj:ccccccccccccc",
"ccccccccccccccghj6o%*===========*===&=&&=&&&*&*&&&&%#wfpdsffg<+$$#&ihhghhj4O&$&&&&&&&*&&=&=*================*@4hgh#ccccccccccccc",
"ccccccccccccccrhgrO#&==================&***&****&&&%#>fpdssfgt@#$@,hghhhhh=+&&&&&&&&=&&=================-===$#whhi.ccccccccccccc",
"cccccccccccccc2gfd&@&*====-=-===============****&&&&%%ydpdsffg:@$#thggghjeO&&&&&&&==&===&=&======-==========$=pfg7 ccccccccccccc",
"cccccccccccccc=gdg>O%*========-========&***==****&&&&#1fpdsssg0@#:ggghhhh:+=&==&&=&&==&=&========-=========&#>fpg; ccccccccccccc",
"cccccccccccccccypd9O$*====-===================*=***&&&=iddsssff=+9hgggghi+$&&&&===========&================&@8dpiocccccccccccccc",
"ccccccccccccccc5piu%@&*============-=============&&&&&#7fppddfg3%dgggggj1O=&&==&==============-===========*%*yip7 cccccccccccccc",
"ccccccccccccccc=pui,O$*===-==========-===-==========&&$;ddpdddgy4ggffghf$#&&=&&==============-===========*&@>iup- cccccccccccccc",
"ccccccccccccccccqyy0+$*==-============-===-======&=&=&&#qdppdddfggfgggh8O%&&==&=======&===-========-=-===*&#8uyeXccccccccccccccc",
"cccccccccccccccc>ury-+%*=====-================-=====&&&#,fpppdfdffgfggg=@&==&====&=======================*$-rru, ccccccccccccccc",
"ccccccccccccccccoeer7+$%=========-=-=================&&&%tdppddddffgfhwO%&&&============================*%#4rer@ ccccccccccccccc",
"ccccccccccccccccc<eww=+%&====================-=====&&&&&#1fppdddfffffh>+&&&=================-===========*$=wwe2 cccccccccccccccc",
"ccccccccccccccccc@w0w4+$&*=============--=-====-=====&&&%=idpppddfffgu@$&&*&===========================*&#1w0w$ cccccccccccccccc",
"cccccccccccccccccc,q90-+%&==========-===============*&=&&#8fpppdddffg1+&&&&============================&#-090< ccccccccccccccccc",
"cccccccccccccccccc+9995@#&============-==-=-==========&&&$;pppppddffp%#&&&===-=====-==============*===*%$1990@ ccccccccccccccccc",
"ccccccccccccccccccc:979:+$%*======-====================&&&#qppppddfg8O&*=&&&=========&==========-===*=&$;979> cccccccccccccccccc",
"cccccccccccccccccccX5776&@%&*=============-====-======*=&&#>dppppdff-@&&&=*===========&============**&%&5677X cccccccccccccccccc",
"cccccccccccccccccccc&756,@$&&=======-===================&*&%tppppdfq+&&*&&=&========================&%$,757= ccccccccccccccccccc",
"ccccccccccccccccccccc>544:+%*====-=========--==========***=#4dpppdf:@*&*===========================*&$;555,  ccccccccccccccccccc",
"ccccccccccccccccccccco1244=@%&=========-===============***&%=ipppdt#%&&*=========-======-=========*&$=1222o cccccccccccccccccccc",
"cccccccccccccccccccccc$3111%#&&=======-=-=====-==========&*=#7fipf<O*&*&==========-==============*&%%<112% ccccccccccccccccccccc",
"ccccccccccccccccccccccc-1<1,##%=============-=========**&=&&$;pppu$$*&*=&==============*=========*%%>1<2;  ccccccccccccccccccccc",
"cccccccccccccccccccccccc:<<<>$$%**=====-===-=============&&&&#qdf4O&&*===========-==============*%#:<,1>. cccccccccccccccccccccc",
"cccccccccccccccccccccccc.><,,:@$&*========================&&=$>fd=#&=*========================*&%$:<,<>X ccccccccccccccccccccccc",
"ccccccccccccccccccccccccco>,,,:@$&*======-===============&&==&%y0O&==*=======--==============*&%$:,,,>o cccccccccccccccccccccccc",
"cccccccccccccccccccccccccco>,>,:##%&====================&&====$4:@=&========================**%$;,>,,+ ccccccccccccccccccccccccc",
"ccccccccccccccccccccccccccco,,>,>$@%&*==============-===*=*===&-%&============-==-==========%%%:,>,>+  ccccccccccccccccccccccccc",
"cccccccccccccccccccccccccccco>,>,>&@%&*===========-===========*&&=====================-===*&$&>>>,>+  cccccccccccccccccccccccccc",
"cccccccccccccccccccccccccccccX:,>,>-#$%*=====-============&===*========================**&%$->,>,>o  ccccccccccccccccccccccccccc",
"ccccccccccccccccccccccccccccccX;,>>>:%$%*========-========*&=======================-===&&$&;,>>,:.  cccccccccccccccccccccccccccc",
"ccccccccccccccccccccccccccccccc.=,,>,>-@$&&*=================**==========-===========*&%$=>,>>,-  cccccccccccccccccccccccccccccc",
"ccccccccccccccccccccccccccccccccc$>,>,,:&@%&&===============******================**&%$&:,>>,>$  ccccccccccccccccccccccccccccccc",
"ccccccccccccccccccccccccccccccccccX;,>>,>;&#$%%**================================*&%$%;>,>,,;o  cccccccccccccccccccccccccccccccc",
"ccccccccccccccccccccccccccccccccccc %>,>>,>;&$$%&*==*=====-================*=*&&*$$*;>,>>,>%   ccccccccccccccccccccccccccccccccc",
"cccccccccccccccccccccccccccccccccccccX=,,,>,>:=%#$%&&&**================****&%%$%=:>,,>,,-X  ccccccccccccccccccccccccccccccccccc",
"cccccccccccccccccccccccccccccccccccccc o-,,>>,,>;=%##%%&&*&**=*===&&==&&&%%%$%=;>>,>>,,;+   cccccccccccccccccccccccccccccccccccc",
"cccccccccccccccccccccccccccccccccccccccc +-,,,>,>,>:-*%$#$%%$%%%%%%%%$#$#%*-;>>,>>>,,-O   cccccccccccccccccccccccccccccccccccccc",
"cccccccccccccccccccccccccccccccccccccccccc o&>,,>>>,>>>:;-==*&%&&%&&==-;:>>,>>>,,,>=O   cccccccccccccccccccccccccccccccccccccccc",
"cccccccccccccccccccccccccccccccccccccccccccc .@->,,,>,>,,,>,>>>>>>>>>,,,>>>>,,,>-@.   cccccccccccccccccccccccccccccccccccccccccc",
"ccccccccccccccccccccccccccccccccccccccccccccccc X@=:,,,,>,>>,>>,>>>,,>>,,,,,:-@X   ccccccccccccccccccccccccccccccccccccccccccccc",
"ccccccccccccccccccccccccccccccccccccccccccccccccc   X@&-:>,,,,,,,,,,>>>:;*@X    cccccccccccccccccccccccccccccccccccccccccccccccc",
"ccccccccccccccccccccccccccccccccccccccccccccccccccccc    .Xo+@@$$@@+oX..     ccccccccccccccccccccccccccccccccccccccccccccccccccc",
"ccccccccccccccccccccccccccccccccccccccccccccccccccccccccccc            ccccccccccccccccccccccccccccccccccccccccccccccccccccccccc",
"cccccccccccccccccccccccccccccccccccccccccccccccccccccccccccccccccccccccccccccccccccccccccccccccccccccccccccccccccccccccccccccccc",
"cccccccccccccccccccccccccccccccccccccccccccccccccccccccccccccccccccccccccccccccccccccccccccccccccccccccccccccccccccccccccccccccc",
"cccccccccccccccccccccccccccccccccccccccccccccccccccccccccccccccccccccccccccccccccccccccccccccccccccccccccccccccccccccccccccccccc",
"cccccccccccccccccccccccccccccccccccccccccccccccccccccccccccccccccccccccccccccccccccccccccccccccccccccccccccccccccccccccccccccccc",
"cccccccccccccccccccccccccccccccccccccccccccccccccccccccccccccccccccccccccccccccccccccccccccccccccccccccccccccccccccccccccccccccc",
"cccccccccccccccccccccccccccccccccccccccccccccccccccccccccccccccccccccccccccccccccccccccccccccccccccccccccccccccccccccccccccccccc",
"cccccccccccccccccccccccccccccccccccccccccccccccccccccccccccccccccccccccccccccccccccccccccccccccccccccccccccccccccccccccccccccccc",
"cccccccccccccccccccccccccccccccccccccccccccccccccccccccccccccccccccccccccccccccccccccccccccccccccccccccccccccccccccccccccccccccc",
"cccccccccccccccccccccccccccccccccccccccccccccccccccccccccccccccccccccccccccccccccccccccccccccccccccccccccccccccccccccccccccccccc",
"cccccccccccccccccccccccccccccccccccccccccccccccccccccccccccccccccccccccccccccccccccccccccccccccccccccccccccccccccccccccccccccccc",
"cccccccccccccccccccccccccccccccccccccccccccccccccccccccccccccccccccccccccccccccccccccccccccccccccccccccccccccccccccccccccccccccc"
};
