/* XPM */
static char *viacoin32[] = {
"32 32 177 2 0 0",
"   c #3B3B3B",
"!  c #494949",
"#  c #4F4F4F",
"$  c #3C3C3C",
"%  c #4B4B4B",
"&  c #636363",
"'  c #5E5E5E",
"(  c #505050",
")  c #454545",
"*  c #404040",
"+  c #414141",
",  c #464646",
"-  c #515151",
".  c #5F5F5F",
"/  c #666666",
"0  c #4A4A4A",
"1  c #2F2F2F",
"2  c #2B2B2B",
"3  c #303030",
"4  c #353535",
"5  c #383838",
"6  c #373737",
"7  c #323232",
"8  c #2E2E2E",
"9  c #333333",
":  c #4D4D4D",
";  c #676767",
"<  c #4C4C4C",
"=  c #656565",
">  c #292929",
"?  c #3E3E3E",
"@  c #434343",
"A  c #444444",
"B  c #535353",
"C  c #6A6A6A",
"D  c #282828",
"E  c #3D3D3D",
"F  c #424242",
"G  c #707070",
"H  c #747474",
"I  c #5D5D5D",
"J  c #393939",
"K  c #343434",
"L  c #6F6F6F",
"M  c #5C5C5C",
"N  c #939393",
"O  c #565656",
"P  c #A2A2A2",
"Q  c #5B5B5B",
"R  c #525252",
"S  c #A1A1A1",
"T  c #A0A0A0",
"U  c #3F3F3F",
"V  c #949494",
"W  c #787878",
"X  c #2C2C2C",
"Y  c #D9D9D9",
"Z  c #FFFFFF",
"[  c #ACACAC",
"]  c #3A3A3A",
"^  c #898989",
"_  c #CACACA",
"`  c #7D7D7D",
"a  c #AAAAAA",
"b  c #484848",
"c  c #8C8C8C",
"d  c #FCFCFC",
"e  c #E6E7E7",
"f  c #CCCCCC",
"g  c #FDFDFD",
"h  c #A9A9A9",
"i  c #B6B6B6",
"j  c #313131",
"k  c #DEDEDE",
"l  c #919191",
"m  c #F7F7F7",
"n  c #CFCFCF",
"o  c #B8B8B8",
"p  c #A6A6A6",
"q  c #2D2D2D",
"r  c #6B6B6B",
"s  c #B7B7B7",
"t  c #D5D5D5",
"u  c #B1B1B1",
"v  c #FEFEFE",
"w  c #AFAFAF",
"x  c #69696A",
"y  c #6C6C6C",
"z  c #8D8D8D",
"{  c #F9F9F9",
"|  c #F5F5F5",
"}  c #F8F8F8",
"~  c #E5E5E5",
" ! c #F6F6F6",
"!! c #F7F8F8",
"#! c #717272",
"$! c #9A9A9A",
"%! c #C0C0C0",
"&! c #BEBEBE",
"'! c #999999",
"(! c #B3B3B3",
")! c #6F6F70",
"*! c #777777",
"+! c #4E4E4E",
",! c #363636",
"-! c #A8A8A8",
".! c #A3A3A3",
"/! c #4D4D4C",
"0! c #646464",
"1! c #909191",
"2! c #F2F2F2",
"3! c #EBEBEC",
"4! c #686868",
"5! c #696969",
"6! c #D8D8D8",
"7! c #F4F5F5",
"8! c #838384",
"9! c #8E8E8E",
":! c #969696",
";! c #656566",
"<! c #FAFAFA",
"=! c #FCFBFC",
">! c #F4F4F4",
"?! c #EEEEEE",
"@! c #EFEFEF",
"A! c #F8F9F9",
"B! c #F0F1F1",
"C! c #FBFBFB",
"D! c #717172",
"E! c #9B9B9B",
"F! c #858586",
"G! c #848585",
"H! c #7F7F7F",
"I! c #A6A7A7",
"J! c #F5F6F6",
"K! c #E8E9E9",
"L! c #8B8B8C",
"M! c #858585",
"N! c #E0E0E0",
"O! c #9F9F9F",
"P! c #808080",
"Q! c #848485",
"R! c #868686",
"S! c #6D6D6D",
"T! c #E1E2E2",
"U! c #F9FAFA",
"V! c #555555",
"W! c #D6D6D6",
"X! c #B9B9B9",
"Y! c #A4A4A4",
"Z! c #C7C7C7",
"[! c #ADADAD",
"]! c #8F8F8F",
"^! c #EDEEEE",
"_! c #F0F0F0",
"`! c #F1F1F1",
"a! c #818181",
"b! c #BBBBBB",
"c! c #474747",
"d! c #929292",
"e! c #1A1A1A",
"f! c #737373",
"g! c #626262",
"h! c #757575",
"i! c #DADADA",
"j! c #C6C6C6",
"k! c #595959",
"l! c #7D7D7E",
"m! c #171717",
"n! c #545454",
"o! c #1C1C1C",
"p! c #151515",
"q! c #585858",
"r! c #111111",
"s! c #181818",
"t! c #191919",
"u! c None",
"u!u!u!u!u!u!u!u!u!u!u!u!u!u!u!u!u!u!u!u!u!u!u!u!u!u!u!u!u!u!u!u!",
"u!u!u!u!u!u!u!u!u!u!u!u!u!  ! # # ! $ u!u!u!u!u!u!u!u!u!u!u!u!u!",
"u!u!u!u!u!u!u!u!u!u!% & ' ( ) * + , - . & % u!u!u!u!u!u!u!u!u!u!",
"u!u!u!u!u!u!u!u!% / 0 1 2 3 4 5 5 6 7 8 9 : ; < u!u!u!u!u!u!u!u!",
"u!u!u!u!u!u!u!= - > 1 ? @ @ A @ A ) A A * 4 7 B = u!u!u!u!u!u!u!",
"u!u!u!u!u!u!C $ D E ) A F F A @ @ @ @ @ @ A + 7 @ C u!u!u!u!u!u!",
"u!u!u!u!u!G 5 8 A @ @ @ F @ @ @ @ A @ + @ @ @ A 6 * G u!u!u!u!u!",
"u!u!u!u!H ) 8 A @ F A @ F @ @ @ @ @ @ @ A A A @ A 6 : H u!u!u!u!",
"u!u!u!I C > A A F   J * A F F @ @ @ @ A F     @ @ F K L M u!u!u!",
"u!u!u!N K E A * O P P Q ? F F @ @ @ @ * R S T ( * F U * V u!u!u!",
"u!u!G W X A @ + ) Y Z [ 5 F @ @ @ @ @ ] ^ Z _ ? F @ A 4 ` L u!u!",
"u!u!a b ] @ @ @ 5 c d e R U A F @ F + ) f g W ] @ @ A ? B h u!u!",
"u!u!i j F @ @ @ ? b k Z l J A A @ F ] G m n $ * A @ @ @ $ o u!u!",
"u!/ p q ) @ @ + # r s d t @ + F @ @ $ u v w x - F @ F A 4 [ y u!",
"u!z V 3 ) F @ E / d { | } H J F @ ? Q ~  !!!v #!$ @ F @ 4 $!V u!",
"u!P c j A @ @ + - W G %!Z &!6 $ $ 4 '!g (!)!*!+!+ @ @ @ ,!l -!u!",
"u!.!c j A @ @ F /!0!M 1!2!3!W 4!5!L 6!7!8!I 0!< * A @ @ ,!l h u!",
"u!9!:!j ) @ @ E ;!<!=! !>!?!@!} A!B!@! !!!C!v D!  A @ A 4 E!V u!",
"u!/ h j ) A @ * R F!G!H!I!J!K!L!M!N!| O!P!Q!R!R * F @ A ,![ S!u!",
"u!u!o 5 @ @ @ @ + J J ,!0 T!U!W V!@!W!? 6 J J * A @ @ @ E X!6 u!",
"u!u!p R E A @ @ @ @ A A 5 Y!Z Z![!Z ]!5 @ @ F F @ @ F E O -!u!u!",
"u!u!/ H!4 A @ @ A A A @ E ' ^!_!`!~ # * F @ F @ @ @ A J a!C u!u!",
"u!u!u!l F U @ @ A A @ @ F   b!{ C!p 6 A A @ F F @ F * c!d!e!u!u!",
"u!u!u!- f!,!@ A @ A A @ A ] H { 2!g!$ F @ @ F @ F F ] h!B u!u!u!",
"u!u!u!u!r O ] @ @ A A @ @ F F i!j!$ @ @ @ F F F @ $ k!y u!u!u!u!",
"u!u!u!u!u!r :   @ A @ F @ @ 5 ]!l!] A @ @ @ F @ E # r m!u!u!u!u!",
"u!u!u!u!u!u!= R $ F @ @ @ F F ) A A @ @ A A + E n!= o!u!u!u!u!u!",
"u!u!u!u!u!u!u!Q g!) E + @ @ F + F @ A @ + ? , & Q p!u!u!u!u!u!u!",
"u!u!u!u!u!u!u!u!$ / . 0 * ? ? U U ? U * % . / ? u!u!u!u!u!u!u!u!",
"u!u!u!u!u!u!u!u!u!u!? ' / g!M q!q!Q g!; ' U r!u!u!u!u!u!u!u!u!u!",
"u!u!u!u!u!u!u!u!u!u!u!u!s!8 $ @ @ E 8 t!u!u!u!u!u!u!u!u!u!u!u!u!",
"u!u!u!u!u!u!u!u!u!u!u!u!u!u!u!u!u!u!u!u!u!u!u!u!u!u!u!u!u!u!u!u!"
};
