/* XPM */
static char *_537362586296[] = {
/* columns rows colors chars-per-pixel */
"16 16 60 1 ",
"  c #110F10",
". c #121010",
"X c #121011",
"o c #131011",
"O c #171415",
"+ c #171515",
"@ c #181516",
"# c #201C1D",
"$ c #211D1E",
"% c #221E1F",
"& c #231F20",
"* c #242021",
"= c #252122",
"- c #2A2627",
"; c #2B2829",
": c #2C2829",
"> c #2E2A2B",
", c #302C2D",
"< c #302D2E",
"1 c #312D2E",
"2 c #353132",
"3 c #363334",
"4 c #3D3A3A",
"5 c #3D3A3B",
"6 c #4A4747",
"7 c #4C4949",
"8 c #4D494A",
"9 c #504D4E",
"0 c #605D5E",
"q c #656263",
"w c #6B6869",
"e c #747272",
"r c #797777",
"t c #807D7E",
"y c #848283",
"u c #858383",
"i c #979596",
"p c #9C9B9B",
"a c #AEADAD",
"s c #B4B2B3",
"d c #B9B8B9",
"f c #BDBCBC",
"g c #BFBDBE",
"h c #C3C2C3",
"j c #D1D0D1",
"k c #D6D5D5",
"l c #DCDBDC",
"z c gainsboro",
"x c gray88",
"c c #E7E7E7",
"v c #E8E7E8",
"b c #ECECEC",
"n c #F0EFEF",
"m c #F1F1F1",
"M c #F8F8F8",
"N c #F9F8F8",
"B c gray98",
"V c #FEFEFE",
"C c white",
"Z c None",
/* pixels */
"ZZZZZZZZZZZZZZZZ",
"ZZZZZO%%%%OZZZZZ",
"ZZZ %&&&%&&%XZZZ",
"ZZ :w3&&%&2w:XZZ",
"ZZ%*lp&&&&ix*%ZZ",
"ZO&&tn;&&-bu**@Z",
"Z%%6cCr&&eCv8&%Z",
"Z%%,qdk55jfq,&%Z",
"Z%&8mmCMMCmm9&%Z",
"Z%&&**fsah&&&&%Z",
"ZO&&&&0BNq&&&&@Z",
"ZZ%&&&*zx*&&&%ZZ",
"ZZX%&&&tu&&&%XZZ",
"ZZZX%&&:,&&%XZZZ",
"ZZZZZO%%&%@ZZZZZ",
"ZZZZZZZZZZZZZZZZ"
};
