/* XPM */
static char *_f39a53c200e49eec97a65e5926109a2[] = {
/* columns rows colors chars-per-pixel */
"64 64 256 2 ",
"   c black",
".  c #010101",
"X  c #020202",
"o  c gray1",
"O  c #040404",
"+  c gray2",
"@  c #060606",
"#  c #070707",
"$  c #090909",
"%  c #0B0B0B",
"&  c gray6",
"*  c gray7",
"=  c #131313",
"-  c gray9",
";  c gray10",
":  c #1B1B1B",
">  c gray11",
",  c #1D1D1D",
"<  c #1E1E1E",
"1  c gray12",
"2  c #202020",
"3  c gray13",
"4  c #222222",
"5  c #232323",
"6  c gray14",
"7  c #252525",
"8  c gray15",
"9  c #272727",
"0  c #282828",
"q  c gray16",
"w  c #2A2A2A",
"e  c gray17",
"r  c #2C2C2C",
"t  c #2D2D2D",
"y  c #2D2E2E",
"u  c gray18",
"i  c #2F2F2F",
"p  c gray19",
"a  c #303031",
"s  c #303131",
"d  c #313131",
"f  c #313232",
"g  c #323232",
"h  c #323233",
"j  c gray20",
"k  c #343434",
"l  c #353535",
"z  c gray21",
"x  c #373737",
"c  c #373838",
"v  c gray22",
"b  c #393939",
"n  c #3A3A3A",
"m  c #3B3B3A",
"M  c gray23",
"N  c #3C3C3C",
"B  c #3C3C3D",
"V  c gray24",
"C  c #3E3E3E",
"Z  c #3F3F3F",
"A  c gray25",
"S  c #414141",
"D  c gray26",
"F  c #434343",
"G  c #444444",
"H  c gray27",
"J  c #464646",
"K  c #464747",
"L  c gray28",
"P  c #484848",
"I  c #494949",
"U  c gray29",
"Y  c #4B4B4B",
"T  c #4C4C4C",
"R  c gray30",
"E  c #4E4E4E",
"W  c gray31",
"Q  c #4F5050",
"!  c #505050",
"~  c #515151",
"^  c gray32",
"/  c #525253",
"(  c #525353",
")  c #535353",
"_  c gray33",
"`  c #545555",
"'  c #555555",
"]  c #565656",
"[  c gray34",
"{  c #585858",
"}  c gray35",
"|  c #5A5A5A",
" . c #5B5B5B",
".. c gray36",
"X. c #5D5D5D",
"o. c gray37",
"O. c #5F5F5F",
"+. c #606060",
"@. c gray38",
"#. c #626262",
"$. c gray39",
"%. c #646464",
"&. c #656565",
"*. c #656666",
"=. c gray40",
"-. c #676767",
";. c #686868",
":. c DimGray",
">. c #6A6A6A",
",. c gray42",
"<. c #6C6C6C",
"1. c #6C6D6D",
"2. c #6D6D6D",
"3. c gray43",
"4. c #6F6F6F",
"5. c gray44",
"6. c #717171",
"7. c #727272",
"8. c gray45",
"9. c #747474",
"0. c gray46",
"q. c #767676",
"w. c #777778",
"e. c #787979",
"r. c #797979",
"t. c gray48",
"y. c #7A7B7B",
"u. c #7B7B7B",
"i. c #7C7C7C",
"p. c #7C7C7D",
"a. c gray49",
"s. c #7D7E7E",
"d. c #808080",
"f. c #808181",
"g. c #818181",
"h. c gray51",
"j. c #838383",
"k. c #838384",
"l. c #848484",
"z. c #848585",
"x. c gray52",
"c. c #858686",
"v. c #868686",
"b. c gray53",
"n. c #888888",
"m. c #8B8B8B",
"M. c gray55",
"N. c #8D8D8D",
"B. c #8E8E8F",
"V. c gray56",
"C. c gray57",
"Z. c #929292",
"A. c #939393",
"S. c gray58",
"D. c #959595",
"F. c gray59",
"G. c #979797",
"H. c #989898",
"J. c #9A9A9A",
"K. c #9A9A9B",
"L. c #9B9B9B",
"P. c gray61",
"I. c #9D9D9D",
"U. c #9F9F9F",
"Y. c #A0A1A1",
"T. c #A2A2A2",
"R. c gray64",
"E. c #A4A4A4",
"W. c #A4A5A5",
"Q. c #A5A5A5",
"!. c gray65",
"~. c gray66",
"^. c #AAAAAA",
"/. c gray67",
"(. c gray68",
"). c #AEAEAE",
"_. c #AFAFAF",
"`. c gray69",
"'. c #B1B1B1",
"]. c #B2B2B2",
"[. c #B4B4B4",
"{. c gray71",
"}. c #B6B6B6",
"|. c #B7B7B7",
" X c #B8B9B9",
".X c #B9B9B9",
"XX c gray73",
"oX c #BBBBBB",
"OX c gray74",
"+X c gray",
"@X c gray75",
"#X c #C0C0C0",
"$X c gray76",
"%X c #C2C3C3",
"&X c #C3C3C3",
"*X c gray77",
"=X c #C5C5C5",
"-X c #C6C6C6",
";X c gray78",
":X c #C8C8C8",
">X c gray79",
",X c #CACACA",
"<X c #CBCBCB",
"1X c gray80",
"2X c #CCCDCD",
"3X c #CDCDCD",
"4X c #CECECE",
"5X c gray81",
"6X c #D0D0D0",
"7X c gray82",
"8X c #D2D2D2",
"9X c LightGray",
"0X c #D3D4D4",
"qX c gray83",
"wX c #D5D5D5",
"eX c gray84",
"rX c #D6D6D7",
"tX c #D7D7D7",
"yX c #D8D8D8",
"uX c gray85",
"iX c #DADADA",
"pX c gray86",
"aX c gainsboro",
"sX c #DDDDDD",
"dX c gray87",
"fX c #DFDFDF",
"gX c gray88",
"hX c #E1E1E1",
"jX c #E2E2E2",
"kX c #E3E2E2",
"lX c gray89",
"zX c #E4E4E4",
"xX c gray90",
"cX c #E6E6E6",
"vX c #E7E7E7",
"bX c gray91",
"nX c #E9E9E9",
"mX c #EAEAEA",
"MX c gray92",
"NX c #ECECEC",
"BX c gray93",
"VX c #EEEEEE",
"CX c #EFEFEF",
"ZX c gray94",
"AX c #F1F1F1",
"SX c gray95",
"DX c #F3F3F3",
"FX c #F5F4F4",
"GX c gray96",
"HX c #F6F6F6",
"JX c gray97",
"KX c #F8F8F8",
"LX c #FBFBFB",
"PX c #FDFDFD",
"IX c gray100",
"UX c None",
/* pixels */
"UXUXUXUXUXUXUXUXUXUXUXUXUXUXUXUXUXUXUXUXUXUXUXUXUXUXUXUXUXUXUXUXUXUXUXUXUXUXUXUXUXUXUXUXUXUXUXUXUXUXUXUXUXUXUXUXUXUXUXUXUXUXUXUX",
"UXUXUXUXUXUXUXUXUXUXUXUXUXUXUXUXUXUXUXUXUXUXUXUXUXUXUXUXUXUXUXUXUXUXUXUXUXUXUXUXUXUXUXUXUXUXUXUXUXUXUXUXUXUXUXUXUXUXUXUXUXUXUXUX",
"UXUXUXUXUXUXUXUXUXUXUXUXUXUXUXUXUXUXUXUXUXUXUXUXUXUXUXUXUXUXUXUXUXUXUXUXUXUXUXUXUXUXUXUXUXUXUXUXUXUXUXUXUXUXUXUXUXUXUXUXUXUXUXUX",
"UXUXUXUXUXUXUXUXUXUXUXUXUXUXUXUXUXUXUXUXUXUXUXUXUXUXUXUXUXUXUXUXUXUXUXUXUXUXUXUXUXUXUXUXUXUXUXUXUXUXUXUXUXUXUXUXUXUXUXUXUXUXUXUX",
"UXUXUXUXUXUXUXUXUXUXUXUXUXUXUXUXUXUXUXUXUXUXUXUXUXUXUXUXUXUXUXUXUXUXUXUXUXUXUXUXUXUXUXUXUXUXUXUXUXUXUXUXUXUXUXUXUXUXUXUXUXUXUXUX",
"UXUXUXUXUXUXUXUXUXUXUXUXUXUXUXUXUXUXUXUXUXUXUXUXUXUXUXUXUXUXUXUXUXUXUXUXUXUXUXUXUXUXUXUXUXUXUXUXUXUXUXUXUXUXUXUXUXUXUXUXUXUXUXUX",
"UXUXUXUXUXUXUXUXUXUXUXUXUXUXUXUXUXUXUXUXUXUXUXUXUXUXUXUXr v F G G G v p UXUXUXUXUXUXUXUXUXUXUXUXUXUXUXUXUXUXUXUXUXUXUXUXUXUXUXUX",
"UXUXUXUXUXUXUXUXUXUXUXUXUXUXUXUXUXUXUXUXUXUXUXUXC ' >.2.8.2.2.>.>.2.2.8.2.;.{ C UXUXUXUXUXUXUXUXUXUXUXUXUXUXUXUXUXUXUXUXUXUXUXUX",
"UXUXUXUXUXUXUXUXUXUXUXUXUXUXUXUXUXUXUXUXUXi { 2.8.+.~ Z j r 9 9 9 0 r k F ~ +.2.2.{ p UXUXUXUXUXUXUXUXUXUXUXUXUXUXUXUXUXUXUXUXUX",
"UXUXUXUXUXUXUXUXUXUXUXUXUXUXUXUXUXUXUXr O.8.%.Y r 3 > 3 0 r p k k p p r 9 3 9 p T %.0.+.p UXUXUXUXUXUXUXUXUXUXUXUXUXUXUXUXUXUXUX",
"UXUXUXUXUXUXUXUXUXUXUXUXUXUXUXUXUXUX) 8.%.F 3 : 0 k C F G F F G G G G G F C v r 9 0 F %.8.' UXUXUXUXUXUXUXUXUXUXUXUXUXUXUXUXUXUX",
"UXUXUXUXUXUXUXUXUXUXUXUXUXUXUXUXp >.2.Y 3 > p C G G F F F G G F G G G G G G G F F k 0 0 Y 2.>.k UXUXUXUXUXUXUXUXUXUXUXUXUXUXUXUX",
"UXUXUXUXUXUXUXUXUXUXUXUXUXUXUXF 8.O.r > r C F G G F F F G G G G G G G G F G F F G G F k 0 k +.8.G UXUXUXUXUXUXUXUXUXUXUXUXUXUXUX",
"UXUXUXUXUXUXUXUXUXUXUXUXUXUXY 8.' 3 3 v F G G G G F F F G G F F G G G G G F F F G G G G F p e ' 0.~ UXUXUXUXUXUXUXUXUXUXUXUXUXUX",
"UXUXUXUXUXUXUXUXUXUXUXUXUXR 0.R ; 0 C F F F F G F F F F G G G F F G G G G F F F G G F F F F k 0 ~ 0.~ UXUXUXUXUXUXUXUXUXUXUXUXUX",
"UXUXUXUXUXUXUXUXUXUXUXUXY u.~ ; r F G G F F F F F F F F G G G G F F G G G F F F G G F F G G G v 0 ~ i.R UXUXUXUXUXUXUXUXUXUXUXUX",
"UXUXUXUXUXUXUXUXUXUXUXk l.O.> r F G G F F F G F F F F F F G G G G G G G G F F F G F F F F H H F v r +.g.C UXUXUXUXUXUXUXUXUXUXUX",
"UXUXUXUXUXUXUXUXUXUXUXg.0.3 0 F G F F F F F F F F F Z F G G F G G G F G G F F F F F F F F F F F G v p 0.l.3 UXUXUXUXUXUXUXUXUXUX",
"UXUXUXUXUXUXUXUXUXUX2.C.v 3 F G G F F F F F F F F F F F G F F F G F F G F F F F F F F F F F F A F F p F M.0.UXUXUXUXUXUXUXUXUXUX",
"UXUXUXUXUXUXUXUXUXC U.+.> v G F G F F v k k k v Z F F C F F F F G F F F F F Z F C k k k B F F Z F F F r +.R.G UXUXUXUXUXUXUXUXUX",
"UXUXUXUXUXUXUXUXUXM.D.0 r F G G F F Z %.u.0.y.+.v F F F F F G F F G F G F F C C ' M.m.M.>.v H F F F F v v D.C.UXUXUXUXUXUXUXUXUX",
"UXUXUXUXUXUXUXUXY {.+.> F G G G F F v 0.aXiXjX@XN C F F F F G F F G G F F F Z k ).IXLXIX,.k F F F F F F r %.{.~ UXUXUXUXUXUXUXUX",
"UXUXUXUXUXUXUXUXD.).r p F F F F F F C Z XXqX8XpX%.k Z C F F F F G F G F F C v ~ bXDXLX=Xk A A F F G G F C C /.J.UXUXUXUXUXUXUXUX",
"UXUXUXUXUXUXUXUX=Xg.> C F F F F F Z F p g.qX8XpX~.p C F F F F F G F F F F F p C.LXCXLXu.p A A F F G G G F r g.<Xk UXUXUXUXUXUXUX",
"UXUXUXUXUXUXUX8.qXR 9 F G F F G F F C v T =X8X8X8X~ v F F F F F G G F F C C A qXJXDXaXB B A A F F G G G G k { qXu.UXUXUXUXUXUXUX",
"UXUXUXUXUXUXUX).=Xr k F G G G G F F F Z p D.qX8XaXM.i F F F F F G F F A C p 0.KXAXPXC.0 Z A F F G G G G G F v $X{.UXUXUXUXUXUXUX",
"UXUXUXUXUXUXUXaXR.3 C G F F F F Z F Z C k ' 3X3XqX=XF v F F G F F F F F C k XXJXAXnXH j C Z F F G F G G G F p /.jX9 UXUXUXUXUXUX",
"UXUXUXUXUXUXUXJXg.3 F G G G G F F F F C C k Q.8X5XaX0.k C F F F F F A Z c { bXCXKX'.q N B Z F F G F F F G F p l.JXR UXUXUXUXUXUX",
"UXUXUXUXUXUX>.IX%.0 G G G G F F F F C G.{.).@X<X3XqX'.k C F Z F F F F Z p P.JXbXAXjX3XyXQ.k F F G G F F G F k 2.IX0.UXUXUXUXUXUX",
"UXUXUXUXUXUXm.IX~ r G G F F F G F C C /.8X3X3X<X<X8XqXO.k C C F F F Z B Y iXCXCXAXJXLXIX$Xp F F F F F G F G v { IXD.UXUXUXUXUXUX",
"UXUXUXUXUXUXR.IXG k G G G F F G F C C D.'.'.'.XX3X<XiXL.p C Z Z Z C C p i.CXbXCXwX2X6XyXY.p F F F G F F F F v ~ IX).UXUXUXUXUXUX",
"UXUXUXUXUXUX'.IXF k F G G G G F F F C v k k i F $X3X3X<XY k C F C C M c $XCXNX8Xj i p p p C C F F G G F F G C R IXXXUXUXUXUXUXUX",
"UXUXUXUXUXUX'.IXF k F F G G G F F F F k p p r 3 l.8X2XiXf.9 p p p p 9 O.vXvXDXy.- r r r k C Z A F F H F F H v R IXXXUXUXUXUXUXUX",
"UXUXUXUXUXUXQ.IXG j G G G G F F F Z C 8.g.i.i.u.D.<X<X3X@Xg.z.z.n.l.f. XbXlXbXR.l.M.V.D.u.x Z A H H F F F F B ~ IX).UXUXUXUXUXUX",
"UXUXUXUXUXUXM.IX' p G G G G F F F Z N Q.3X;X<X<X<X=X<X<X6XiXaXjXjXvXbXvXaXjXvXCXFXJXJXIX$Xj A F H F F H H F v ..IXG.UXUXUXUXUXUX",
"UXUXUXUXUXUX2.IX>.r G G G G F F F Z C Q.=X$X=X;X<X<X;X<X3X3XqXiXaXaXaXaXjXvXbXCXNXCXDXIX@Xk F F F F H F F H x 2.IX0.UXUXUXUXUXUX",
"UXUXUXUXUXUXY LXg.0 G G G G G F F F Z ~ ' ' ~ ) ~ ' '.3X<X3X8.~ ` %.qXfXvX@X' O.+.+.+.%.[ v F F F F H F H F j l.LXR UXUXUXUXUXUX",
"UXUXUXUXUXUXUXaXQ.0 F G F F G F Z F F v v k v k p 0 y.8X<XqXl.3 6 %.fXaXvX,.9 p p j k v v A F F F F F H F H p R.jX9 UXUXUXUXUXUX",
"UXUXUXUXUXUXUX'.=Xk C F G G G F F F F F C F A C C v L @X<X3X=XC r '.aXaX<Xk v C C C F A F F F F H F F H H C C $X{.@ UXUXUXUXUXUX",
"UXUXUXUXUXUXUX0.qX' p F F G F G F F F F F F F A F C j V.3X<XqX2.R qXqXvXl.r C F F C F F A F F G F F F A F c [ wXu.UXUXUXUXUXUXUX",
"UXUXUXUXUXUXUXp <Xg.0 F F F F F F F G G G G G F F C k ' <X=X3X).L.yXqXwXL v A Z F F F F F F F G F F F F F p g.<Xv UXUXUXUXUXUXUX",
"UXUXUXUXUXUXUXUXJ.).v C G F G F G F G G G G G F F C F k R.3X<X3X6X5XiXU.r C F F F F F F G G G F F G G F F C /.U.# UXUXUXUXUXUXUX",
"UXUXUXUXUXUXUXUXR {.;.r F F F F G G G G G G G G F F F p >.<X=X=X2X3XqX{ p F F F F F F F F F G F F F G G k %.{.~ UXUXUXUXUXUXUXUX",
"UXUXUXUXUXUXUXUXUXC.D.k v G F F F G G G G G G G F F C C C ).<X<X<X8X'.k B C F F F F F F F F G F F F G C C C.D.& UXUXUXUXUXUXUXUX",
"UXUXUXUXUXUXUXUXUXF U.%.e F F F F G G G G G G F F F C F p u.3X=X=XqX2.p F A F F F F A F F F F F G F F k %.U.Y UXUXUXUXUXUXUXUXUX",
"UXUXUXUXUXUXUXUXUXUX8.M.F j F F G G G G G G G G F F F C C Y @X=X2XoXv C A A F F F F F F F F F F G F v G m.0.@ UXUXUXUXUXUXUXUXUX",
"UXUXUXUXUXUXUXUXUXUX3 g.0.k C F G F F G G G G G F F F F C k C.<X3Xg.p C F F A H F F F F F F F G G C C 8.l.6 UXUXUXUXUXUXUXUXUXUX",
"UXUXUXUXUXUXUXUXUXUXUXC k.+.p C G F F G G G G G F F F F F v { =X$XL v F F F F F G G F F F F F F F v +.g.F UXUXUXUXUXUXUXUXUXUXUX",
"UXUXUXUXUXUXUXUXUXUXUXUXR u.' p C G G G G G G F F F F F F C v Q.D.p F F F G G G G F F F F G F F k ' u.~   UXUXUXUXUXUXUXUXUXUXUX",
"UXUXUXUXUXUXUXUXUXUXUXUXUX' 0.' k C G G G G F F F F F F C C v 2.{ k F F F F G G F F F F G G C v ~ 0.' @ UXUXUXUXUXUXUXUXUXUXUXUX",
"UXUXUXUXUXUXUXUXUXUXUXUXUXUXR 8.' k v G G G F G G G G F F F F C C G F F F F G G G G F G F v v ' 8.' $ UXUXUXUXUXUXUXUXUXUXUXUXUX",
"UXUXUXUXUXUXUXUXUXUXUXUXUXUXUXY 8.+.C k C G G G G F G G F C F F F G F F F F F F G G F F v F O.8.Y @ UXUXUXUXUXUXUXUXUXUXUXUXUXUX",
"UXUXUXUXUXUXUXUXUXUXUXUXUXUXUXUXv 2.>.R v k F G G G G F F F F C F F F F G G G G G F v v R 2.2.v   UXUXUXUXUXUXUXUXUXUXUXUXUXUXUX",
"UXUXUXUXUXUXUXUXUXUXUXUXUXUXUXUXUX> { 8.%.Y v v v F G G F G F F F F G G G G F C v C R +.8.{ >   UXUXUXUXUXUXUXUXUXUXUXUXUXUXUXUX",
"UXUXUXUXUXUXUXUXUXUXUXUXUXUXUXUXUXUXUXp +.8.+.~ F v v v C C F F F F F v v v v F ~ %.8.+.k @ UXUXUXUXUXUXUXUXUXUXUXUXUXUXUXUXUXUX",
"UXUXUXUXUXUXUXUXUXUXUXUXUXUXUXUXUXUXUXUX& k O.2.2.%.' R F C C v v v F G R ' +.2.2.O.k $ UXUXUXUXUXUXUXUXUXUXUXUXUXUXUXUXUXUXUXUX",
"UXUXUXUXUXUXUXUXUXUXUXUXUXUXUXUXUXUXUXUXUXUXUX3 F { >.2.2.>.>.>.>.>.>.2.2.>.{ F 3 @ UXUXUXUXUXUXUXUXUXUXUXUXUXUXUXUXUXUXUXUXUXUX",
"UXUXUXUXUXUXUXUXUXUXUXUXUXUXUXUXUXUXUXUXUXUXUXUXUX  * 9 k F G Y R G F k 9 * @ UXUXUXUXUXUXUXUXUXUXUXUXUXUXUXUXUXUXUXUXUXUXUXUXUX",
"UXUXUXUXUXUXUXUXUXUXUXUXUXUXUXUXUXUXUXUXUXUXUXUXUXUXUXUXUXUXUXUXUXUXUXUXUXUXUXUXUXUXUXUXUXUXUXUXUXUXUXUXUXUXUXUXUXUXUXUXUXUXUXUX",
"UXUXUXUXUXUXUXUXUXUXUXUXUXUXUXUXUXUXUXUXUXUXUXUXUXUXUXUXUXUXUXUXUXUXUXUXUXUXUXUXUXUXUXUXUXUXUXUXUXUXUXUXUXUXUXUXUXUXUXUXUXUXUXUX",
"UXUXUXUXUXUXUXUXUXUXUXUXUXUXUXUXUXUXUXUXUXUXUXUXUXUXUXUXUXUXUXUXUXUXUXUXUXUXUXUXUXUXUXUXUXUXUXUXUXUXUXUXUXUXUXUXUXUXUXUXUXUXUXUX",
"UXUXUXUXUXUXUXUXUXUXUXUXUXUXUXUXUXUXUXUXUXUXUXUXUXUXUXUXUXUXUXUXUXUXUXUXUXUXUXUXUXUXUXUXUXUXUXUXUXUXUXUXUXUXUXUXUXUXUXUXUXUXUXUX",
"UXUXUXUXUXUXUXUXUXUXUXUXUXUXUXUXUXUXUXUXUXUXUXUXUXUXUXUXUXUXUXUXUXUXUXUXUXUXUXUXUXUXUXUXUXUXUXUXUXUXUXUXUXUXUXUXUXUXUXUXUXUXUXUX",
"UXUXUXUXUXUXUXUXUXUXUXUXUXUXUXUXUXUXUXUXUXUXUXUXUXUXUXUXUXUXUXUXUXUXUXUXUXUXUXUXUXUXUXUXUXUXUXUXUXUXUXUXUXUXUXUXUXUXUXUXUXUXUXUX"
};
