/* XPM */
static char *_537362531577[] = {
/* columns rows colors chars-per-pixel */
"64 64 157 2 ",
"   c #110F10",
".  c #121011",
"X  c #131011",
"o  c #131111",
"O  c #131112",
"+  c #141112",
"@  c #141212",
"#  c #141213",
"$  c #151213",
"%  c #151313",
"&  c #161314",
"*  c #161414",
"=  c #171415",
"-  c #181516",
";  c #191616",
":  c #191617",
">  c #1A1718",
",  c #1B1818",
"<  c #1B1819",
"1  c #1C1819",
"2  c #1C191A",
"3  c #1D191A",
"4  c #1F1B1C",
"5  c #1F1C1C",
"6  c #201C1D",
"7  c #211D1E",
"8  c #211E1F",
"9  c #221E1F",
"0  c #231F20",
"q  c #242021",
"w  c #252122",
"e  c #272324",
"r  c #282425",
"t  c #282526",
"y  c #2C2829",
"u  c #2D292A",
"i  c #2E2A2B",
"p  c #322E2F",
"a  c #332F30",
"s  c #363233",
"d  c #363333",
"f  c #363334",
"g  c #3A3637",
"h  c #3B3839",
"j  c #413D3E",
"k  c #413E3F",
"l  c #423E3F",
"z  c #454243",
"x  c #4A4647",
"c  c #4D494A",
"v  c #4F4B4C",
"b  c #4F4C4D",
"n  c #504D4E",
"m  c #5B5859",
"M  c #5D5A5B",
"N  c #5E5B5B",
"B  c #5E5B5C",
"V  c #5F5C5C",
"C  c #5F5C5D",
"Z  c #605D5D",
"A  c #625F60",
"S  c #636061",
"D  c #6D6A6B",
"F  c #6D6B6B",
"G  c #6E6B6C",
"H  c #6F6D6D",
"J  c #6F6D6E",
"K  c #706D6E",
"L  c #716F6F",
"P  c #787576",
"I  c #7A7778",
"U  c #7C7A7A",
"Y  c #7D7B7C",
"T  c #7E7B7C",
"R  c #7E7C7C",
"E  c #7E7C7D",
"W  c #7F7D7E",
"Q  c #807D7E",
"!  c #817F80",
"~  c #868484",
"^  c #888686",
"/  c #8A8888",
"(  c #8D8B8B",
")  c #8F8C8D",
"_  c #8F8D8D",
"`  c #8F8D8E",
"'  c #908E8E",
"]  c #929091",
"[  c #949293",
"{  c #9C9B9B",
"}  c #9D9B9B",
"|  c #9D9B9C",
" . c #9D9C9C",
".. c #9E9C9C",
"X. c #9E9C9D",
"o. c #A19FA0",
"O. c #A6A4A5",
"+. c #A9A7A7",
"@. c #A9A8A8",
"#. c #ABA9AA",
"$. c #AEACAD",
"%. c #AEADAD",
"&. c #B0AEAF",
"*. c #B3B1B2",
"=. c #B7B6B6",
"-. c #B9B8B8",
";. c #BCBBBB",
":. c #BDBBBC",
">. c #BDBCBC",
",. c #BFBEBE",
"<. c #C3C2C2",
"1. c #C5C4C4",
"2. c #C6C5C6",
"3. c #C8C7C7",
"4. c #CCCBCB",
"5. c #CDCCCD",
"6. c #CDCDCD",
"7. c #CECDCD",
"8. c #D7D7D7",
"9. c #DAD9DA",
"0. c #DBDADA",
"q. c #DBDADB",
"w. c gray86",
"e. c #DDDDDD",
"r. c #DEDDDD",
"t. c #DFDEDE",
"y. c gray88",
"u. c #E1E1E1",
"i. c #E3E2E3",
"p. c #E4E3E3",
"a. c #E6E6E6",
"s. c gray91",
"d. c #E9E8E8",
"f. c #E9E9E9",
"g. c #EAE9E9",
"h. c #EAEAEA",
"j. c gray92",
"k. c #EDECEC",
"l. c gray94",
"z. c #F1F0F1",
"x. c #F1F1F1",
"c. c #F2F1F1",
"v. c gray95",
"b. c #F3F3F3",
"n. c #F4F4F4",
"m. c #F6F6F6",
"M. c gray97",
"N. c #F8F8F8",
"B. c #F9F8F9",
"V. c #F9F9F9",
"C. c gray98",
"Z. c #FBFBFB",
"A. c gray99",
"S. c #FDFDFD",
"D. c #FEFEFE",
"F. c white",
"G. c None",
/* pixels */
"G.G.G.G.G.G.G.G.G.G.G.G.G.G.G.G.G.G.G.G.G.G.G.G.G.G.G.G.G.G.G.G.G.G.G.G.G.G.G.G.G.G.G.G.G.G.G.G.G.G.G.G.G.G.G.G.G.G.G.G.G.G.G.G.",
"G.G.G.G.G.G.G.G.G.G.G.G.G.G.G.G.G.G.G.G.G.G.G.G.G.G.G.G.G.G.G.G.G.G.G.G.G.G.G.G.G.G.G.G.G.G.G.G.G.G.G.G.G.G.G.G.G.G.G.G.G.G.G.G.",
"G.G.G.G.G.G.G.G.G.G.G.G.G.G.G.G.G.G.G.G.G.G.G.G.G.G.G.G.G.G.G.G.G.G.G.G.G.G.G.G.G.G.G.G.G.G.G.G.G.G.G.G.G.G.G.G.G.G.G.G.G.G.G.G.",
"G.G.G.G.G.G.G.G.G.G.G.G.G.G.G.G.G.G.G.G.G.G.G.G.G.G.G.G.G.G.  . .   G.G.G.G.G.G.G.G.G.G.G.G.G.G.G.G.G.G.G.G.G.G.G.G.G.G.G.G.G.G.",
"G.G.G.G.G.G.G.G.G.G.G.G.G.G.G.G.G.G.G.G.G.G.G.G.. 2 9 9 0 0 0 0 0 0 0 0 0 9 , . G.G.G.G.G.G.G.G.G.G.G.G.G.G.G.G.G.G.G.G.G.G.G.G.",
"G.G.G.G.G.G.G.G.G.G.G.G.G.G.G.G.G.G.G.G.G.. 4 0 0 0 0 0 0 0 0 0 0 0 0 0 0 0 0 0 0 4 . G.G.G.G.G.G.G.G.G.G.G.G.G.G.G.G.G.G.G.G.G.",
"G.G.G.G.G.G.G.G.G.G.G.G.G.G.G.G.G.G.G.* 9 0 0 0 0 0 0 0 0 0 0 0 0 0 0 0 0 0 0 0 0 0 0 9 - G.G.G.G.G.G.G.G.G.G.G.G.G.G.G.G.G.G.G.",
"G.G.G.G.G.G.G.G.G.G.G.G.G.G.G.G.G.. 9 0 0 0 0 0 0 0 0 0 0 0 0 0 0 0 0 0 0 0 0 0 0 0 0 0 0 9 + G.G.G.G.G.G.G.G.G.G.G.G.G.G.G.G.G.",
"G.G.G.G.G.G.G.G.G.G.G.G.G.G.G.G.4 0 0 0 0 0 0 0 0 0 0 0 0 0 0 0 0 0 0 0 0 0 0 0 0 0 0 0 0 0 0 4 G.G.G.G.G.G.G.G.G.G.G.G.G.G.G.G.",
"G.G.G.G.G.G.G.G.G.G.G.G.G.G.. 9 0 0 0 0 0 0 0 0 0 0 0 0 0 0 0 0 0 0 0 0 0 0 0 0 0 0 0 0 0 0 0 0 0 + G.G.G.G.G.G.G.G.G.G.G.G.G.G.",
"G.G.G.G.G.G.G.G.G.G.G.G.G.- 0 0 0 0 0 0 0 0 0 0 0 0 0 0 0 0 0 0 0 0 0 0 0 0 0 0 0 0 0 0 0 0 0 0 0 0 - G.G.G.G.G.G.G.G.G.G.G.G.G.",
"G.G.G.G.G.G.G.G.G.G.G.G., 0 0 0 0 0 0 0 0 0 0 0 0 0 0 0 0 0 0 0 0 0 0 0 0 0 0 0 0 0 0 0 0 0 0 0 0 0 9 2 G.G.G.G.G.G.G.G.G.G.G.G.",
"G.G.G.G.G.G.G.G.G.G.G., 0 0 0 0 0 0 0 0 0 0 0 0 0 0 0 0 0 0 0 0 0 0 0 0 0 0 0 0 0 0 q 9 q 9 0 0 0 0 0 0 2 G.G.G.G.G.G.G.G.G.G.G.",
"G.G.G.G.G.G.G.G.G.G.- 0 0 0 0 0 0 9 0 0 0 0 0 0 0 0 0 0 0 0 0 0 0 0 0 0 0 0 0 0 0 0 9 q 9 q 0 0 0 0 0 0 q - G.G.G.G.G.G.G.G.G.G.",
"G.G.G.G.G.G.G.G.G.. 0 0 0 0 0 m D D D D A 0 0 0 0 0 0 0 0 0 0 0 0 0 0 0 0 0 0 0 0 0 0 C D D D D Z 0 0 0 q 9 + G.G.G.G.G.G.G.G.G.",
"G.G.G.G.G.G.G.G.G.9 0 0 0 0 0 _ F.F.F.F.F.z 0 0 0 0 0 0 0 0 0 0 0 0 0 0 0 0 0 0 0 0 g B.F.F.F.F.| 0 0 0 9 q 9 G.G.G.G.G.G.G.G.G.",
"G.G.G.G.G.G.G.G.4 0 0 0 0 0 0 s B.F.F.F.F.o.0 0 0 0 0 0 0 0 0 0 0 0 0 0 0 0 0 0 0 0 ] F.F.F.F.A.k 0 0 0 0 0 0 5 G.G.G.G.G.G.G.G.",
"G.G.G.G.G.G.G.+ 0 0 0 0 0 0 0 0 %.F.F.F.F.x.i 0 0 0 0 0 0 0 0 0 0 0 0 0 0 0 0 0 0 t d.F.F.F.F.:.0 0 0 0 0 0 0 0 + G.G.G.G.G.G.G.",
"G.G.G.G.G.G.G.9 0 0 0 0 0 0 0 0 b F.F.F.F.F.R 0 0 0 0 0 0 0 0 0 0 0 0 0 0 0 0 0 0 H F.F.F.F.F.C 0 0 0 0 0 0 0 0 0 G.G.G.G.G.G.G.",
"G.G.G.G.G.G.* 0 0 0 0 0 0 0 0 0 q 6.F.F.F.F.9.0 0 0 0 0 0 0 0 0 0 0 0 0 0 0 0 0 0 4.F.F.F.F.q.0 0 0 0 0 0 0 0 0 q * G.G.G.G.G.G.",
"G.G.G.G.G.G.9 0 0 0 0 0 0 0 0 0 0 K F.F.F.F.F.m 0 0 0 0 0 0 0 0 0 0 0 0 0 0 0 0 c F.F.F.F.F.Y 0 0 0 0 0 0 0 0 0 0 9 G.G.G.G.G.G.",
"G.G.G.G.G.. 0 0 0 0 0 0 0 0 0 0 0 e d.F.F.F.F.=.0 0 0 0 0 0 0 0 0 0 0 0 0 0 0 0 +.F.F.F.F.x.i 9 0 0 0 0 0 0 0 0 0 0 + G.G.G.G.G.",
"G.G.G.G.G.4 0 0 0 0 0 0 0 0 0 0 0 0 _ F.F.F.F.B.h 0 0 0 0 0 0 0 0 0 0 0 0 0 9 p M.F.F.F.F.| 0 0 0 0 0 0 0 0 0 0 0 0 9 G.G.G.G.G.",
"G.G.G.G.G.0 0 0 0 0 0 0 0 0 0 0 0 0 f B.F.F.F.F.[ 0 0 0 0 0 0 0 0 0 0 0 0 0 9 ~ F.F.F.F.F.l 0 0 0 0 0 0 0 0 0 0 0 0 q G.G.G.G.G.",
"G.G.G.G.. 0 0 0 0 0 0 0 0 0 0 U _ _ _ i.F.F.F.F.d.t 0 0 0 0 0 0 0 0 0 0 0 0 q u.F.F.F.F.d.' _ ' ~ 9 q 9 q 9 q 9 0 0 0 + G.G.G.G.",
"G.G.G.G., 0 0 0 0 0 0 0 0 0 0 r.F.F.F.F.F.F.F.F.F.L 0 0 0 0 0 0 0 0 0 0 0 0 S F.F.F.F.F.F.F.F.F.u.q 9 q 9 q 9 q 0 0 0 2 G.G.G.G.",
"G.G.G.G.9 9 0 0 0 0 0 0 0 0 0 r.F.F.F.F.F.F.F.F.F.6.0 0 0 0 0 0 0 0 0 0 9 9 ,.F.F.F.F.F.F.F.F.F.u.0 q 9 q 9 q 9 0 0 0 9 G.G.G.G.",
"G.G.G.G.0 0 0 0 0 0 0 0 0 0 0 q.F.F.F.F.F.F.F.F.F.F.v 0 0 0 0 0 0 0 0 0 0 k F.F.F.F.F.F.F.F.F.F.p.0 9 q 9 q 9 q 0 0 0 0 G.G.G.G.",
"G.G.G.G.0 0 0 0 0 0 0 0 0 0 0 O.1.1.1.1.1.x.F.F.F.F.#.0 0 0 0 0 0 0 0 0 0 ..F.F.F.F.x.<.<.<.<.<.&.0 0 0 q 9 q 9 q 9 q 9 G.G.G.G.",
"G.G.G.G.0 0 0 0 0 0 0 0 0 0 0 0 0 0 0 0 0 _ F.F.F.F.M.a 0 0 0 0 0 0 0 0 i k.F.F.F.F...0 0 0 0 0 0 0 0 0 9 q 9 q 9 q 9 q G.G.G.G.",
"G.G.G.  0 0 0 0 0 0 0 0 0 0 0 0 0 0 0 0 0 s B.F.F.F.F.^ 0 0 0 0 0 0 q 0 I F.F.F.F.F.k 0 0 0 0 0 0 0 0 0 q 9 q 9 q 9 q 9 . G.G.G.",
"G.G.G.. 0 0 0 0 0 0 0 0 0 0 0 P / / / / / / u.F.F.F.F.a.' ' ' ' ' _ ' ' r.F.F.F.F.d.( ( ( ( ( ( Q 0 0 0 9 q 9 q 9 q 9 q + G.G.G.",
"G.G.G.. 0 0 0 0 0 0 0 0 0 0 0 8.F.F.F.F.F.F.F.F.F.F.F.F.F.F.F.F.F.F.F.F.F.F.F.F.F.F.F.F.F.F.F.F.p.0 0 0 0 0 0 0 0 0 0 0 + G.G.G.",
"G.G.G.  0 0 0 0 0 0 0 0 0 0 0 8.F.F.F.F.F.F.F.F.F.F.F.F.F.F.F.F.F.F.F.F.F.F.F.F.F.F.F.F.F.F.F.F.p.0 0 0 0 0 0 0 0 0 0 0 . G.G.G.",
"G.G.G.G.0 0 0 0 0 0 0 0 0 0 0 8.F.F.F.F.F.F.F.F.F.F.F.F.F.F.F.F.F.F.F.F.F.F.F.F.F.F.F.F.F.F.F.F.p.0 0 0 0 0 0 0 0 0 0 0 G.G.G.G.",
"G.G.G.G.0 0 0 0 0 0 0 0 0 0 0 #.1.1.3.3.1.1.1.1.x.F.F.F.F.x.5.6.6.5.x.F.F.F.F.n.3.1.1.1.1.1.1.3.*.0 0 0 0 0 0 0 0 0 0 0 G.G.G.G.",
"G.G.G.G.0 0 0 0 0 0 0 0 0 0 0 0 0 0 0 0 0 0 0 0 _ F.F.F.F.x.i q 9 t k.F.F.F.F.| 0 0 0 0 0 0 0 0 0 0 0 0 0 0 0 0 0 0 0 0 G.G.G.G.",
"G.G.G.G.0 0 0 0 0 0 0 0 0 0 0 0 0 0 0 0 0 0 0 0 s B.F.F.F.F.Q q q D F.F.F.F.F.k 0 0 0 0 0 0 0 0 0 0 0 0 0 0 0 0 0 0 0 9 G.G.G.G.",
"G.G.G.G., 0 0 0 0 0 0 0 0 0 0 0 0 0 0 0 0 0 0 0 0 %.F.F.F.F.9.9 9 3.F.F.F.F.;.9 0 0 0 0 0 0 0 0 0 0 0 0 0 0 0 0 0 0 0 2 G.G.G.G.",
"G.G.G.G.. 0 0 0 0 0 0 0 0 0 0 0 0 0 0 0 0 0 0 0 0 b F.F.F.F.F.N x F.F.F.F.F.C 9 0 0 0 0 0 0 0 0 0 0 0 0 0 0 0 0 0 0 q + G.G.G.G.",
"G.G.G.G.G.0 0 0 0 0 0 0 0 0 0 0 0 0 0 0 0 0 0 0 0 0 6.F.F.F.F.=.+.F.F.F.F.9.0 0 0 0 0 0 0 0 0 0 q 9 q 9 q 9 q 9 0 0 9 G.G.G.G.G.",
"G.G.G.G.G.4 0 0 0 0 0 0 0 0 0 0 0 0 0 0 0 0 0 0 0 0 H F.F.F.F.F.N.F.F.F.F.T 0 0 0 0 0 0 0 0 0 0 9 q 9 q 9 q 9 q 0 0 9 G.G.G.G.G.",
"G.G.G.G.G.. 0 0 0 0 0 0 0 0 0 0 0 0 0 0 0 0 0 0 0 0 e d.F.F.F.F.F.F.F.F.x.i 9 q 0 0 0 0 0 0 0 0 q 9 q 9 q 9 q 9 0 0 + G.G.G.G.G.",
"G.G.G.G.G.G.0 0 0 0 0 0 0 0 0 0 0 0 0 0 0 0 0 0 0 0 0 _ F.F.F.F.F.F.F.F...9 q 9 0 0 0 0 0 0 0 0 9 q 9 q 9 q 9 q 0 9 G.G.G.G.G.G.",
"G.G.G.G.G.G.* 0 0 0 0 0 0 0 0 0 0 0 0 0 0 0 0 0 0 0 0 s N.F.F.F.F.F.F.A.k 9 9 q 0 0 0 0 0 0 0 0 q 9 q 9 q 9 q 9 q - G.G.G.G.G.G.",
"G.G.G.G.G.G.G.0 0 0 0 0 0 0 0 0 0 0 0 0 0 0 0 0 0 0 0 0 %.F.F.F.F.F.F.;.q 9 q 9 0 0 0 0 0 0 0 0 9 q 9 q 9 q 9 q 9 G.G.G.G.G.G.G.",
"G.G.G.G.G.G.G.+ 0 0 0 0 0 0 0 0 0 0 0 0 0 0 0 0 0 0 0 0 n F.F.F.F.F.F.V 9 q 9 q 0 0 0 0 0 0 0 0 q 9 q 9 q 9 q 9 + G.G.G.G.G.G.G.",
"G.G.G.G.G.G.G.G.4 0 0 0 0 0 0 0 0 0 0 0 0 0 0 0 0 0 0 0 9 5.F.F.F.F.9.0 q 9 q 9 0 0 0 0 0 0 0 0 9 q 9 q 9 q 9 9 G.G.G.G.G.G.G.G.",
"G.G.G.G.G.G.G.G.G.0 0 0 0 0 0 0 0 0 0 0 0 0 0 0 0 0 0 0 0 H F.F.F.F.Y 0 0 0 0 0 0 0 0 0 0 0 0 0 q 9 q 9 0 0 9 G.G.G.G.G.G.G.G.G.",
"G.G.G.G.G.G.G.G.G.. 0 0 0 0 0 0 0 0 0 0 0 0 0 0 0 0 0 0 0 e s.F.F.l.i 0 0 0 0 0 0 0 0 0 0 0 0 0 9 q 9 q 0 0 + G.G.G.G.G.G.G.G.G.",
"G.G.G.G.G.G.G.G.G.G.> 0 0 0 0 0 0 0 0 0 0 0 0 0 0 0 0 0 0 0 ) F.F.} 0 0 0 0 0 0 0 0 0 0 0 0 0 0 q 9 q 9 0 > G.G.G.G.G.G.G.G.G.G.",
"G.G.G.G.G.G.G.G.G.G.G., 0 0 0 0 0 0 0 0 0 0 0 0 0 0 0 0 0 0 s N.Z.k 0 0 0 0 0 0 0 0 0 0 0 0 0 0 9 q 9 q 2 G.G.G.G.G.G.G.G.G.G.G.",
"G.G.G.G.G.G.G.G.G.G.G.G.2 0 0 0 0 0 0 0 0 0 0 0 0 0 0 0 0 0 0 %.;.0 0 0 0 0 0 0 0 0 0 0 0 0 0 0 q 9 q 2 G.G.G.G.G.G.G.G.G.G.G.G.",
"G.G.G.G.G.G.G.G.G.G.G.G.G.- 0 0 0 0 0 0 0 0 0 0 0 0 0 0 0 0 0 b N 9 0 0 0 0 0 0 0 0 0 0 0 0 0 0 9 q , G.G.G.G.G.G.G.G.G.G.G.G.G.",
"G.G.G.G.G.G.G.G.G.G.G.G.G.G.+ 0 0 0 0 0 0 0 0 0 0 0 0 0 0 0 0 0 0 0 0 0 0 0 0 0 0 0 0 0 0 0 0 9 9 + G.G.G.G.G.G.G.G.G.G.G.G.G.G.",
"G.G.G.G.G.G.G.G.G.G.G.G.G.G.G.G.5 0 0 0 0 0 0 0 0 0 0 0 0 0 0 0 0 0 0 0 0 0 0 0 0 0 0 0 0 0 0 9 G.G.G.G.G.G.G.G.G.G.G.G.G.G.G.G.",
"G.G.G.G.G.G.G.G.G.G.G.G.G.G.G.G.G.% 9 q 9 q 0 0 0 0 0 0 0 0 0 0 0 0 0 0 0 0 0 0 0 0 0 0 0 9 % G.G.G.G.G.G.G.G.G.G.G.G.G.G.G.G.G.",
"G.G.G.G.G.G.G.G.G.G.G.G.G.G.G.G.G.G.G.- 9 9 0 0 0 0 0 0 0 0 0 0 0 0 0 0 0 0 0 0 0 9 0 9 - G.G.G.G.G.G.G.G.G.G.G.G.G.G.G.G.G.G.G.",
"G.G.G.G.G.G.G.G.G.G.G.G.G.G.G.G.G.G.G.G.G.+ 9 0 0 0 0 0 0 0 0 0 0 0 0 0 0 0 0 0 0 9 % G.G.G.G.G.G.G.G.G.G.G.G.G.G.G.G.G.G.G.G.G.",
"G.G.G.G.G.G.G.G.G.G.G.G.G.G.G.G.G.G.G.G.G.G.G.G.+ 2 9 0 0 0 0 0 0 0 0 0 0 9 2 + G.G.G.G.G.G.G.G.G.G.G.G.G.G.G.G.G.G.G.G.G.G.G.G.",
"G.G.G.G.G.G.G.G.G.G.G.G.G.G.G.G.G.G.G.G.G.G.G.G.G.G.G.G.G.G.. + + + G.G.G.G.G.G.G.G.G.G.G.G.G.G.G.G.G.G.G.G.G.G.G.G.G.G.G.G.G.G.",
"G.G.G.G.G.G.G.G.G.G.G.G.G.G.G.G.G.G.G.G.G.G.G.G.G.G.G.G.G.G.G.G.G.G.G.G.G.G.G.G.G.G.G.G.G.G.G.G.G.G.G.G.G.G.G.G.G.G.G.G.G.G.G.G.",
"G.G.G.G.G.G.G.G.G.G.G.G.G.G.G.G.G.G.G.G.G.G.G.G.G.G.G.G.G.G.G.G.G.G.G.G.G.G.G.G.G.G.G.G.G.G.G.G.G.G.G.G.G.G.G.G.G.G.G.G.G.G.G.G.",
"G.G.G.G.G.G.G.G.G.G.G.G.G.G.G.G.G.G.G.G.G.G.G.G.G.G.G.G.G.G.G.G.G.G.G.G.G.G.G.G.G.G.G.G.G.G.G.G.G.G.G.G.G.G.G.G.G.G.G.G.G.G.G.G."
};
