/* XPM */
static char *viacoin64[] = {
"64 64 163 2 0 0",
"   c #515151",
"!  c #616161",
"#  c #686868",
"$  c #6D6D6D",
"%  c #6F6F6F",
"&  c #707070",
"'  c #515152",
"(  c #5C5C5C",
")  c #636363",
"*  c #585858",
"+  c #575757",
",  c #5F5F5F",
"-  c #3C3C3C",
".  c #4A4A4A",
"/  c #6A6A6A",
"0  c #5A5A5A",
"1  c #464646",
"2  c #353535",
"3  c #292929",
"4  c #222222",
"5  c #1F1F1F",
"6  c #1C1C1C",
"7  c #212121",
"8  c #252525",
"9  c #2A2A2A",
":  c #363636",
";  c #666666",
"<  c #4C4C4C",
"=  c #404040",
">  c #272727",
"?  c #1B1B1B",
"@  c #303030",
"A  c #393939",
"B  c #323232",
"C  c #2E2E2E",
"D  c #414141",
"E  c #494949",
"F  c #3B3B3B",
"G  c #3F3F3F",
"H  c #434343",
"I  c #444444",
"J  c #3A3A3A",
"K  c #171717",
"L  c #656565",
"M  c #3D3E3E",
"N  c #717272",
"O  c #777777",
"P  c #4E4E4E",
"Q  c #7F7F7F",
"R  c #747474",
"S  c #858585",
"T  c #838383",
"U  c #2D2D2D",
"V  c #818181",
"W  c #797979",
"X  c #8E8E8E",
"Y  c #191919",
"Z  c #8D8D8D",
"[  c #7B7B7B",
"]  c #979797",
"^  c #989898",
"_  c #909090",
"`  c #9F9F9F",
"a  c #9C9C9D",
"b  c #5B5B5B",
"c  c #ACACAC",
"d  c #878787",
"e  c #EBEBEB",
"f  c #E0E0E1",
"g  c #E8E9E9",
"h  c #A0A0A0",
"i  c #727272",
"j  c #E3E3E3",
"k  c #E5E5E5",
"l  c #E5E5E6",
"m  c #9B9B9B",
"n  c #B0B1B1",
"o  c #DBDBDB",
"p  c #F6F6F6",
"q  c #F1F2F2",
"r  c #F4F4F4",
"s  c #A5A5A5",
"t  c #F7F7F7",
"u  c #F3F3F3",
"v  c #FCFCFC",
"w  c #B9B9B9",
"x  c #555555",
"y  c #BDBDBD",
"z  c #959595",
"{  c #FAFAFA",
"|  c #EEEEEE",
"}  c #FBFCFC",
"~  c #8A8A8A",
" ! c #D9D9D9",
"!! c #F5F6F6",
"#! c #BEBEBE",
"$! c #CBCBCC",
"%! c #F0F0F0",
"&! c #D3D3D3",
"'! c #CFCFCF",
"(! c #CACACB",
")! c #898989",
"*! c #C9C8C9",
"+! c #EFF0F0",
",! c #F8F9F9",
"-! c #C4C4C4",
".! c #BBBBBB",
"/! c #DFDFE0",
"0! c #ECECEC",
"1! c #C6C6C6",
"2! c #B3B3B3",
"3! c #A7A7A7",
"4! c #C2C2C2",
"5! c #DDDDDD",
"6! c #939393",
"7! c #A2A2A2",
"8! c #7D7D7D",
"9! c #CFCFD0",
":! c #979898",
";! c #FFFFFF",
"<! c #D7D7D7",
"=! c #D1D1D1",
">! c #7D7D7E",
"?! c #B7B7B7",
"@! c #B5B5B5",
"A! c #B3B3B4",
"B! c #39393A",
"C! c #E6E6E6",
"D! c #DEDEDF",
"E! c #CDCDCD",
"F! c #535353",
"G! c #ABACAB",
"H! c #F3F4F4",
"I! c #EDEEEE",
"J! c #979798",
"K! c #8D8E8E",
"L! c #DBDBDC",
"M! c #EDEDEE",
"N! c #939394",
"O! c #C7C7C8",
"P! c #C7C7C7",
"Q! c #E7E7E8",
"R! c #7F7F80",
"S! c #0B0B0B",
"T! c #3B3B3C",
"U! c #A8A8A8",
"V! c #C1C1C1",
"W! c #444443",
"X! c #9F9FA0",
"Y! c #5B5B5C",
"Z! c #121212",
"[! c #090909",
"]! c #363635",
"^! c #DFDFDF",
"_! c #0D0D0D",
"`! c #3E3E3D",
"a! c #050505",
"b! c #000000",
"c! c #060606",
"d! c #4B4B4B",
"e! c #030303",
"f! c #141414",
"g! c None",
"g!g!g!g!g!g!g!g!g!g!g!g!g!g!g!g!g!g!g!g!g!g!g!g!g!g!g!g!g!g!g!g!g!g!g!g!g!g!g!g!g!g!g!g!g!g!g!g!g!g!g!g!g!g!g!g!g!g!g!g!g!g!g!g!",
"g!g!g!g!g!g!g!g!g!g!g!g!g!g!g!g!g!g!g!g!g!g!g!g!g!g!g!g!g!g!g!g!g!g!g!g!g!g!g!g!g!g!g!g!g!g!g!g!g!g!g!g!g!g!g!g!g!g!g!g!g!g!g!g!",
"g!g!g!g!g!g!g!g!g!g!g!g!g!g!g!g!g!g!g!g!g!g!g!g!g!g!g!g!g!g!g!g!g!g!g!g!g!g!g!g!g!g!g!g!g!g!g!g!g!g!g!g!g!g!g!g!g!g!g!g!g!g!g!g!",
"g!g!g!g!g!g!g!g!g!g!g!g!g!g!g!g!g!g!g!g!g!g!g!g!g!  ! # $ % % & & % % % # ! ' g!g!g!g!g!g!g!g!g!g!g!g!g!g!g!g!g!g!g!g!g!g!g!g!g!",
"g!g!g!g!g!g!g!g!g!g!g!g!g!g!g!g!g!g!g!g!g!g!( $ & % $ # ) ( * + + * ( ) # $ % & $ , - g!g!g!g!g!g!g!g!g!g!g!g!g!g!g!g!g!g!g!g!g!",
"g!g!g!g!g!g!g!g!g!g!g!g!g!g!g!g!g!g!g!. / % $ # 0 1 2 3 4 5 5 6 5 5 7 8 9 : 1 * ; $ & / < g!g!g!g!g!g!g!g!g!g!g!g!g!g!g!g!g!g!g!",
"g!g!g!g!g!g!g!g!g!g!g!g!g!g!g!g!g!1 / % / ( = > ? 6 4 9 @ 2 : A A : : B C 3 7 7 9 D ( / % $ E g!g!g!g!g!g!g!g!g!g!g!g!g!g!g!g!g!",
"g!g!g!g!g!g!g!g!g!g!g!g!g!g!g!g!; % / 0 2 ? ? 3 2 F G D H H H H I H H H H = - A @ 8 4 : * / % # g!g!g!g!g!g!g!g!g!g!g!g!g!g!g!g!",
"g!g!g!g!g!g!g!g!g!g!g!g!g!g!. % $ ! A ? 5 @ J = H H H H H H H H H I I H H H H H D G : 3 4 J , $ & < g!g!g!g!g!g!g!g!g!g!g!g!g!g!",
"g!g!g!g!g!g!g!g!g!g!g!g!g!( % / < 5 6 @ - H I H H H H H H H H H H I I I H H H I H H H = A 3 > < / % , g!g!g!g!g!g!g!g!g!g!g!g!g!",
"g!g!g!g!g!g!g!g!g!g!g!g!) $ ; A K 3 A = H H H H H H H H I I H H H H H H H H H H H H I H H G 2 8 F L $ ; g!g!g!g!g!g!g!g!g!g!g!g!",
"g!g!g!g!g!g!g!g!g!g!g!; $ ) 9 ? @ M H H I I H H H D D H I I H H H H H H H H H H H H H H H H H - 3 @ ! $ # g!g!g!g!g!g!g!g!g!g!g!",
"g!g!g!g!g!g!g!g!g!g!; N L > 5 : D H H H H H H H H D H H I I I H H I I I I H D D H H I H H H H H M C @ ) N / g!g!g!g!g!g!g!g!g!g!",
"g!g!g!g!g!g!g!g!g!, O / > 5 A D H H H H H H H H H H H I I H H I H H I I I H D D H I I H H H I H H = @ @ / O ) g!g!g!g!g!g!g!g!g!",
"g!g!g!g!g!g!g!g!P Q R @ 5 A D H I H H H H H H D D H H I I H H I I I I H I H H H H I I H I I I H H H = @ : R Q   g!g!g!g!g!g!g!g!",
"g!g!g!g!g!g!g!g!S T D ? : H H H H H H H H I I H H D H H H H H H I I H H H H H H H I I H I I H H I H H G U 1 V S C g!g!g!g!g!g!g!",
"g!g!g!g!g!g!g!W X ! Y B D H I I H H H I I H H I I H H H I H H I H H H H H H H I I H I I I H H I H H H H M 9 ! Z [ g!g!g!g!g!g!g!",
"g!g!g!g!g!g!P ] T 4 3 G H H I H H = M M M M D H H H H D H D H I I H H H H H H H H H M M M M D I H = H D D A B T ^ P g!g!g!g!g!g!",
"g!g!g!g!g!g!_ ` < 6 - H I H H H D + L ) ) ! E H I I H D H H H H H H H H H H H H H < ; ) ) ; + D H D H D H D @ ' a _ g!g!g!g!g!g!",
"g!g!g!g!g!b c d 6 B D I I I H H F O e f f g h A H H H H H H H H H H H H H H H I - i j k l f ( M I H H H H D - C S c 0 g!g!g!g!g!",
"g!g!g!g!g!m n P 5 - H H H I H H D 1 o p q r k < M H H H H H H H H H H H H H I H = s t u v w : H I H H H H H = @ x n a g!g!g!g!g!",
"g!g!g!g!g!y ` 4 B H H H H H H H H : z { | | } ~ A H H H I H H H I H H H H H H M (  !!!q p % J H H H H H H I H M B m #!1 g!g!g!g!",
"g!g!g!g!~ $!% ? M H H H H H H H D M x g %!| !!&!D D H H I I H D H H H D H H H M _ q q p '!G H I H H H H I I H H C i (!)!g!g!g!g!",
"g!g!g!g!w *!M 3 = H H H I H H I H I A n { +!+!,!i F I I I I I H H I H H H I =   *!p +!,!d A I I H I H H I I H H A E -!.!g!g!g!g!",
"g!g!g!g! !n 4 : D H H H H H H H H H - / r %!%!{ .!A H I H I I I H H H H H D - [ e q u /!. = I H I I H H H I H H G B c o 1 g!g!g!",
"g!g!g!N 0!~ 6 M H H H H H H H H H H H M 1!,!%!q +!0 M I I H I H H H H H H G 1 2!p | ,!a : 1 I H I I I H H I I H D C Z e W g!g!g!",
"g!g!g!` q ; 4 = H H H H H H H H H D - B i u q %!v a A I H H H H H H H H H - ) f q %!e ' : M = I I I H H H H H I H B $ | 3!g!g!g!",
"g!g!g!4!+!E 9 H H I H H H H I H M R s h a &!!!%!!!5!1 = H H D H H H H H H G m u | %!j 6!` 7!W G I I H I H H H H H :   g '!g!g!g!",
"g!g!g!f k 2 B H I H H D I I I I - 8!p r u q q q %!} Q : H = D H H H I I G x 9!r | | | q q } :!: H I I H H H H H H F D f g 5 g!g!",
"g!g!g!r o 3 A H I I H D H I I I - 8!v } { { !!+!%!,!*!- H D H H H H H H M d | +!| r t t t ;!m A I I I H H H H H H M A <!{ B g!g!",
"g!g!g!;!=!8 J I I I H H H I I H M >!w ?!@!2!'!r %!%!p / - H H H H H H D < #!r | q (!n A!2!w W F I I H H H H H H I = 2 9!;!G g!g!",
"g!g!g!;!'!4 J D H I I I H H H I I 1 B!A J B ) !!%!+!{ n A H H I I H H M R C!%!q D!E : J A A M H H H H H H H H H I = B E!;!1 g!g!",
"g!g!g!;!'!8 J H H I I I H H I H I = J F F F : #!p +!q e F!: F - F F J = G!H!I!t J!C - - - J - H H D H I I H H H H = B E!;!1 g!g!",
"g!g!g!;!=!> J I H H H H H H H H M i z _ _ _ X 7!g %!| r 7!~ _ _ _ _ K!m L!%!M!H!7!d _ _ _ N!N M D H I I H H H H H G 2 '!;!G g!g!",
"g!g!g!p o 9 A I I I I H H I H H F >!u %!%!+!+!0!M!| | | 0!| | | | | I!M!| I!I!| 0!| | | | ,!^ A H I I I H H H H I G J <!} B g!g!",
"g!g!g!f k A : H I I I H H I H H - W { ,!p p p p !!%!| | +!%!!!!!!!r +!| | | %!!!p p p p p ;!^ : H H I H H H I H H M H f g 5 g!g!",
"g!g!g!-!+!P @ H I I I I H H H H M 8!(!O!P!P!P!1!P!Q!+!| | g P!1!1!*!e +!| %!Q!P!P!P!P!P!O!'!R!J H H H H H I H H H A F!Q!9!S!g!g!",
"g!g!g!h q / 3 H H H H H H D D H H 1 - T!T!- F - B U!,!M!+!Q!F!: A D V!r | ,!)!B - F F F F - M H H H H H H H H H H 2 $ | U!g!g!g!",
"g!g!g!& 0!Z 8 D I H H H H D H I H H H W!H I I H - # q | M!{ U!A M $ f q q D!E G H H H I H H H H H I H H H H I H H @ Z e W g!g!g!",
"g!g!g!g! !n U M H H I I H H I H H H H H H H H H H M 1!!!| q C!P = 3!r | ,!X!: I I H H H I I H H H H H H H H I I G 2 c L!1 g!g!g!",
"g!g!g!g!@!*!1 B H H I H H H I I I H H H I H I H H A Q ,!| | } ~ F! !u %!0!Y!M H I H H H H H D H H H I I H D H H A < -!.!Z!g!g!g!",
"g!g!g!g!8!E!R 3 = H H H H H H H I I I I I I I I I D 1  !u | !!$!] %!%!,!?!A W!H H I H I H D H H H I H H H H H D B R $!S g!g!g!g!",
"g!g!g!g!: y h @ F I I I H H H H I I I I H I H H H I : z { | %!k D!q %!p $ A I I H H H H D H H H I H H H I H H G A m #!G g!g!g!g!",
"g!g!g!g!g!_ 2!+ C D H H H H H I I I I H H I H H H H M   Q!q +!q u %!t $!T!D H H H H D H H H H H H H H H I H H : 0 n ] [!g!g!g!g!",
"g!g!g!g!g!1 c ~ C F H H H H H H I I H I I I I I H D H A c { +!%!%!%!{ T ]!H H H I I H H H H H H I H H H H H = : d c P g!g!g!g!g!",
"g!g!g!g!g!g!d ` + U D H H H H H I I I I I H H H H I H - L r q %!%!r ^!1 = H I I I H H H D H H D H I H H H H : * a ~ _!g!g!g!g!g!",
"g!g!g!g!g!g!A ] d : : D H H H I H I H H H I H H H I H H M -!,!%!%!v ` : I H H I H H H I D H H H H H I H D M M T ^ = g!g!g!g!g!g!",
"g!g!g!g!g!g!g!/ _ / C - H H H H H I I I I I I H H I H H A >!{ q u | 0 `!I H H H H H H H D H H H D H H H M : # X % a!g!g!g!g!g!g!",
"g!g!g!g!g!g!g!Y 8!T ' B = H H H H I I I I I H H H I I H D 1 o p { ?!A H H I H H H I H D D H I H D I H D : F!V Q 6 g!g!g!g!g!g!g!",
"g!g!g!g!g!g!g!g!: >!W 1 2 D H H H H I I I H I H H H H H H : ] v !!% J H H I H I H I I H D D H H H I H A E O Q J g!g!g!g!g!g!g!g!",
"g!g!g!g!g!g!g!g!g!. W % = 2 H H H H I I I H H D H H H H H M F!q '!M H I I H H H H H H H H H H H H H A I $ W P b!g!g!g!g!g!g!g!g!",
"g!g!g!g!g!g!g!g!g!g!' i / D 2 = H H H I H H H H H H I H D H A @!Z 2 I H I H H H I H H H H H H I H A 1 # i x c!g!g!g!g!g!g!g!g!g!",
"g!g!g!g!g!g!g!g!g!g!g!F!% # 1 2 G H I I H H H H H H H D H H G + d!D I I I H H I I H I H H H H = A . # % x [!g!g!g!g!g!g!g!g!g!g!",
"g!g!g!g!g!g!g!g!g!g!g!g!P $ /   : F H H H H I I H H H H H H I M = 1 I I H H H H H I I I I H - F x # $ ' S!g!g!g!g!g!g!g!g!g!g!g!",
"g!g!g!g!g!g!g!g!g!g!g!g!g!I $ / ! H : M H I H H H H H H H D H H I H H H H H H H H H I I = A I ! / $ 1 a!g!g!g!g!g!g!g!g!g!g!g!g!",
"g!g!g!g!g!g!g!g!g!g!g!g!g!g!B # $ / + - A M H H H H H H H H = D D H H H I I H H H H = J M + / $ # B b!g!g!g!g!g!g!g!g!g!g!g!g!g!",
"g!g!g!g!g!g!g!g!g!g!g!g!g!g!g!K F!$ $ # x = : F G H H H H H H H H H H I I I D G F A D x ; / $ x Y b!g!g!g!g!g!g!g!g!g!g!g!g!g!g!",
"g!g!g!g!g!g!g!g!g!g!g!g!g!g!g!g!g!C , $ $ / ( d!M A A - M = = D D = G G - J J G < ( # $ $ , @ e!g!g!g!g!g!g!g!g!g!g!g!g!g!g!g!g!",
"g!g!g!g!g!g!g!g!g!g!g!g!g!g!g!g!g!g![!B ( / % $ # , + d!1 = G G G G = 1 . x , # / $ $ ( 2 [!g!g!g!g!g!g!g!g!g!g!g!g!g!g!g!g!g!g!",
"g!g!g!g!g!g!g!g!g!g!g!g!g!g!g!g!g!g!g!g!a!8 E ! / % % $ / / # ; L # / / $ $ % / ) E 8 c!g!g!g!g!g!g!g!g!g!g!g!g!g!g!g!g!g!g!g!g!",
"g!g!g!g!g!g!g!g!g!g!g!g!g!g!g!g!g!g!g!g!g!g!g!S!7 F P ( ) # / / / / # L ( P F 4 S!b!g!g!g!g!g!g!g!g!g!g!g!g!g!g!g!g!g!g!g!g!g!g!",
"g!g!g!g!g!g!g!g!g!g!g!g!g!g!g!g!g!g!g!g!g!g!g!g!g!g!g!a!_!f!? 5 5 ? f!_!a!b!g!g!g!g!g!g!g!g!g!g!g!g!g!g!g!g!g!g!g!g!g!g!g!g!g!g!",
"g!g!g!g!g!g!g!g!g!g!g!g!g!g!g!g!g!g!g!g!g!g!g!g!g!g!g!g!g!g!g!g!g!g!g!g!g!g!g!g!g!g!g!g!g!g!g!g!g!g!g!g!g!g!g!g!g!g!g!g!g!g!g!g!",
"g!g!g!g!g!g!g!g!g!g!g!g!g!g!g!g!g!g!g!g!g!g!g!g!g!g!g!g!g!g!g!g!g!g!g!g!g!g!g!g!g!g!g!g!g!g!g!g!g!g!g!g!g!g!g!g!g!g!g!g!g!g!g!g!"
};
