/* XPM */
static char *acf5297730d848679e38d31d6e1b0e68[] = {
/* columns rows colors chars-per-pixel */
"32 32 146 2 ",
"   c gray7",
".  c gray9",
"X  c #222222",
"o  c #2A2A2A",
"O  c #2C2C2C",
"+  c #2D2D2D",
"@  c gray18",
"#  c #2F2F2F",
"$  c gray19",
"%  c #313131",
"&  c #323232",
"*  c gray20",
"=  c #343434",
"-  c #353535",
";  c gray21",
":  c #373737",
">  c gray22",
",  c #393939",
"<  c #3A3A3A",
"1  c gray23",
"2  c #3C3C3C",
"3  c gray24",
"4  c #3E3E3E",
"5  c #3F3F3F",
"6  c gray25",
"7  c #414141",
"8  c gray26",
"9  c #434343",
"0  c #444444",
"q  c gray27",
"w  c #464646",
"e  c gray28",
"r  c #484848",
"t  c #494949",
"y  c gray29",
"u  c #4B4B4B",
"i  c #4C4C4C",
"p  c gray30",
"a  c #4D4E4E",
"s  c #4E4E4E",
"d  c gray31",
"f  c #505050",
"g  c #515151",
"h  c #535353",
"j  c gray33",
"k  c #555555",
"l  c #555556",
"z  c #565656",
"x  c gray34",
"c  c #585858",
"v  c gray35",
"b  c #5A5A5A",
"n  c #5B5B5B",
"m  c gray36",
"M  c #5D5D5D",
"N  c gray37",
"B  c #5F5F5F",
"V  c #5F5F60",
"C  c #606060",
"Z  c gray38",
"A  c #626262",
"S  c #646464",
"D  c #656565",
"F  c #676767",
"G  c #686868",
"H  c DimGray",
"J  c #6A6A6A",
"K  c gray43",
"L  c #717172",
"P  c #727272",
"I  c gray45",
"U  c #747474",
"Y  c gray46",
"T  c #767676",
"R  c #777777",
"E  c gray47",
"W  c #797979",
"Q  c #7B7B7B",
"!  c #7C7C7C",
"~  c gray49",
"^  c #7E7E7E",
"/  c #7F7F80",
"(  c #818282",
")  c #838383",
"_  c #838484",
"`  c #848484",
"'  c gray52",
"]  c #868686",
"[  c #888888",
"{  c #8B8B8B",
"}  c #8D8D8D",
"|  c #8E8E8E",
" . c gray56",
".. c #929292",
"X. c #939393",
"o. c #959595",
"O. c #979797",
"+. c gray60",
"@. c #9A9A9A",
"#. c #9B9B9B",
"$. c gray62",
"%. c #A0A0A0",
"&. c gray63",
"*. c #A2A2A2",
"=. c #A7A7A7",
"-. c gray66",
";. c #AFAFAF",
":. c #B1B1B1",
">. c gray73",
",. c #BBBCBC",
"<. c gray74",
"1. c #C0C0C0",
"2. c #C1C1C2",
"3. c gray76",
"4. c #C3C3C3",
"5. c gray77",
"6. c #C5C5C5",
"7. c #C6C6C6",
"8. c gray78",
"9. c gray79",
"0. c #CDCDCD",
"q. c gray82",
"w. c #D2D2D2",
"e. c LightGray",
"r. c gray83",
"t. c #D5D5D5",
"y. c #D8D8D8",
"u. c gray85",
"i. c #DADADA",
"p. c gray86",
"a. c #DFDFDF",
"s. c gray88",
"d. c #E1E1E1",
"f. c #E2E2E2",
"g. c #E2E3E3",
"h. c gray90",
"j. c #E6E6E6",
"k. c #EAEAEA",
"l. c #ECECEC",
"z. c gray93",
"x. c #F4F4F4",
"c. c #F8F8F8",
"v. c #F9F9F9",
"b. c #FBFBFB",
"n. c gray100",
"m. c None",
/* pixels */
"m.m.m.m.m.m.m.m.m.m.m.m.m.m.m.m.m.m.m.m.m.m.m.m.m.m.m.m.m.m.m.m.",
"m.m.m.m.m.m.m.m.m.m.m.m.m.m.m.m.m.m.m.m.m.m.m.m.m.m.m.m.m.m.m.m.",
"m.m.m.m.m.m.m.m.m.m.m.m.m.m.m.m.m.m.m.m.m.m.m.m.m.m.m.m.m.m.m.m.",
"m.m.m.m.m.m.m.m.m.m.m.m.m.: 9 9 0 9 : m.m.m.m.m.m.m.m.m.m.m.m.m.",
"m.m.m.m.m.m.m.m.m.m.9 x u 5 > > : , 9 p x 9 m.m.m.m.m.m.m.m.m.m.",
"m.m.m.m.m.m.m.m.+ v 9 + = 2 9 0 9 9 5 , : 0 v + m.m.m.m.m.m.m.m.",
"m.m.m.m.m.m.m.5 h + > 0 0 0 0 0 9 0 0 0 0 5 : x 9 m.m.m.m.m.m.m.",
"m.m.m.m.m.m.9 f O 9 0 0 0 0 0 0 0 0 0 0 0 0 9 : x 0 m.m.m.m.m.m.",
"m.m.m.m.m.: m + 9 9 9 0 9 9 0 0 0 0 9 9 0 0 9 9 : S , m.m.m.m.m.",
"m.m.m.m.m.R % 9 0 9 5 , 9 9 9 0 0 0 0 9 1 , 9 9 9 5 Q m.m.m.m.m.",
"m.m.m.m.S m : r 5 x =.o.9 6 9 0 0 0 0 5 $.3.x 5 9 , S H m.m.m.m.",
"m.m.m.m.o.: 9 0 9 9 <.g.S , 0 0 0 0 1 v n.q.5 9 0 0 9 @.m.m.m.m.",
"m.m.m.m.{ % 0 0 9 : R g.%.> 9 0 0 9 % %.n.R = 0 0 0 , X.r m.m.m.",
"m.m.m.` K , 0 0 9 5 u 4.q.f 2 9 0 9 0 g.g.0 5 9 0 0 , R  .m.m.m.",
"m.m.m.=.v 5 9 0 , L 3.0.p.[ : 9 9 : ) c.x.l.Q , 0 0 5 m :.m.m.m.",
"m.m.m.>.f 9 0 9 6 x I R 9.1.5 : : : 5.h.) ` f 9 0 0 9 v 5.m.m.m.",
"m.m.m.>.f 5 0 0 9 r v f ;.i.` Z Z ! z.3.x V r 5 0 0 9 x 5.m.m.m.",
"m.m.m.-.n 9 e 0 2 L 9.5.5.0.q.t.i.g.h.h.l.c.~ , 0 0 5 A :.m.m.m.",
"m.m.m.` L 2 0 0 9 0 p p r :.t.S n s.,.p j v r 9 0 0 5 R  .m.m.m.",
"m.m.m.i  .: 0 0 9 9 5 5 % R p.` Q k.L $ 1 5 6 0 0 0 , X.j m.m.m.",
"m.m.m.m.@.9 9 0 0 0 0 0 5 0 <.5.9.5.9 5 9 9 0 0 0 9 9 $.m.m.m.m.",
"m.m.m.m.S S , 0 0 0 0 0 9 : { q.i.` = 9 9 9 0 0 0 5 S H m.m.m.m.",
"m.m.m.m.m.~ 5 9 e 0 e 0 0 5 x 5.8.i 5 9 0 9 0 0 9 9 ~ . m.m.m.m.",
"m.m.m.m.m., S 5 0 0 e 0 9 9 , *.@.: 9 9 0 9 0 0 5 H 1 m.m.m.m.m.",
"m.m.m.m.m.m.0 n , 0 0 0 0 0 , S m 5 0 0 9 9 9 5 v r m.m.m.m.m.m.",
"m.m.m.m.m.m.m.9 v 9 9 0 0 0 9 9 9 0 0 0 0 9 9 m 0 m.m.m.m.m.m.m.",
"m.m.m.m.m.m.m.m.% m p 9 9 9 0 0 9 9 9 5 9 p m * m.m.m.m.m.m.m.m.",
"m.m.m.m.m.m.m.m.m.m.0 v x r 0 0 0 0 p x n 0   m.m.m.m.m.m.m.m.m.",
"m.m.m.m.m.m.m.m.m.m.m.m.X 9 p f f p 9 o m.m.m.m.m.m.m.m.m.m.m.m.",
"m.m.m.m.m.m.m.m.m.m.m.m.m.m.m.m.m.m.m.m.m.m.m.m.m.m.m.m.m.m.m.m.",
"m.m.m.m.m.m.m.m.m.m.m.m.m.m.m.m.m.m.m.m.m.m.m.m.m.m.m.m.m.m.m.m.",
"m.m.m.m.m.m.m.m.m.m.m.m.m.m.m.m.m.m.m.m.m.m.m.m.m.m.m.m.m.m.m.m."
};
