/* XPM */
static char *_537362561385[] = {
/* columns rows colors chars-per-pixel */
"32 32 102 2 ",
"   c #121011",
".  c #131011",
"X  c #131112",
"o  c #141112",
"O  c #151313",
"+  c #161314",
"@  c #161414",
"#  c #171415",
"$  c #171515",
"%  c #181516",
"&  c #181616",
"*  c #191617",
"=  c #1C191A",
"-  c #1D1A1B",
";  c #211D1E",
":  c #221E1F",
">  c #231F20",
",  c #242122",
"<  c #272324",
"1  c #282425",
"2  c #292526",
"3  c #2A2627",
"4  c #2C2829",
"5  c #2E2A2B",
"6  c #363334",
"7  c #373334",
"8  c #373434",
"9  c #383535",
"0  c #3A3637",
"q  c #3E3A3B",
"w  c #3E3B3C",
"e  c #3F3B3C",
"r  c #434041",
"t  c #464344",
"y  c #474344",
"u  c #4A4747",
"i  c #504D4E",
"p  c #514D4E",
"a  c #565353",
"s  c #575455",
"d  c #595656",
"f  c #595657",
"g  c #5C595A",
"h  c #5D5A5B",
"j  c #615E5E",
"k  c #666363",
"l  c #696667",
"z  c #6A6868",
"x  c #6B6969",
"c  c #706D6E",
"v  c #706E6E",
"b  c #726F70",
"n  c #747272",
"m  c #757373",
"M  c #787576",
"N  c #797778",
"B  c #7B7979",
"V  c #7D7B7C",
"C  c #7E7B7C",
"Z  c #848182",
"A  c #8A8889",
"S  c #8E8C8D",
"D  c #908D8E",
"F  c #979595",
"G  c #989696",
"H  c #989697",
"J  c #999798",
"K  c #9A9899",
"L  c #A09E9E",
"P  c #A1A0A0",
"I  c #AEADAD",
"U  c #AFADAE",
"Y  c #B4B2B3",
"T  c #B4B3B3",
"R  c #B8B7B7",
"E  c #BAB9B9",
"W  c #C5C4C5",
"Q  c #C6C5C5",
"!  c #CFCECE",
"~  c LightGray",
"^  c #D8D7D7",
"/  c #DADADA",
"(  c #DBDADA",
")  c #DCDBDB",
"_  c #DEDDDD",
"`  c gray89",
"'  c #E6E6E6",
"]  c #E7E6E6",
"[  c #E7E7E7",
"{  c #ECEBEB",
"}  c gray93",
"|  c #F3F2F3",
" . c #F4F3F3",
".. c gray97",
"X. c #F8F8F8",
"o. c gray98",
"O. c #FBFBFB",
"+. c gray99",
"@. c #FDFDFD",
"#. c #FEFEFE",
"$. c white",
"%. c None",
/* pixels */
"%.%.%.%.%.%.%.%.%.%.%.%.%.%.%.%.%.%.%.%.%.%.%.%.%.%.%.%.%.%.%.%.",
"%.%.%.%.%.%.%.%.%.%.%.%.%.%.%.%.%.%.%.%.%.%.%.%.%.%.%.%.%.%.%.%.",
"%.%.%.%.%.%.%.%.%.%.%.o ; : : > > > : - O %.%.%.%.%.%.%.%.%.%.%.",
"%.%.%.%.%.%.%.%.%.* : > : : : : > > : : : : * %.%.%.%.%.%.%.%.%.",
"%.%.%.%.%.%.%.%.: : > > : : : , > > > > > > > : %.%.%.%.%.%.%.%.",
"%.%.%.%.%.%.O : > : > > , , : : > > > > > > > > : + %.%.%.%.%.%.",
"%.%.%.%.%.O > > : : : , : : , : > > > > > > > > > > * %.%.%.%.%.",
"%.%.%.%.%.: > u Y R v : : , : : > > > > > x Y Y i > : %.%.%.%.%.",
"%.%.%.%.: : > 1 [ $.` < : : , , > > > > , ( $.} 5 : > : %.%.%.%.",
"%.%.%.$ > > > > D $.$.l , : : : > > > > g $.$.J > : > > * %.%.%.",
"%.%.%.: > > > > 6 ..$.W , : , : > > > > E $.o.e > > > > > %.%.%.",
"%.%.  > > > > > : I $.$.y : : : > > , e o.$.E > > > > > >   %.%.",
"%.%.= : > > > k Q ( $.$.P : : , > > > G $.$._ Q z > > > > - %.%.",
"%.%.: > > > > C $.$.$.$. .5 : , > > 1 } $.$.$.$.Z > > > > : %.%.",
"%.%.> > > > > r m m K $.$.C > : > > m $.$.L n m y > > > > > %.%.",
"%.%.> > > > > 7 a a g  .$.( f f f f ~ $...j s s 0 > > > > > %.%.",
"%.%.: : : : : C $.$.$.$.$.$.$.$.$.$.$.$.$.$.$.$.Z > > > > > %.%.",
"%.%.: : , : : v ` ` ` ` o.$.O.[ [ o.$.+.` ` ` ` M > > > > > %.%.",
"%.%.: : : : : , : , , : U $.o.q 6 ..$.R > > > > > > > > > : %.%.",
"%.%.; : : , : , : : : : i $.$.F A $.$.f > > > > > > > > > - %.%.",
"%.%.o : , : : : , , : : > ! $.{ [ $.^ > > > > > > > > > > O %.%.",
"%.%.%.: : : , : : : : , > b $.$.$.$.N > > > > > > > > > : %.%.%.",
"%.%.%.; : , , : : : : , : 1 [ $.$.} 5 > > > > > > > > > * %.%.%.",
"%.%.%.%.: : : : , , : : : : S $.$.F : : > > > > > > : : %.%.%.%.",
"%.%.%.%.%.: : > > > > > > > 0 ..o.q > > > > > > > > : %.%.%.%.%.",
"%.%.%.%.%.# > > > > > > > > > U R > > > > > > > > : $ %.%.%.%.%.",
"%.%.%.%.%.%.* : : > > > > > > i f : > > > > > > : $ %.%.%.%.%.%.",
"%.%.%.%.%.%.%.%.: > > : > > > > > > > > > > : : %.%.%.%.%.%.%.%.",
"%.%.%.%.%.%.%.%.%.* : , > > > > > > > > : : * %.%.%.%.%.%.%.%.%.",
"%.%.%.%.%.%.%.%.%.%.%.  - : > > > > : - O %.%.%.%.%.%.%.%.%.%.%.",
"%.%.%.%.%.%.%.%.%.%.%.%.%.%.%.%.%.%.%.%.%.%.%.%.%.%.%.%.%.%.%.%.",
"%.%.%.%.%.%.%.%.%.%.%.%.%.%.%.%.%.%.%.%.%.%.%.%.%.%.%.%.%.%.%.%."
};
