/* XPM */
static char *da27d06a719b48aaa428e9a95182bf84[] = {
/* columns rows colors chars-per-pixel */
"150 57 36 1 ",
"  c gray9",
". c #1B1B1B",
"X c #252525",
"o c #272828",
"O c #2C2C2C",
"+ c #333333",
"@ c #3C3C3C",
"# c #434343",
"$ c #474848",
"% c #4C4C4C",
"& c #4F4F50",
"* c #535353",
"= c #5C5C5C",
"- c #5F6060",
"; c #636363",
": c #6B6B6B",
"> c #747474",
", c #7C7C7C",
"< c #828282",
"1 c #8C8C8C",
"2 c #949494",
"3 c #9B9B9B",
"4 c #A4A4A4",
"5 c #ACACAC",
"6 c #B4B4B4",
"7 c #BBBBBB",
"8 c #C3C3C3",
"9 c #C7C8C8",
"0 c #CBCBCB",
"q c #D3D3D3",
"w c #DBDBDB",
"e c #E4E4E4",
"r c #ECECEC",
"t c #F0EFEF",
"y c #F5F5F5",
"u c #FFFFFF",
/* pixels */
"uuuuuuuuuuuuuuuuuuuuuuuuuuuuuuuuuuuuuuuuuuuuuuuuuuuuuuuuuuuuuuuuuuuuuuuuuuuuuuuuuuuuuuuuuuuuuuuuuuuuuuuuuuuuuuuuuuuuuuuuuuuuuuuuuuuuuuuuuuuuuuuuuuuuuu",
"uuuuuuuuuuuuuuuuuuuuuuuuuuuuuuuuuuuuuuuuuuuuuuuuuuuuuuuuuuuuuuuuuuuuuuuuuuuuuuuuuuuuuuuuuuuuuuuuuuuuuuuuuuuuuuuuuuuuuuuuuuuuuuuuuuuuuuuuuuuuuuuuuuuuuu",
"uuuuuuuuuuuuuuuuuuuuuuuuuuuuuuuuuuuuuuuuuuuuuuuuuuuuuuuuuuuuuuuuuuuuuuuuuuuuuuuuuuuuuuuuuuuuuuuuuuuuuuuuuuuuuuuuuuuuuuuuuuuuuuuuuuuuuuuuuuuuuuuuuuuuuu",
"uuuuuuuuuuuuuuuuuuuuuuuuuuuuuuuuuuuuuuuuuuuuuuuuuuuuuuuuuuuuuuuuuuuuuuuuuuuuuuuuuuuuuuuuuuuuuuuuuuuuuuuuuuuuuuuuuuuuuuuuuuuuuuuuuuuuuuuuuuuuuuuuuuuuuu",
"uuuuuuuuuuuuuuuuuuuuuuuuuuuuuuuuuuuuuuuuuuuuuuuuuuuuuuuuuuuuuuuuuuuuuuuuuuuuuuuuuuuuuuuuuuuuuuuuuuuuuuuuuuuuuuuuuuuuuuuuuuuuuuuuuuuuuuuuuuuuuuuuuuuuuu",
"uuuuuuuuuuuuuuuuuuuuuuuuuuuuuuuuuuuuuuuuuuuuuuuuuuuuuuuuuuuuuuuuuuuuuuuuuuuuuuuuuuuuuuuuuuuuuuuuuuuuuuuuuuuuuuuuuuuuuuuuuuuuuuuuuuuuuuuuuuuuuuuuuuuuuu",
"uuuuuuuuuuuuuuuuuuuuuuuuuuuuuuuuuuuuuuuuuuuuuuuuuuuuuuuuuuuuuuuuuuuuuuuuuuuuuuuuuuuuuuuuuuuuuuuuuuuuuuuuuuuuuuuuuuuuuuuuuuuuuuuuuuuuuuuuuuuuuuuuuuuuuu",
"uuuuuuuuuuuuuuuuuuuuuuuuuuuuuuuuuuuuuuuuuuuuuuuuuuuuuuuuuuuuuuuuuuuuuuuuuuuuuuuuuuuuuuuuuuuuuuuuuuuuuuuuuuuuuuuuuuuuuuuuuuuuuuuuuuuuuuuuuuuuuuuuuuuuuu",
"uuuuuuuuuuuuuuuuuuuuuuuuuuuuuuuuuuuuuuuuuuuuuuuuuuuuuuuuuuuuuuuuuuuuuuuuuuuuuuuuuuuuuuuuuuuuuuuuuuuuuuuuuuuuuuuuuuuuuuuuuuuuuuuuuuuuuuuuuuuuuuuuuuuuuu",
"uuuuuuuuuuuuuuuuuuuuuuuuuuuuuuuuuuuuuuuuuuuuuuuuuuuuuuuuuuuuuuuuuuuuuuuuuuuuuuuuuuuuuuuuuuuuuuuuuuuuuuuuuuuuuuuuuuuuuuuuuuuuuuuuuuuuuuuuuuuuuuuuuuuuuu",
"uuuuuuuuuuuuu8<;*%$&=,7tuuuuuuuuuuuuuuuuuuuuuuuuuuuuuuuuuuuuuuuuuuuuuuuuuuuuuuuuuuuuuuuuuuuuuuuuuuuuuuuuuuuuuuuuuuuuuuuuuuuuuuuuuuuuuuuuuuuuuuuuuuuuuu",
"uuuuuuuuuur,&=;=*%&&=;=%:wuuuuuuuuuuuuuuuuuuuuuuuuuuuuuuuuuuuuuuuuuuuuuuuuuuuuuuuuuuuuuuuuuuuuuuuuuuuuuuuuuuuuuuuuuuuuuuuuuuuuuuuuuuuuuuuuuuuuuuuuuuuu",
"uuuuuuuuu,&;&@OOO+O+OO@&;&;ruuuuuuuuuuuuuuuuuuuuuuuuuuuuuuuuuuuuuuuuuuuuuuuuuuuuuuuuuuuuuuuuuuuuuuuuuuuuuuuuuuuuuuuuuuuuuuuuuuuuuuuuuuuuuuuuuuuuuuuuuu",
"uuuuuuuq&;%OO+@#######@++%:#6uuuuuuuuuuuuuuuuuuuuuuuuuuuuuuuuuuuuuuuuuuuuuuuuuuuuuuuuuuuuuuuuuuuuuuuuuuuuuuuuuuuuuuuuuuuuuuuuuuuuuuuuuuuuuuuuuuuuuuuuu",
"uuuuuu6&;OO@###########$@++;%1uuuuuuuuuuuuuuuuuuuuuuuuuuuuuuuuuuuuuuuuuuuuuuuuuuuuuuuuuuuuuuuuuuuuuuuuuuuuuuuuuuuuuuuuuuuuuuuuuuuuuuuuuuuuuuuuuuuuuuuu",
"uuuuu6==X+################@+==,uuuuuuuuuuuuuuuuuuuuuuuuuuuuuuuuuuuuuuuuuuuuuuuuuuuuuuuuuuuuuuuuuuuuuuuuuuuuuuuuuuuuuuuuuuuuuuuuuuuuuuuuuuuuuuuuuuuuuuu",
"uuuuq==X@$#######$########$#O;*3uuuuuuuuuuuuuuuuuuuuuuuuuuuuuuuuuuuuuuuuuuuuuuuuuuuuuuuuuuuuuuuuuuuuuuuuuuuuuuuuuuuuuuuuuuuuuuuuuuuuuuuuuuuuuuuuuuuuuu",
"uuuy*>o@#####################+>%quuuuuuuuuuuuuuuuuuuuuuuuuuuuuuuuuuuuuuuuuuuuuuuuuuuuuuuuuuuuuuuuuuuuuuuuuuuuuuuuuuuuuuuuuuuuuuuuuuuuuuuuuuuuuuuuuuuuu",
"uuu,1@O$##@+@##########@+@###@$1$uuuuuuuuuuuuuuuuuuuuuuuuuuuuuuuuuuuuuuuuuuuuuuuuuuuuuuuuuuuuuuuuuuuuuuuuuuuuuuuuuuuuuuuuuuuuuuuuuuuuuuuuuuuuuuuuuuuuu",
"uue>:X###$:>*@########@=<,#@##+>>4uuuuuuuuuuuuuuuuuuuuuuuuuuuuuuuuuuuuuuuuuuuuuuuuuuuuuuuuuuuuuuuuuuuuuuuuuuuuuuuuuuuuuuuuuuuuuuuuuuuuuuuuuuuuuuuuuuuu",
"uu,4@@##@#6r7@@#######+7u9@###@#4#uuuuuyuuruuuuuuuuuuuuuutuuuuuuuueuuuuuuuuuuuuuueqwwruuuuuuuuuuutq77qtuuuuuuuuurrtuuuurrruuuuuuuurteuuuuuuuuuuuuuuuuu",
"uy>1o####+>ww:+######@=ru>O####+2>7uuuu7yy5uuuuuurru2utry8yuuuuuuuqquuuuuuuuuut5:*&&&=<quuuuuuuq1=****;1wuuuuuu0==;uuu2**=euuuuuue*&#uuuuuuuuuuuuuuuuu",
"u76=O$###@#7w4+#####@+3uq@@####@:6-uuuu7ttwruuuuyrrr2uyru7yuuuuuutr7uuuuuuuuuw;%*-====&&3wuuuu5=&=;====&*4uuuuu9**;uuu1%&&:uuuuuur&%#uuuuuuuuuuuuuuuuu",
"u<9@@#####o,wq*@####@$eu,X#####@$0$uuuuuwty7uuuuyry7ruurr7yuuuuuuew7uuuuuuuuw**-*#&=%%=;#6uuu2**=&&;;&&==&3uuuu0*&-uuu2%&&%2uuuuur&$#uuuuuuuuuuuuuuuuu",
"u>9O####@&<29w1+@###+<ut41&@####@0;euuuu5yy8uuuutry1uuyer7yuuuuuuqqw7uuuuuuy;*;#3uuuue=$6uuu9===&8uuuuq&***9uuu9*&=uuu1%&&%&8uuuur&&#uuuuuuuuuuuuuuuuu",
"u<7O####@;qq0q8#@##@@8ytuu;+####+8<8uuuuwetr9uuurr09uuywe6uuuuuue00q4uuuuuu5&=$quuuuuuuruuuu:*=%yuuuuuuu&=&>uuu9&%=uuu2$%%%%=tuuue*&$uuuuuuuuuuuuuuuuu",
"u17O#$####=&:9w>O@@O-re>=;######+726uuuuu9ty4uuwer2uuuyww5yuuuuuq9007euuuuy:*=<uuuuuuuuuuuuq==*6uuuuuuuu8%&&wuu9%%=uuu1$&*%&%,uuur=&$uuuuuuuuuuuuuuuuu",
"u17O####@##@#6w5$#$#5y7@@@@@####+823uuuuu9ee9uueww3uuutqq5yuuuur9979q6uuuuq==%euuuuuuuuuuuu4***uuuuuuuuuu&&%5uu9%%=uuu2%&,2*&*4uue==$uuuuuuuuuuuuuuuuu",
"u<8O####@=8889009qwqeererr=@####@8<5uuuuuy9ewqtww4tuuut0q4yuuuuw073qw6yuuu5=-*uuuuuuuuuuuuu3%*:uuuuuuuuuu>%%1uu0&&-uuu2&*:u=**-wur==%uuuuuuuuuuuuuuuuu",
"u:9+####@*333380944qeq6777=@####@0;9uuuuuu4wq600q<uuuur904uuuurqw2t9ww6uuu3&*&uuuuuuuuuuuuu<$%;uuuuuuuuuu,##,uu8$%*uuu<%&:ue****ue=&#uuuuuuuuuuuuuuuuu",
"u:0######@@++o<w8@O8r<o++@@#####$0@euuuuuuw6765749uuuuq692yuuu40q,u4we3uuu4+++yuuuuuuuuuuuu>OO+uuuuuuuuuu%oO;uu3OO@uuu=++=uu3+++;q+++uuuuuuuuuuuuuuuuu",
"u16;+######@#+%8w>=eq#@@@#@####@;7Ouuuuuuuu27668,uuuuuq703yuuw9w79uq0e0wuuq+OO4uuuuuuuuuuuu4OXOwuuuuuuuue+OO3uu3+++uuu=++=uuu-+++>+++uuuuuuuuuuuuuuuuu",
"uw>2+#########+2q66e2+#########@1,;uuuuuuuu776773uuuuuq9q4yuu4ee4yuy7rt2uuu@OO@uuuuuuuuuuuurOOO=uuuuuuuu>O+Oruu3++@uuu=++=uuuu@++++++uuuuuuuuuuuuuuuuu",
"uu%4@@######$#@-00qq*@########@$4+8uuuuuuuuy4902yuuuuuqqe4yuy8eewrrreer7yuu3OXO&ruuuuu6=yuuu:OOO<uuuuuu3+++=uuu3++@uuu=++=uuuu9O+++++uuuuuuuuuuuuuuuuu",
"uu5>>+#####$##@@40q4+@########@>>+uuuuuuuuuu3ww<uuuuuuqwr5uu7reryrrttree6uuu%OXX+>606:OO#wuur++O+%4qw7:+O+Oruuu3++@uuu=++=uuuuu<+++++uuuuuuuuuuuuuuuuu",
"uuu@1#@##$#####+>0q:+###@####@$1o5uuuuuuuuuuw080uuuuuuqwr6yu5rr4<111<5rt4uuuy#OOOXOOOXOOX5uuu0+++O++++O+@O9uuuu3O+@uuu=++=uuuuuu$++++uuuuuuuuuuuuuuuuu",
"uuu7$,+#$######@#76@@########@,$#uuuuuuuuuuuu51uuuuuuuqru6uwrye5uuuuu7rye9uuuu:OOOO+O+O+7uuuuue$++++++++#wuuuuu2+@+uuu=+@*uuuuuur++@+uuuuuuuuuuuuuuuuu",
"uuuu:*;@@#####@#+1,+#######@@;*.euuuuuuuuuuuu64uuuuuuuw<<<u0<<<yuuuuuu1<,7uuuuur<#+O@*5uuuuuuuuu8;#++@=7uuuuuuu8%$>uuu2$$2uuuuuuu6%%;uuuuuuuuuuuuuuuuu",
"uuuuu#=-@#######@%$########@;= 6uuuuuuuuuuuuuuuuuuuuuuuuuuuuuuuuuuuuuuuuuuuuuuuuuuuuuuuuuuuuuuuuuuuuuuuuuuuuuuuuuuuuuuuuuuuuuuuuuuuuuuuuuuuuuuuuuuuuuu",
"uuuuut+&-#@#$####@#######@#;& 2uuuuuuuuuuuuuuuuuuuuuuuuuuuuuuuuuuuuuuuuuuuuuuuuuuuuuuuuuuuuuuuuuuuuuuuuuuuuuuuuuuuuuuuuuuuuuuuuuuuuuuuuuuuuuuuuuuuuuuu",
"uuuuuuy#@:*#@#######$##@#*:@.4uuuuuuuuuuuuuuuuuuuuuuuuuuuuuuuuuuuuuuuuuuuuuuuuuuuuuuuuuuuuuuuuuuuuuuuuuuuuuuuuuuuuuuuuuuuuuuuuuuuuuuuuuuuuuuuuuuuuuuuu",
"uuuuuuuu,X%:*$@@@@@@@##=;%X+0uuuuuuuuuuuuuuuuuuuuuuuuuuuuuuuuuuuuuuuuuuuuuuuuuuuuuuuuuuuuuuuuuuuuuuuuuuuuuuuuuuuuuuuuuuuuuuuuuuuuuuuuuuuuuuuuuuuuuuuuu",
"uuuuuuuuu0$o#=;-=*==-;=#XX1tuuuuuuuuuuuuuuuuuuuuuuuuuuuuuuuuuuuuuuuuuuuuuuuuuuuuuuuuuuuuuuuuuuuuuuuuuuuuuuuuuuuuuuuuuuuuuuuuuuuuuuuuuuuuuuuuuuuuuuuuuu",
"uuuuuuuuuuu0;OXO@@@@OX.#2ruuuuuuuuuuuuuuuuuuuuuuuuuuuuuuuuuuuuuuuuuuuuuuuuuuuuuuuuuuuuuuuuuuuuuuuuuuuuuuuuuuuuuuuuuuuuuuuuuuuuuuuuuuuuuuuuuuuuuuuuuuuu",
"uuuuuuuuuuuuuyq4<:;>17euuuuuuuuuuuuuuuuuuuuuuuuuuuuuuuuuuuuuuuuuuuuuuuuuuuuuuuuuuuuuuuuuuuuuuuuuuuuuuuuuuuuuuuuuuuuuuuuuuuuuuuuuuuuuuuuuuuuuuuuuuuuuuu",
"uuuuuuuuuuuuuuuuuuuuuuuuuuuuuuuuuuuuuuuuuuuuuuuuuuuuuuuuuuuuuuuuuuuuuuuuuuuuuuuuuuuuuuuuuuuuuuuuuuuuuuuuuuuuuuuuuuuuuuuuuuuuuuuuuuuuuuuuuuuuuuuuuuuuuu",
"uuuuuuuuuuuuuuuuuuuuuuuuuuuuuuuuuuuuuuuuuuuuuuuuuuuuuuuuuuuuuuuuuuuuuuuuuuuuuuuuuuuuuuuuuuuuuuuuuuuuuuuuuuuuuuuuuuuuuuuuuuuuuuuuuuuuuuuuuuuuuuuuuuuuuu",
"uuuuuuuuuuuuuuuuuuuuuuuuuuuuuuuuuuuuuuuuuuuuuuuuuuuuuuuuuuuuuuuuuuuuuuuuuuuuuuuuuuuuuuuuuuuuuuuuuuuuuuuuuuuuuuuuuuuuuuuuuuuuuuuuuuuuuuuuuuuuuuuuuuuuuu",
"uuuuuuuuuuuuuuuuuuuuuuuuuuuuuuuuuuuuuuuuuuuuuuuuuuuuuuuuuuuuuuuuuuuuuuuuuuuuuuuuuuuuuuuuuuuuuuuuuuuuuuuuuuuuuuuuuuuuuuuuuuuuuuuuuuuuuuuuuuuuuuuuuuuuuu",
"uuuuuuuuuuuuuuuuuuuuuuuuuuuuuuuuuuuuuuuuuuuuuuuuuuuuuuuuuuuuuuuuuuuuuuuuuuuuuuuuuuuuuuuuuuuuuuuuuuuuuuuuuuuuuuuuuuuuuuuuuuuuuuuuuuuuuuuuuuuuuuuuuuuuuu",
"uuuuuuuuuuuuuuuuuuuuuuuuuuuuuuuuuuuuuuuuuuuuuuuuuuuuuuuuuuuuuuuuuuuuuuuuuuuuuuuuuuuuuuuuuuuuuuuuuuuuuuuuuuuuuuuuuuuuuuuuuuuuuuuuuuuuuuuuuuuuuuuuuuuuuu",
"uuuuuuuuuuuuuuuuuuuuuuuuuuuuuuuuuuuuuuuuuuuuuuuuuuuuuuuuuuuuuuuuuuuuuuuuuuuuuuuuuuuuuuuuuuuuuuuuuuuuuuuuuuuuuuuuuuuuuuuuuuuuuuuuuuuuuuuuuuuuuuuuuuuuuu",
"uuuuuuuuuuuuuuuuuuuuuuuuuuuuuuuuuuuuuuuuuuuuuuuuuuuuuuuuuuuuuuuuuuuuuuuuuuuuuuuuuuuuuuuuuuuuuuuuuuuuuuuuuuuuuuuuuuuuuuuuuuuuuuuuuuuuuuuuuuuuuuuuuuuuuu",
"uuuuuuuuuuuuuuuuuuuuuuuuuuuuuuuuuuuuuuuuuuuuuuuuuuuuuuuuuuuuuuuuuuuuuuuuuuuuuuuuuuuuuuuuuuuuuuuuuuuuuuuuuuuuuuuuuuuuuuuuuuuuuuuuuuuuuuuuuuuuuuuuuuuuuu",
"uuuuuuuuuuuuuuuuuuuuuuuuuuuuuuuuuuuuuuuuuuuuuuuuuuuuuuuuuuuuuuuuuuuuuuuuuuuuuuuuuuuuuuuuuuuuuuuuuuuuuuuuuuuuuuuuuuuuuuuuuuuuuuuuuuuuuuuuuuuuuuuuuuuuuu",
"uuuuuuuuuuuuuuuuuuuuuuuuuuuuuuuuuuuuuuuuuuuuuuuuuuuuuuuuuuuuuuuuuuuuuuuuuuuuuuuuuuuuuuuuuuuuuuuuuuuuuuuuuuuuuuuuuuuuuuuuuuuuuuuuuuuuuuuuuuuuuuuuuuuuuu",
"uuuuuuuuuuuuuuuuuuuuuuuuuuuuuuuuuuuuuuuuuuuuuuuuuuuuuuuuuuuuuuuuuuuuuuuuuuuuuuuuuuuuuuuuuuuuuuuuuuuuuuuuuuuuuuuuuuuuuuuuuuuuuuuuuuuuuuuuuuuuuuuuuuuuuu"
};
