<?xml version="1.0" encoding="UTF-8"?>
<svg xmlns="http://www.w3.org/2000/svg" xmlns:xlink="http://www.w3.org/1999/xlink" viewBox="0 0 50 50" version="1.1" width="1024px" height="1024px">
<g id="surface1">
<path style=" fill-rule:evenodd;" d="M 25 2 C 37.695313 2 48 12.304688 48 25 C 48 37.695313 37.695313 48 25 48 C 12.304688 48 2 37.695313 2 25 C 2 12.304688 12.304688 2 25 2 Z M 33.394531 20 L 37 11 L 35 11 L 29 26 L 21 26 L 15 11 L 12.960938 11 L 16.566406 20 L 12 20 L 12 22 L 17.367188 22 L 18.96875 26 L 12 26 L 12 28 L 19.769531 28 L 24.980469 41 L 30.1875 28 L 38 28 L 38 26 L 30.988281 26 L 32.59375 22 L 38 22 L 38 20 Z M 25 36 L 21.800781 28 L 28.199219 28 Z "/>
</g>
</svg>
